{
DisplayStrings = (
"\U00E8"
);
customParameters = (
{
name = glyphOrder;
value = (
    ".notdef",
    A,
    B,
    C,
    D,
    E,
    F,
    G,
    H,
    I,
    J,
    K,
    L,
    M,
    N,
    O,
    P,
    Q,
    R,
    S,
    T,
    U,
    V,
    W,
    X,
    Y,
    Z,
    a,
    b,
    c,
    d,
    e,
    f,
    g,
    h,
    i,
    j,
    k,
    l,
    m,
    n,
    o,
    p,
    q,
    r,
    s,
    t,
    u,
    v,
    w,
    x,
    y,
    z,
    zero,
    one,
    two,
    three,
    four,
    five,
    six,
    seven,
    eight,
    nine,
    backslash,
    bullet,
    colon,
    comma,
    exclam,
    numbersign,
    period,
    periodcentered,
    question,
    semicolon,
    slash,
    underscore,
    braceleft,
    braceright,
    bracketleft,
    bracketright,
    parenleft,
    parenright,
    emdash,
    hyphen,
    guilsinglright,
    dollar,
    divide,
    equal,
    percent,
    plus,
    bar,
    newGlyph
);
}
);
date = "2012-12-10 22:08:58 +0000";
designer = Mandy;
designerURL = "http://symb.ly";
familyName = "Ezcodx Gamification Symbly Regular";
fontMaster = (
{
ascender = 800;
capHeight = 700;
customParameters = (
{
name = TypoAscender;
value = 800;
},
{
name = TypoDescender;
value = "-200";
}
);
descender = "-200";
id = "2B2FE4A8-39A2-493B-A970-B9343EE81639";
userData = {
GSCornerRadius = 15;
};
weightValue = 400;
widthValue = 5;
xHeight = 500;
}
);
glyphs = (
{
glyphname = A;
layers = (
{
layerId = "2B2FE4A8-39A2-493B-A970-B9343EE81639";
name = Regular;
paths = (
{
closed = 1;
nodes = (
"595 306 LINE",
"505 361 LINE",
"505 491 LINE",
"416 491 LINE",
"416 422 LINE",
"298 500 LINE",
"5 306 LINE",
"58 273 LINE",
"58 0 LINE",
"170 0 LINE",
"170 133 LINE SMOOTH",
"170 162 OFFCURVE",
"196 186 OFFCURVE",
"226 186 CURVE SMOOTH",
"255 186 OFFCURVE",
"281 162 OFFCURVE",
"281 133 CURVE SMOOTH",
"281 0 LINE",
"550 0 LINE",
"550 273 LINE"
);
}
);
width = 600;
}
);
unicode = 0041;
},
{
glyphname = B;
layers = (
{
layerId = "2B2FE4A8-39A2-493B-A970-B9343EE81639";
name = Regular;
paths = (
{
closed = 1;
nodes = (
"116 443 LINE SMOOTH",
"90 443 OFFCURVE",
"69 421 OFFCURVE",
"69 395 CURVE SMOOTH",
"69 293 LINE",
"0 244 LINE",
"69 194 LINE",
"69 105 LINE SMOOTH",
"69 79 OFFCURVE",
"90 57 OFFCURVE",
"116 57 CURVE SMOOTH",
"552 57 LINE SMOOTH",
"578 57 OFFCURVE",
"600 79 OFFCURVE",
"600 105 CURVE SMOOTH",
"600 395 LINE SMOOTH",
"600 421 OFFCURVE",
"578 443 OFFCURVE",
"552 443 CURVE SMOOTH"
);
}
);
width = 600;
}
);
unicode = 0042;
},
{
glyphname = C;
layers = (
{
layerId = "2B2FE4A8-39A2-493B-A970-B9343EE81639";
name = Regular;
paths = (
{
closed = 1;
nodes = (
"179 370 LINE SMOOTH",
"179 364 OFFCURVE",
"176 360 OFFCURVE",
"171 360 CURVE SMOOTH",
"49 360 LINE SMOOTH",
"44 360 OFFCURVE",
"40 364 OFFCURVE",
"40 370 CURVE SMOOTH",
"40 491 LINE SMOOTH",
"40 496 OFFCURVE",
"44 500 OFFCURVE",
"49 500 CURVE SMOOTH",
"171 500 LINE SMOOTH",
"176 500 OFFCURVE",
"179 496 OFFCURVE",
"179 491 CURVE SMOOTH"
);
},
{
closed = 1;
nodes = (
"560 370 LINE SMOOTH",
"560 364 OFFCURVE",
"556 360 OFFCURVE",
"551 360 CURVE SMOOTH",
"229 360 LINE SMOOTH",
"224 360 OFFCURVE",
"220 364 OFFCURVE",
"220 370 CURVE SMOOTH",
"220 491 LINE SMOOTH",
"220 496 OFFCURVE",
"224 500 OFFCURVE",
"229 500 CURVE SMOOTH",
"551 500 LINE SMOOTH",
"556 500 OFFCURVE",
"560 496 OFFCURVE",
"560 491 CURVE SMOOTH"
);
},
{
closed = 1;
nodes = (
"179 189 LINE SMOOTH",
"179 184 OFFCURVE",
"176 180 OFFCURVE",
"171 180 CURVE SMOOTH",
"49 180 LINE SMOOTH",
"44 180 OFFCURVE",
"40 184 OFFCURVE",
"40 189 CURVE SMOOTH",
"40 311 LINE SMOOTH",
"40 316 OFFCURVE",
"44 320 OFFCURVE",
"49 320 CURVE SMOOTH",
"171 320 LINE SMOOTH",
"176 320 OFFCURVE",
"179 316 OFFCURVE",
"179 311 CURVE SMOOTH"
);
},
{
closed = 1;
nodes = (
"560 189 LINE SMOOTH",
"560 184 OFFCURVE",
"556 180 OFFCURVE",
"551 180 CURVE SMOOTH",
"229 180 LINE SMOOTH",
"224 180 OFFCURVE",
"220 184 OFFCURVE",
"220 189 CURVE SMOOTH",
"220 311 LINE SMOOTH",
"220 316 OFFCURVE",
"224 320 OFFCURVE",
"229 320 CURVE SMOOTH",
"551 320 LINE SMOOTH",
"556 320 OFFCURVE",
"560 316 OFFCURVE",
"560 311 CURVE SMOOTH"
);
},
{
closed = 1;
nodes = (
"179 9 LINE SMOOTH",
"179 4 OFFCURVE",
"176 0 OFFCURVE",
"171 0 CURVE SMOOTH",
"49 0 LINE SMOOTH",
"44 0 OFFCURVE",
"40 4 OFFCURVE",
"40 9 CURVE SMOOTH",
"40 131 LINE SMOOTH",
"40 136 OFFCURVE",
"44 140 OFFCURVE",
"49 140 CURVE SMOOTH",
"171 140 LINE SMOOTH",
"176 140 OFFCURVE",
"179 136 OFFCURVE",
"179 131 CURVE SMOOTH"
);
},
{
closed = 1;
nodes = (
"560 9 LINE SMOOTH",
"560 4 OFFCURVE",
"556 0 OFFCURVE",
"551 0 CURVE SMOOTH",
"229 0 LINE SMOOTH",
"224 0 OFFCURVE",
"220 4 OFFCURVE",
"220 9 CURVE SMOOTH",
"220 131 LINE SMOOTH",
"220 136 OFFCURVE",
"224 140 OFFCURVE",
"229 140 CURVE SMOOTH",
"551 140 LINE SMOOTH",
"556 140 OFFCURVE",
"560 136 OFFCURVE",
"560 131 CURVE SMOOTH"
);
}
);
width = 600;
}
);
unicode = 0043;
},
{
glyphname = D;
lastChange = "2013-01-18 12:21:35 -0300";
layers = (
{
layerId = "2B2FE4A8-39A2-493B-A970-B9343EE81639";
name = Regular;
paths = (
{
closed = 1;
nodes = (
"271 313 OFFCURVE",
"271 299 OFFCURVE",
"263 291 CURVE",
"263 291 LINE",
"255 283 OFFCURVE",
"241 283 OFFCURVE",
"233 292 CURVE SMOOTH",
"175 350 LINE SMOOTH",
"166 358 OFFCURVE",
"166 372 OFFCURVE",
"174 380 CURVE",
"174 380 LINE",
"182 388 OFFCURVE",
"196 388 OFFCURVE",
"204 380 CURVE SMOOTH",
"263 321 LINE SMOOTH"
);
},
{
closed = 1;
nodes = (
"185 427 OFFCURVE",
"215 426 OFFCURVE",
"234 408 CURVE SMOOTH",
"291 351 LINE SMOOTH",
"298 343 OFFCURVE",
"301 330 OFFCURVE",
"297 326 CURVE",
"390 418 LINE",
"295 500 OFFCURVE",
"199 532 OFFCURVE",
"121 463 CURVE",
"166 417 LINE"
);
},
{
closed = 1;
nodes = (
"163 133 OFFCURVE",
"183 112 OFFCURVE",
"195 100 CURVE SMOOTH",
"314 -19 OFFCURVE",
"435 -24 OFFCURVE",
"506 48 CURVE SMOOTH",
"578 119 OFFCURVE",
"574 238 OFFCURVE",
"454 358 CURVE SMOOTH",
"442 370 OFFCURVE",
"421 391 OFFCURVE",
"421 391 CURVE SMOOTH",
"164 133 LINE SMOOTH"
);
},
{
closed = 1;
nodes = (
"225 253 OFFCURVE",
"210 256 OFFCURVE",
"203 263 CURVE SMOOTH",
"146 320 LINE SMOOTH",
"128 338 OFFCURVE",
"126 368 OFFCURVE",
"137 388 CURVE",
"91 433 LINE",
"22 355 OFFCURVE",
"54 259 OFFCURVE",
"135 164 CURVE",
"228 257 LINE"
);
}
);
width = 600;
}
);
unicode = 0044;
},
{
glyphname = E;
lastChange = "2013-05-24 10:42:23 -0300";
layers = (
{
layerId = "2B2FE4A8-39A2-493B-A970-B9343EE81639";
name = Regular;
paths = (
{
closed = 1;
nodes = (
"222 291 LINE",
"222 346 LINE SMOOTH",
"222 392 OFFCURVE",
"252 429 OFFCURVE",
"299 429 CURVE SMOOTH",
"346 429 OFFCURVE",
"376 410 OFFCURVE",
"376 364 CURVE",
"376 367 LINE",
"455 367 LINE",
"453 451 OFFCURVE",
"386 500 OFFCURVE",
"299 500 CURVE SMOOTH",
"211 500 OFFCURVE",
"144 431 OFFCURVE",
"144 346 CURVE SMOOTH",
"144 291 LINE",
"142 291 LINE SMOOTH",
"123 291 OFFCURVE",
"106 271 OFFCURVE",
"106 252 CURVE SMOOTH",
"106 22 LINE SMOOTH",
"106 4 OFFCURVE",
"123 0 OFFCURVE",
"142 0 CURVE SMOOTH",
"460 0 LINE SMOOTH",
"478 0 OFFCURVE",
"494 4 OFFCURVE",
"494 22 CURVE SMOOTH",
"494 252 LINE SMOOTH",
"494 271 OFFCURVE",
"478 291 OFFCURVE",
"460 291 CURVE SMOOTH"
);
},
{
closed = 1;
nodes = (
"455 364 LINE",
"455 367 LINE"
);
},
{
closed = 1;
nodes = (
"280 200 LINE SMOOTH",
"280 211 OFFCURVE",
"288 219 OFFCURVE",
"299 219 CURVE SMOOTH",
"311 219 OFFCURVE",
"319 211 OFFCURVE",
"319 200 CURVE SMOOTH",
"319 140 LINE",
"338 133 OFFCURVE",
"334 123 OFFCURVE",
"334 112 CURVE SMOOTH",
"334 93 OFFCURVE",
"320 78 OFFCURVE",
"301 78 CURVE SMOOTH",
"281 78 OFFCURVE",
"265 93 OFFCURVE",
"265 112 CURVE SMOOTH",
"265 123 OFFCURVE",
"280 133 OFFCURVE",
"280 140 CURVE SMOOTH"
);
}
);
width = 600;
}
);
unicode = 0045;
},
{
glyphname = F;
layers = (
{
layerId = "2B2FE4A8-39A2-493B-A970-B9343EE81639";
name = Regular;
paths = (
{
closed = 1;
nodes = (
"455 291 LINE",
"455 346 LINE SMOOTH",
"455 431 OFFCURVE",
"388 500 OFFCURVE",
"300 500 CURVE SMOOTH",
"212 500 OFFCURVE",
"144 431 OFFCURVE",
"144 346 CURVE SMOOTH",
"144 291 LINE",
"140 291 LINE SMOOTH",
"122 291 OFFCURVE",
"106 270 OFFCURVE",
"106 252 CURVE SMOOTH",
"106 21 LINE SMOOTH",
"106 3 OFFCURVE",
"122 0 OFFCURVE",
"140 0 CURVE SMOOTH",
"458 0 LINE SMOOTH",
"478 0 OFFCURVE",
"495 3 OFFCURVE",
"495 21 CURVE SMOOTH",
"495 252 LINE SMOOTH",
"495 270 OFFCURVE",
"478 291 OFFCURVE",
"458 291 CURVE SMOOTH"
);
},
{
closed = 1;
nodes = (
"376 291 LINE",
"222 291 LINE",
"222 346 LINE SMOOTH",
"222 392 OFFCURVE",
"252 428 OFFCURVE",
"299 428 CURVE SMOOTH",
"346 428 OFFCURVE",
"376 392 OFFCURVE",
"376 346 CURVE SMOOTH"
);
},
{
closed = 1;
nodes = (
"281 199 LINE SMOOTH",
"281 211 OFFCURVE",
"288 218 OFFCURVE",
"300 218 CURVE SMOOTH",
"311 218 OFFCURVE",
"319 211 OFFCURVE",
"319 199 CURVE SMOOTH",
"319 139 LINE",
"338 133 OFFCURVE",
"333 123 OFFCURVE",
"333 111 CURVE SMOOTH",
"333 92 OFFCURVE",
"319 78 OFFCURVE",
"300 78 CURVE SMOOTH",
"279 78 OFFCURVE",
"265 92 OFFCURVE",
"265 111 CURVE SMOOTH",
"265 123 OFFCURVE",
"260 133 OFFCURVE",
"281 139 CURVE"
);
}
);
width = 600;
}
);
unicode = 0046;
},
{
glyphname = G;
lastChange = "2013-01-14 17:28:04 -0300";
layers = (
{
layerId = "2B2FE4A8-39A2-493B-A970-B9343EE81639";
name = Regular;
paths = (
{
closed = 1;
nodes = (
"150 38 LINE",
"150 462 LINE",
"450 250 LINE"
);
}
);
width = 600;
}
);
unicode = 0047;
},
{
glyphname = H;
layers = (
{
layerId = "2B2FE4A8-39A2-493B-A970-B9343EE81639";
name = Regular;
paths = (
{
closed = 1;
nodes = (
"281 52 LINE",
"95 373 LINE",
"94 374 LINE",
"83 398 OFFCURVE",
"78 451 OFFCURVE",
"135 483 CURVE SMOOTH",
"192 516 OFFCURVE",
"236 485 OFFCURVE",
"250 464 CURVE",
"251 463 LINE",
"406 196 LINE",
"408 192 OFFCURVE",
"423 165 OFFCURVE",
"416 137 CURVE SMOOTH",
"412 123 OFFCURVE",
"403 110 OFFCURVE",
"388 100 CURVE",
"345 76 OFFCURVE",
"308 110 OFFCURVE",
"295 132 CURVE SMOOTH",
"187 316 LINE",
"184 323 OFFCURVE",
"186 335 OFFCURVE",
"192 338 CURVE SMOOTH",
"200 342 OFFCURVE",
"210 339 OFFCURVE",
"215 333 CURVE",
"321 147 LINE SMOOTH",
"324 142 OFFCURVE",
"345 112 OFFCURVE",
"372 127 CURVE SMOOTH",
"381 132 OFFCURVE",
"385 137 OFFCURVE",
"387 145 CURVE SMOOTH",
"390 158 OFFCURVE",
"383 175 OFFCURVE",
"381 179 CURVE",
"225 448 LINE",
"221 452 OFFCURVE",
"196 483 OFFCURVE",
"150 456 CURVE SMOOTH",
"107 430 OFFCURVE",
"119 393 OFFCURVE",
"122 388 CURVE SMOOTH",
"306 67 LINE",
"311 61 OFFCURVE",
"352 4 OFFCURVE",
"425 46 CURVE SMOOTH",
"499 88 OFFCURVE",
"467 151 OFFCURVE",
"463 158 CURVE SMOOTH",
"327 396 LINE",
"322 403 OFFCURVE",
"325 412 OFFCURVE",
"333 416 CURVE",
"340 421 OFFCURVE",
"349 418 OFFCURVE",
"353 411 CURVE SMOOTH",
"490 174 LINE",
"508 140 OFFCURVE",
"522 66 OFFCURVE",
"441 20 CURVE SMOOTH",
"360 -27 OFFCURVE",
"300 20 OFFCURVE",
"281 51 CURVE"
);
}
);
width = 600;
}
);
unicode = 0048;
},
{
glyphname = I;
layers = (
{
layerId = "2B2FE4A8-39A2-493B-A970-B9343EE81639";
name = Regular;
paths = (
{
closed = 1;
nodes = (
"407 295 LINE",
"408 305 LINE",
"408 334 OFFCURVE",
"384 358 OFFCURVE",
"355 358 CURVE SMOOTH",
"326 358 OFFCURVE",
"304 334 OFFCURVE",
"304 305 CURVE SMOOTH",
"304 294 OFFCURVE",
"307 284 OFFCURVE",
"313 276 CURVE",
"249 190 LINE",
"244 192 OFFCURVE",
"238 193 OFFCURVE",
"232 193 CURVE SMOOTH",
"225 193 OFFCURVE",
"219 192 OFFCURVE",
"213 190 CURVE",
"95 330 LINE",
"100 339 OFFCURVE",
"103 348 OFFCURVE",
"103 358 CURVE SMOOTH",
"103 385 OFFCURVE",
"80 409 OFFCURVE",
"52 409 CURVE SMOOTH",
"24 409 OFFCURVE",
"0 385 OFFCURVE",
"0 358 CURVE SMOOTH",
"0 329 OFFCURVE",
"24 305 OFFCURVE",
"52 305 CURVE SMOOTH",
"59 305 OFFCURVE",
"66 306 OFFCURVE",
"72 309 CURVE",
"188 170 LINE",
"183 162 OFFCURVE",
"180 152 OFFCURVE",
"180 142 CURVE SMOOTH",
"180 114 OFFCURVE",
"203 90 OFFCURVE",
"232 90 CURVE SMOOTH",
"259 90 OFFCURVE",
"283 114 OFFCURVE",
"283 142 CURVE SMOOTH",
"283 153 OFFCURVE",
"280 162 OFFCURVE",
"274 171 CURVE",
"338 256 LINE",
"343 254 OFFCURVE",
"349 253 OFFCURVE",
"355 253 CURVE SMOOTH",
"370 253 OFFCURVE",
"383 259 OFFCURVE",
"392 268 CURVE",
"498 210 LINE",
"497 202 LINE",
"497 173 OFFCURVE",
"520 150 OFFCURVE",
"548 150 CURVE SMOOTH",
"576 150 OFFCURVE",
"600 173 OFFCURVE",
"600 202 CURVE SMOOTH",
"600 230 OFFCURVE",
"576 253 OFFCURVE",
"548 253 CURVE SMOOTH",
"534 253 OFFCURVE",
"522 248 OFFCURVE",
"513 239 CURVE"
);
}
);
width = 600;
}
);
unicode = 0049;
},
{
glyphname = J;
layers = (
{
layerId = "2B2FE4A8-39A2-493B-A970-B9343EE81639";
name = Regular;
paths = (
{
closed = 1;
nodes = (
"244 204 LINE",
"282 187 LINE",
"282 166 LINE SMOOTH",
"282 161 OFFCURVE",
"292 154 OFFCURVE",
"292 151 CURVE SMOOTH",
"292 147 OFFCURVE",
"282 142 OFFCURVE",
"282 137 CURVE SMOOTH",
"282 123 LINE SMOOTH",
"282 118 OFFCURVE",
"297 109 OFFCURVE",
"297 106 CURVE SMOOTH",
"297 100 OFFCURVE",
"282 92 OFFCURVE",
"282 87 CURVE SMOOTH",
"282 71 LINE SMOOTH",
"282 66 OFFCURVE",
"303 52 OFFCURVE",
"303 45 CURVE SMOOTH",
"303 42 OFFCURVE",
"296 35 OFFCURVE",
"290 31 CURVE",
"292 26 OFFCURVE",
"306 0 OFFCURVE",
"322 0 CURVE SMOOTH",
"337 0 OFFCURVE",
"354 31 OFFCURVE",
"354 31 CURVE",
"354 251 LINE SMOOTH",
"354 261 OFFCURVE",
"365 270 OFFCURVE",
"372 277 CURVE",
"405 298 OFFCURVE",
"422 336 OFFCURVE",
"422 379 CURVE SMOOTH",
"422 446 OFFCURVE",
"367 500 OFFCURVE",
"299 500 CURVE SMOOTH",
"232 500 OFFCURVE",
"178 446 OFFCURVE",
"178 379 CURVE SMOOTH",
"178 339 OFFCURVE",
"188 304 OFFCURVE",
"226 282 CURVE",
"226 282 OFFCURVE",
"244 265 OFFCURVE",
"244 249 CURVE SMOOTH"
);
},
{
closed = 1;
nodes = (
"335 465 OFFCURVE",
"365 443 OFFCURVE",
"365 431 CURVE SMOOTH",
"365 419 OFFCURVE",
"335 408 OFFCURVE",
"299 408 CURVE SMOOTH",
"263 408 OFFCURVE",
"233 419 OFFCURVE",
"233 431 CURVE SMOOTH",
"233 443 OFFCURVE",
"263 465 OFFCURVE",
"299 465 CURVE SMOOTH"
);
}
);
width = 600;
}
);
unicode = 004A;
},
{
glyphname = K;
layers = (
{
layerId = "2B2FE4A8-39A2-493B-A970-B9343EE81639";
name = Regular;
paths = (
{
closed = 1;
nodes = (
"364 417 LINE",
"387 421 OFFCURVE",
"410 441 OFFCURVE",
"415 449 CURVE",
"420 459 OFFCURVE",
"426 472 OFFCURVE",
"426 474 CURVE SMOOTH",
"426 487 OFFCURVE",
"362 499 OFFCURVE",
"301 499 CURVE",
"301 498 LINE",
"239 496 OFFCURVE",
"176 487 OFFCURVE",
"176 473 CURVE SMOOTH",
"176 471 OFFCURVE",
"180 458 OFFCURVE",
"185 449 CURVE",
"190 441 OFFCURVE",
"213 421 OFFCURVE",
"236 417 CURVE",
"219 261 LINE",
"220 261 LINE",
"196 256 OFFCURVE",
"174 229 OFFCURVE",
"171 217 CURVE",
"167 205 OFFCURVE",
"165 192 OFFCURVE",
"165 191 CURVE SMOOTH",
"165 176 OFFCURVE",
"219 165 OFFCURVE",
"301 165 CURVE SMOOTH",
"381 165 OFFCURVE",
"435 176 OFFCURVE",
"435 191 CURVE SMOOTH",
"435 192 OFFCURVE",
"434 205 OFFCURVE",
"430 217 CURVE SMOOTH",
"426 229 OFFCURVE",
"404 256 OFFCURVE",
"381 261 CURVE"
);
},
{
closed = 1;
nodes = (
"299 153 LINE SMOOTH",
"291 153 OFFCURVE",
"283 151 OFFCURVE",
"273 151 CURVE",
"301 0 LINE",
"328 151 LINE",
"318 151 OFFCURVE",
"309 153 OFFCURVE",
"301 153 CURVE SMOOTH"
);
}
);
width = 600;
}
);
unicode = 004B;
},
{
glyphname = L;
layers = (
{
layerId = "2B2FE4A8-39A2-493B-A970-B9343EE81639";
name = Regular;
paths = (
{
closed = 1;
nodes = (
"448 234 LINE",
"449 234 LINE",
"465 277 OFFCURVE",
"473 293 OFFCURVE",
"473 326 CURVE SMOOTH",
"473 421 OFFCURVE",
"396 500 OFFCURVE",
"300 500 CURVE SMOOTH",
"204 500 OFFCURVE",
"127 421 OFFCURVE",
"127 324 CURVE SMOOTH",
"127 291 OFFCURVE",
"135 277 OFFCURVE",
"151 234 CURVE",
"152 234 LINE",
"156 229 OFFCURVE",
"159 224 OFFCURVE",
"163 220 CURVE",
"279 12 LINE",
"279 12 OFFCURVE",
"288 0 OFFCURVE",
"300 0 CURVE SMOOTH",
"312 0 OFFCURVE",
"321 12 OFFCURVE",
"321 12 CURVE",
"437 221 LINE"
);
},
{
closed = 1;
nodes = (
"337 393 OFFCURVE",
"367 363 OFFCURVE",
"367 327 CURVE SMOOTH",
"367 290 OFFCURVE",
"337 260 OFFCURVE",
"300 260 CURVE SMOOTH",
"263 260 OFFCURVE",
"233 290 OFFCURVE",
"233 327 CURVE SMOOTH",
"233 363 OFFCURVE",
"263 393 OFFCURVE",
"300 393 CURVE SMOOTH"
);
}
);
width = 600;
}
);
unicode = 004C;
},
{
glyphname = M;
layers = (
{
layerId = "2B2FE4A8-39A2-493B-A970-B9343EE81639";
name = Regular;
paths = (
{
closed = 1;
nodes = (
"229 177 LINE",
"229 300 LINE",
"426 300 LINE",
"426 176 LINE",
"450 176 LINE",
"457 180 OFFCURVE",
"464 185 OFFCURVE",
"470 190 CURVE",
"482 185 OFFCURVE",
"495 182 OFFCURVE",
"508 182 CURVE SMOOTH",
"559 182 OFFCURVE",
"600 221 OFFCURVE",
"600 270 CURVE SMOOTH",
"600 305 OFFCURVE",
"579 335 OFFCURVE",
"548 349 CURVE",
"549 353 OFFCURVE",
"549 356 OFFCURVE",
"549 360 CURVE SMOOTH",
"549 396 OFFCURVE",
"520 425 OFFCURVE",
"483 425 CURVE SMOOTH",
"465 425 OFFCURVE",
"448 417 OFFCURVE",
"436 405 CURVE",
"417 424 OFFCURVE",
"389 436 OFFCURVE",
"359 436 CURVE SMOOTH",
"355 436 OFFCURVE",
"351 436 OFFCURVE",
"347 435 CURVE",
"333 464 OFFCURVE",
"305 483 OFFCURVE",
"272 483 CURVE SMOOTH",
"230 483 OFFCURVE",
"195 450 OFFCURVE",
"189 408 CURVE",
"184 409 OFFCURVE",
"179 409 OFFCURVE",
"173 409 CURVE SMOOTH",
"138 409 OFFCURVE",
"108 384 OFFCURVE",
"97 349 CURVE",
"89 352 OFFCURVE",
"81 354 OFFCURVE",
"72 354 CURVE SMOOTH",
"32 354 OFFCURVE",
"0 323 OFFCURVE",
"0 286 CURVE SMOOTH",
"0 248 OFFCURVE",
"32 217 OFFCURVE",
"72 217 CURVE SMOOTH",
"87 217 OFFCURVE",
"102 222 OFFCURVE",
"114 230 CURVE",
"124 206 OFFCURVE",
"160 187 OFFCURVE",
"208 177 CURVE"
);
},
{
closed = 1;
nodes = (
"231 137 LINE",
"325 15 LINE",
"325 16 LINE",
"326 15 LINE",
"420 137 LINE",
"377 137 LINE",
"377 250 LINE",
"276 250 LINE",
"276 137 LINE"
);
}
);
width = 600;
}
);
unicode = 004D;
},
{
glyphname = N;
layers = (
{
layerId = "2B2FE4A8-39A2-493B-A970-B9343EE81639";
name = Regular;
paths = (
{
closed = 1;
nodes = (
"306 319 LINE",
"325 344 LINE",
"325 342 LINE",
"326 344 LINE",
"345 318 LINE",
"357 303 LINE",
"443 191 LINE",
"452 195 OFFCURVE",
"463 200 OFFCURVE",
"470 207 CURVE",
"482 202 OFFCURVE",
"495 198 OFFCURVE",
"509 198 CURVE SMOOTH",
"559 198 OFFCURVE",
"600 239 OFFCURVE",
"600 287 CURVE SMOOTH",
"600 321 OFFCURVE",
"579 352 OFFCURVE",
"548 366 CURVE",
"549 370 OFFCURVE",
"549 373 OFFCURVE",
"549 377 CURVE SMOOTH",
"549 412 OFFCURVE",
"520 442 OFFCURVE",
"483 442 CURVE SMOOTH",
"464 442 OFFCURVE",
"448 435 OFFCURVE",
"436 422 CURVE",
"417 440 OFFCURVE",
"390 452 OFFCURVE",
"359 452 CURVE SMOOTH",
"347 452 LINE",
"333 481 OFFCURVE",
"305 500 OFFCURVE",
"273 500 CURVE SMOOTH",
"230 500 OFFCURVE",
"195 468 OFFCURVE",
"189 425 CURVE",
"184 425 OFFCURVE",
"178 426 OFFCURVE",
"174 426 CURVE SMOOTH",
"138 426 OFFCURVE",
"107 402 OFFCURVE",
"97 366 CURVE",
"90 370 OFFCURVE",
"80 371 OFFCURVE",
"72 371 CURVE SMOOTH",
"32 371 OFFCURVE",
"0 340 OFFCURVE",
"0 302 CURVE SMOOTH",
"0 264 OFFCURVE",
"32 234 OFFCURVE",
"72 234 CURVE SMOOTH",
"87 234 OFFCURVE",
"102 239 OFFCURVE",
"113 247 CURVE",
"124 223 OFFCURVE",
"161 203 OFFCURVE",
"210 194 CURVE"
);
},
{
closed = 1;
nodes = (
"420 124 LINE",
"326 247 LINE",
"326 246 LINE",
"325 247 LINE",
"231 124 LINE",
"283 124 LINE",
"283 122 LINE",
"283 0 LINE",
"369 0 LINE",
"369 122 LINE",
"369 124 LINE"
);
}
);
width = 600;
}
);
unicode = 004E;
},
{
glyphname = O;
layers = (
{
layerId = "2B2FE4A8-39A2-493B-A970-B9343EE81639";
name = Regular;
paths = (
{
closed = 1;
nodes = (
"150 493 LINE SMOOTH",
"72 493 OFFCURVE",
"0 428 OFFCURVE",
"0 350 CURVE SMOOTH",
"0 243 LINE SMOOTH",
"0 177 OFFCURVE",
"65 122 OFFCURVE",
"107 107 CURVE",
"107 6 LINE",
"250 107 LINE",
"452 107 LINE SMOOTH",
"530 107 OFFCURVE",
"600 165 OFFCURVE",
"600 243 CURVE SMOOTH",
"600 350 LINE SMOOTH",
"600 428 OFFCURVE",
"530 493 OFFCURVE",
"452 493 CURVE SMOOTH"
);
}
);
width = 600;
}
);
unicode = 004F;
},
{
glyphname = P;
lastChange = "2012-12-11 12:52:48 -0300";
layers = (
{
layerId = "2B2FE4A8-39A2-493B-A970-B9343EE81639";
name = Regular;
paths = (
{
closed = 1;
nodes = (
"326 417 LINE",
"254 500 LINE",
"95 500 LINE",
"28 417 LINE",
"28 0 LINE",
"572 0 LINE",
"572 417 LINE"
);
}
);
width = 600;
}
);
unicode = 0050;
},
{
glyphname = Q;
layers = (
{
layerId = "2B2FE4A8-39A2-493B-A970-B9343EE81639";
name = Regular;
paths = (
{
closed = 1;
nodes = (
"550 375 OFFCURVE",
"458 479 OFFCURVE",
"338 497 CURVE SMOOTH",
"326 499 OFFCURVE",
"313 500 OFFCURVE",
"301 500 CURVE SMOOTH",
"299 500 LINE SMOOTH",
"282 500 OFFCURVE",
"265 498 OFFCURVE",
"250 495 CURVE SMOOTH",
"136 472 OFFCURVE",
"50 371 OFFCURVE",
"50 250 CURVE SMOOTH",
"50 125 OFFCURVE",
"142 21 OFFCURVE",
"262 3 CURVE SMOOTH",
"274 1 OFFCURVE",
"286 0 OFFCURVE",
"299 0 CURVE SMOOTH",
"301 0 LINE SMOOTH",
"312 0 OFFCURVE",
"323 1 OFFCURVE",
"334 2 CURVE",
"456 19 OFFCURVE",
"550 123 OFFCURVE",
"550 250 CURVE SMOOTH"
);
},
{
closed = 1;
nodes = (
"271 346 LINE",
"290 327 LINE",
"290 268 LINE",
"233 268 LINE",
"213 288 LINE",
"98 288 LINE",
"114 374 OFFCURVE",
"184 441 OFFCURVE",
"271 453 CURVE"
);
},
{
closed = 1;
nodes = (
"386 288 LINE",
"367 268 LINE",
"310 268 LINE",
"310 327 LINE",
"328 346 LINE",
"328 453 LINE",
"416 441 OFFCURVE",
"486 374 OFFCURVE",
"502 288 CURVE"
);
},
{
closed = 1;
nodes = (
"213 230 LINE",
"233 250 LINE",
"290 250 LINE",
"290 192 LINE",
"271 173 LINE",
"271 47 LINE",
"178 60 OFFCURVE",
"105 136 OFFCURVE",
"96 230 CURVE"
);
},
{
closed = 1;
nodes = (
"328 173 LINE",
"310 192 LINE",
"310 250 LINE",
"367 250 LINE",
"386 230 LINE",
"504 230 LINE",
"500 182 OFFCURVE",
"478 139 OFFCURVE",
"446 106 CURVE SMOOTH",
"445 105 LINE SMOOTH",
"414 74 OFFCURVE",
"373 53 OFFCURVE",
"328 47 CURVE"
);
}
);
width = 600;
}
);
unicode = 0051;
},
{
glyphname = R;
layers = (
{
layerId = "2B2FE4A8-39A2-493B-A970-B9343EE81639";
name = Regular;
paths = (
{
closed = 1;
nodes = (
"499 500 LINE",
"203 500 LINE",
"90 386 LINE",
"90 0 LINE",
"499 0 LINE"
);
},
{
closed = 1;
nodes = (
"227 476 LINE",
"227 363 LINE",
"112 363 LINE"
);
}
);
width = 600;
}
);
unicode = 0052;
},
{
glyphname = S;
layers = (
{
layerId = "2B2FE4A8-39A2-493B-A970-B9343EE81639";
name = Regular;
paths = (
{
closed = 1;
nodes = (
"106 307 LINE SMOOTH",
"75 307 OFFCURVE",
"50 280 OFFCURVE",
"50 249 CURVE SMOOTH",
"50 219 OFFCURVE",
"75 192 OFFCURVE",
"106 192 CURVE SMOOTH",
"494 192 LINE SMOOTH",
"525 192 OFFCURVE",
"550 219 OFFCURVE",
"550 249 CURVE SMOOTH",
"550 280 OFFCURVE",
"525 307 OFFCURVE",
"494 307 CURVE SMOOTH"
);
}
);
width = 600;
}
);
unicode = 0053;
},
{
glyphname = T;
lastChange = "2013-01-22 15:41:26 -0300";
layers = (
{
layerId = "2B2FE4A8-39A2-493B-A970-B9343EE81639";
name = Regular;
paths = (
{
closed = 1;
nodes = (
"162 0 OFFCURVE",
"50 112 OFFCURVE",
"50 250 CURVE SMOOTH",
"50 388 OFFCURVE",
"162 500 OFFCURVE",
"300 500 CURVE SMOOTH",
"438 500 OFFCURVE",
"550 388 OFFCURVE",
"550 250 CURVE SMOOTH",
"550 112 OFFCURVE",
"438 0 OFFCURVE",
"300 0 CURVE SMOOTH"
);
},
{
closed = 1;
nodes = (
"186 456 OFFCURVE",
"94 364 OFFCURVE",
"94 250 CURVE SMOOTH",
"94 136 OFFCURVE",
"186 44 OFFCURVE",
"300 44 CURVE SMOOTH",
"414 44 OFFCURVE",
"506 136 OFFCURVE",
"506 250 CURVE SMOOTH",
"506 364 OFFCURVE",
"414 456 OFFCURVE",
"300 456 CURVE SMOOTH"
);
},
{
closed = 1;
nodes = (
"325 315 OFFCURVE",
"335 319 OFFCURVE",
"344 327 CURVE SMOOTH",
"352 336 OFFCURVE",
"356 346 OFFCURVE",
"356 357 CURVE SMOOTH",
"356 369 OFFCURVE",
"352 379 OFFCURVE",
"344 388 CURVE SMOOTH",
"335 396 OFFCURVE",
"325 400 OFFCURVE",
"314 400 CURVE SMOOTH",
"302 400 OFFCURVE",
"292 396 OFFCURVE",
"283 388 CURVE SMOOTH",
"275 379 OFFCURVE",
"271 369 OFFCURVE",
"271 357 CURVE SMOOTH",
"271 346 OFFCURVE",
"275 336 OFFCURVE",
"283 327 CURVE SMOOTH",
"292 319 OFFCURVE",
"302 315 OFFCURVE",
"314 315 CURVE SMOOTH"
);
},
{
closed = 1;
nodes = (
"319 162 OFFCURVE",
"315 156 OFFCURVE",
"310 150 CURVE SMOOTH",
"308 149 OFFCURVE",
"308 148 OFFCURVE",
"307 147 CURVE",
"307 149 OFFCURVE",
"308 152 OFFCURVE",
"309 156 CURVE SMOOTH",
"309 159 OFFCURVE",
"311 165 OFFCURVE",
"313 174 CURVE SMOOTH",
"345 291 LINE",
"316 286 LINE SMOOTH",
"311 285 OFFCURVE",
"302 283 OFFCURVE",
"289 282 CURVE SMOOTH",
"276 280 OFFCURVE",
"266 279 OFFCURVE",
"260 279 CURVE SMOOTH",
"251 278 LINE",
"251 252 LINE",
"260 252 LINE SMOOTH",
"267 251 OFFCURVE",
"271 251 OFFCURVE",
"273 250 CURVE",
"273 250 OFFCURVE",
"273 250 OFFCURVE",
"273 249 CURVE SMOOTH",
"273 249 OFFCURVE",
"273 249 OFFCURVE",
"273 248 CURVE SMOOTH",
"273 248 OFFCURVE",
"273 247 OFFCURVE",
"272 246 CURVE SMOOTH",
"250 165 LINE SMOOTH",
"248 158 OFFCURVE",
"247 153 OFFCURVE",
"246 150 CURVE SMOOTH",
"245 142 OFFCURVE",
"244 137 OFFCURVE",
"244 134 CURVE SMOOTH",
"244 120 OFFCURVE",
"250 112 OFFCURVE",
"255 108 CURVE SMOOTH",
"262 103 OFFCURVE",
"270 100 OFFCURVE",
"278 100 CURVE SMOOTH",
"292 100 OFFCURVE",
"306 106 OFFCURVE",
"318 117 CURVE SMOOTH",
"324 124 OFFCURVE",
"334 136 OFFCURVE",
"346 154 CURVE SMOOTH",
"351 161 LINE",
"328 176 LINE",
"323 169 LINE SMOOTH"
);
}
);
width = 600;
}
);
unicode = 0054;
},
{
glyphname = U;
lastChange = "2013-01-08 16:42:46 -0300";
layers = (
{
layerId = "2B2FE4A8-39A2-493B-A970-B9343EE81639";
name = Regular;
paths = (
{
closed = 1;
nodes = (
"494 458 LINE",
"494 409 LINE SMOOTH",
"494 400 OFFCURVE",
"486 393 OFFCURVE",
"477 393 CURVE SMOOTH",
"425 393 LINE SMOOTH",
"416 393 OFFCURVE",
"409 400 OFFCURVE",
"409 409 CURVE SMOOTH",
"409 458 LINE",
"191 458 LINE",
"191 409 LINE SMOOTH",
"191 400 OFFCURVE",
"184 393 OFFCURVE",
"175 393 CURVE SMOOTH",
"123 393 LINE SMOOTH",
"114 393 OFFCURVE",
"106 400 OFFCURVE",
"106 409 CURVE SMOOTH",
"106 458 LINE",
"84 458 LINE SMOOTH",
"66 458 OFFCURVE",
"52 443 OFFCURVE",
"52 425 CURVE SMOOTH",
"52 32 LINE SMOOTH",
"52 14 OFFCURVE",
"66 0 OFFCURVE",
"84 0 CURVE SMOOTH",
"516 0 LINE SMOOTH",
"534 0 OFFCURVE",
"548 14 OFFCURVE",
"548 32 CURVE SMOOTH",
"548 425 LINE SMOOTH",
"548 443 OFFCURVE",
"534 458 OFFCURVE",
"516 458 CURVE SMOOTH"
);
},
{
closed = 1;
nodes = (
"84 34 LINE",
"84 358 LINE",
"516 358 LINE",
"516 34 LINE"
);
},
{
closed = 1;
nodes = (
"171 430 OFFCURVE",
"167 426 OFFCURVE",
"162 426 CURVE SMOOTH",
"136 426 LINE SMOOTH",
"130 426 OFFCURVE",
"126 430 OFFCURVE",
"126 435 CURVE SMOOTH",
"126 490 LINE SMOOTH",
"126 495 OFFCURVE",
"130 500 OFFCURVE",
"136 500 CURVE SMOOTH",
"162 500 LINE SMOOTH",
"167 500 OFFCURVE",
"171 495 OFFCURVE",
"171 490 CURVE SMOOTH",
"171 435 LINE SMOOTH"
);
},
{
closed = 1;
nodes = (
"474 430 OFFCURVE",
"470 426 OFFCURVE",
"464 426 CURVE SMOOTH",
"438 426 LINE SMOOTH",
"433 426 OFFCURVE",
"429 430 OFFCURVE",
"429 435 CURVE SMOOTH",
"429 490 LINE SMOOTH",
"429 495 OFFCURVE",
"433 500 OFFCURVE",
"438 500 CURVE SMOOTH",
"464 500 LINE SMOOTH",
"470 500 OFFCURVE",
"474 495 OFFCURVE",
"474 490 CURVE SMOOTH",
"474 435 LINE SMOOTH"
);
},
{
closed = 1;
nodes = (
"171 216 OFFCURVE",
"183 221 OFFCURVE",
"197 221 CURVE SMOOTH",
"212 221 OFFCURVE",
"225 216 OFFCURVE",
"235 206 CURVE SMOOTH",
"245 197 OFFCURVE",
"250 185 OFFCURVE",
"250 170 CURVE SMOOTH",
"250 153 OFFCURVE",
"246 140 OFFCURVE",
"237 129 CURVE SMOOTH",
"228 118 OFFCURVE",
"216 113 OFFCURVE",
"200 113 CURVE SMOOTH",
"181 113 OFFCURVE",
"166 122 OFFCURVE",
"154 139 CURVE SMOOTH",
"143 156 OFFCURVE",
"137 177 OFFCURVE",
"137 202 CURVE SMOOTH",
"137 228 OFFCURVE",
"143 250 OFFCURVE",
"155 268 CURVE SMOOTH",
"167 286 OFFCURVE",
"183 295 OFFCURVE",
"203 295 CURVE SMOOTH",
"218 295 OFFCURVE",
"230 293 OFFCURVE",
"240 288 CURVE",
"237 270 LINE",
"225 275 OFFCURVE",
"214 277 OFFCURVE",
"204 277 CURVE SMOOTH",
"190 277 OFFCURVE",
"179 270 OFFCURVE",
"171 257 CURVE SMOOTH",
"164 244 OFFCURVE",
"160 228 OFFCURVE",
"160 207 CURVE"
);
},
{
closed = 1;
nodes = (
"160 175 OFFCURVE",
"164 161 OFFCURVE",
"171 149 CURVE SMOOTH",
"179 137 OFFCURVE",
"188 131 OFFCURVE",
"199 131 CURVE SMOOTH",
"208 131 OFFCURVE",
"215 134 OFFCURVE",
"220 141 CURVE SMOOTH",
"225 147 OFFCURVE",
"228 156 OFFCURVE",
"228 168 CURVE SMOOTH",
"228 179 OFFCURVE",
"225 187 OFFCURVE",
"220 194 CURVE SMOOTH",
"214 200 OFFCURVE",
"206 203 OFFCURVE",
"196 203 CURVE SMOOTH",
"183 203 OFFCURVE",
"171 199 OFFCURVE",
"160 190 CURVE"
);
},
{
closed = 1;
nodes = (
"279 113 LINE",
"261 113 LINE",
"339 295 LINE",
"358 295 LINE"
);
},
{
closed = 1;
nodes = (
"443 207 OFFCURVE",
"452 202 OFFCURVE",
"458 194 CURVE SMOOTH",
"465 186 OFFCURVE",
"468 177 OFFCURVE",
"468 167 CURVE SMOOTH",
"468 152 OFFCURVE",
"462 139 OFFCURVE",
"450 129 CURVE SMOOTH",
"437 118 OFFCURVE",
"423 113 OFFCURVE",
"406 113 CURVE SMOOTH",
"391 113 OFFCURVE",
"379 116 OFFCURVE",
"367 122 CURVE",
"371 139 LINE",
"383 133 OFFCURVE",
"395 131 OFFCURVE",
"407 131 CURVE SMOOTH",
"418 131 OFFCURVE",
"427 134 OFFCURVE",
"435 141 CURVE SMOOTH",
"442 147 OFFCURVE",
"446 156 OFFCURVE",
"446 166 CURVE SMOOTH",
"446 176 OFFCURVE",
"442 184 OFFCURVE",
"434 191 CURVE SMOOTH",
"426 197 OFFCURVE",
"414 200 OFFCURVE",
"401 200 CURVE SMOOTH",
"395 200 LINE",
"395 217 LINE",
"397 217 LINE SMOOTH",
"410 217 OFFCURVE",
"421 220 OFFCURVE",
"429 226 CURVE SMOOTH",
"438 232 OFFCURVE",
"442 240 OFFCURVE",
"442 250 CURVE SMOOTH",
"442 259 OFFCURVE",
"439 265 OFFCURVE",
"433 270 CURVE SMOOTH",
"427 274 OFFCURVE",
"418 277 OFFCURVE",
"408 277 CURVE SMOOTH",
"398 277 OFFCURVE",
"388 274 OFFCURVE",
"376 269 CURVE",
"373 287 LINE",
"385 292 OFFCURVE",
"397 295 OFFCURVE",
"409 295 CURVE SMOOTH",
"425 295 OFFCURVE",
"438 290 OFFCURVE",
"449 282 CURVE SMOOTH",
"459 274 OFFCURVE",
"464 263 OFFCURVE",
"464 251 CURVE SMOOTH",
"464 242 OFFCURVE",
"461 233 OFFCURVE",
"455 226 CURVE SMOOTH",
"448 218 OFFCURVE",
"441 213 OFFCURVE",
"432 211 CURVE",
"432 210 LINE"
);
}
);
width = 600;
}
);
unicode = 0055;
},
{
glyphname = V;
layers = (
{
layerId = "2B2FE4A8-39A2-493B-A970-B9343EE81639";
name = Regular;
paths = (
{
closed = 1;
nodes = (
"425 500 LINE",
"425 0 LINE",
"311 0 LINE",
"311 500 LINE"
);
},
{
closed = 1;
nodes = (
"289 363 LINE",
"289 0 LINE",
"175 0 LINE",
"175 363 LINE"
);
},
{
closed = 1;
nodes = (
"560 295 LINE",
"560 0 LINE",
"447 0 LINE",
"447 295 LINE"
);
},
{
closed = 1;
nodes = (
"152 159 LINE",
"152 0 LINE",
"39 0 LINE",
"39 159 LINE"
);
}
);
width = 600;
}
);
unicode = 0056;
},
{
glyphname = W;
layers = (
{
layerId = "2B2FE4A8-39A2-493B-A970-B9343EE81639";
name = Regular;
paths = (
{
closed = 1;
nodes = (
"265 425 LINE",
"283 408 OFFCURVE",
"284 382 OFFCURVE",
"268 367 CURVE",
"230 327 LINE",
"213 312 OFFCURVE",
"187 313 OFFCURVE",
"170 330 CURVE SMOOTH",
"114 386 LINE SMOOTH",
"97 403 OFFCURVE",
"96 430 OFFCURVE",
"111 445 CURVE SMOOTH",
"151 484 LINE",
"165 500 OFFCURVE",
"192 499 OFFCURVE",
"210 482 CURVE"
);
},
{
closed = 1;
nodes = (
"112 433 LINE",
"112 433 OFFCURVE",
"30 290 OFFCURVE",
"185 135 CURVE SMOOTH",
"341 -20 OFFCURVE",
"502 42 OFFCURVE",
"502 42 CURVE",
"397 147 LINE",
"397 147 OFFCURVE",
"357 120 OFFCURVE",
"264 214 CURVE SMOOTH",
"171 307 OFFCURVE",
"217 327 OFFCURVE",
"217 327 CURVE"
);
},
{
closed = 1;
nodes = (
"551 141 LINE SMOOTH",
"568 124 OFFCURVE",
"569 96 OFFCURVE",
"553 82 CURVE",
"514 42 LINE SMOOTH",
"499 27 OFFCURVE",
"472 28 OFFCURVE",
"454 44 CURVE",
"399 101 LINE SMOOTH",
"383 117 OFFCURVE",
"382 144 OFFCURVE",
"396 160 CURVE",
"436 199 LINE SMOOTH",
"451 214 OFFCURVE",
"478 214 OFFCURVE",
"495 196 CURVE"
);
}
);
width = 600;
}
);
unicode = 0057;
},
{
glyphname = X;
layers = (
{
layerId = "2B2FE4A8-39A2-493B-A970-B9343EE81639";
name = Regular;
paths = (
{
closed = 1;
nodes = (
"301 275 LINE",
"330 39 LINE",
"444 53 OFFCURVE",
"532 150 OFFCURVE",
"532 268 CURVE SMOOTH",
"532 396 OFFCURVE",
"429 500 OFFCURVE",
"301 500 CURVE SMOOTH",
"173 500 OFFCURVE",
"69 396 OFFCURVE",
"69 268 CURVE SMOOTH",
"69 206 OFFCURVE",
"80 167 OFFCURVE",
"119 125 CURVE"
);
},
{
closed = 1;
nodes = (
"271 201 LINE",
"120 74 LINE",
"121 71 OFFCURVE",
"123 70 OFFCURVE",
"125 68 CURVE SMOOTH",
"170 23 OFFCURVE",
"232 0 OFFCURVE",
"293 1 CURVE"
);
},
{
closed = 1;
nodes = (
"330 37 LINE",
"330 39 LINE",
"320 38 OFFCURVE",
"311 37 OFFCURVE",
"301 37 CURVE"
);
}
);
width = 600;
}
);
unicode = 0058;
},
{
glyphname = Y;
lastChange = "2013-04-11 16:10:26 -0300";
layers = (
{
layerId = "2B2FE4A8-39A2-493B-A970-B9343EE81639";
name = Regular;
paths = (
{
closed = 1;
nodes = (
"550 211 OFFCURVE",
"519 180 OFFCURVE",
"480 180 CURVE SMOOTH",
"370 180 LINE",
"370 70 LINE SMOOTH",
"370 31 OFFCURVE",
"339 0 OFFCURVE",
"300 0 CURVE SMOOTH",
"261 0 OFFCURVE",
"230 31 OFFCURVE",
"230 70 CURVE SMOOTH",
"230 180 LINE",
"120 180 LINE SMOOTH",
"81 180 OFFCURVE",
"50 211 OFFCURVE",
"50 250 CURVE SMOOTH",
"50 289 OFFCURVE",
"81 320 OFFCURVE",
"120 320 CURVE SMOOTH",
"230 320 LINE",
"230 430 LINE SMOOTH",
"230 469 OFFCURVE",
"261 500 OFFCURVE",
"300 500 CURVE SMOOTH",
"339 500 OFFCURVE",
"370 469 OFFCURVE",
"370 430 CURVE SMOOTH",
"370 320 LINE",
"480 320 LINE SMOOTH",
"519 320 OFFCURVE",
"550 289 OFFCURVE",
"550 250 CURVE SMOOTH"
);
}
);
width = 600;
}
);
unicode = 0059;
},
{
glyphname = Z;
layers = (
{
layerId = "2B2FE4A8-39A2-493B-A970-B9343EE81639";
name = Regular;
paths = (
{
closed = 1;
nodes = (
"299 351 LINE",
"178 472 LINE SMOOTH",
"151 499 OFFCURVE",
"106 498 OFFCURVE",
"79 471 CURVE SMOOTH",
"51 444 OFFCURVE",
"50 398 OFFCURVE",
"78 371 CURVE SMOOTH",
"199 250 LINE",
"77 128 LINE SMOOTH",
"50 101 OFFCURVE",
"51 56 OFFCURVE",
"78 29 CURVE SMOOTH",
"105 1 OFFCURVE",
"149 1 OFFCURVE",
"177 28 CURVE SMOOTH",
"299 150 LINE",
"422 27 LINE SMOOTH",
"449 0 OFFCURVE",
"494 1 OFFCURVE",
"522 28 CURVE SMOOTH",
"549 55 OFFCURVE",
"550 100 OFFCURVE",
"522 128 CURVE SMOOTH",
"400 250 LINE",
"522 372 LINE SMOOTH",
"549 399 OFFCURVE",
"548 444 OFFCURVE",
"521 471 CURVE SMOOTH",
"494 499 OFFCURVE",
"448 500 OFFCURVE",
"421 472 CURVE SMOOTH"
);
}
);
width = 600;
}
);
unicode = 005A;
},
{
glyphname = a;
layers = (
{
layerId = "2B2FE4A8-39A2-493B-A970-B9343EE81639";
name = Regular;
paths = (
{
closed = 1;
nodes = (
"121 66 LINE",
"121 74 LINE",
"20 184 LINE",
"11 196 OFFCURVE",
"0 215 OFFCURVE",
"0 227 CURVE SMOOTH",
"0 246 OFFCURVE",
"11 265 OFFCURVE",
"20 274 CURVE SMOOTH",
"51 305 LINE",
"71 316 OFFCURVE",
"79 324 OFFCURVE",
"102 324 CURVE SMOOTH",
"121 324 OFFCURVE",
"130 316 OFFCURVE",
"150 293 CURVE",
"212 235 LINE",
"450 465 LINE",
"470 474 OFFCURVE",
"479 485 OFFCURVE",
"501 485 CURVE SMOOTH",
"521 485 OFFCURVE",
"529 474 OFFCURVE",
"549 465 CURVE",
"580 426 LINE",
"600 403 OFFCURVE",
"600 364 OFFCURVE",
"569 336 CURVE SMOOTH",
"290 74 LINE",
"278 66 LINE",
"239 35 LINE",
"231 26 OFFCURVE",
"220 15 OFFCURVE",
"200 15 CURVE SMOOTH",
"181 15 OFFCURVE",
"161 26 OFFCURVE",
"150 35 CURVE"
);
}
);
width = 600;
}
);
unicode = 0061;
},
{
glyphname = b;
layers = (
{
layerId = "2B2FE4A8-39A2-493B-A970-B9343EE81639";
name = Regular;
paths = (
{
closed = 1;
nodes = (
"489 635 LINE SMOOTH",
"443 635 OFFCURVE",
"416 594 OFFCURVE",
"416 547 CURVE SMOOTH",
"416 518 LINE SMOOTH",
"416 478 OFFCURVE",
"433 435 OFFCURVE",
"485 435 CURVE",
"485 376 LINE",
"556 435 LINE",
"600 435 LINE SMOOTH",
"646 435 OFFCURVE",
"684 471 OFFCURVE",
"684 518 CURVE SMOOTH",
"684 547 LINE SMOOTH",
"684 594 OFFCURVE",
"646 635 OFFCURVE",
"600 635 CURVE SMOOTH"
);
},
{
closed = 1;
nodes = (
"256 229 LINE",
"256 229 OFFCURVE",
"254 243 OFFCURVE",
"254 249 CURVE",
"206 267 OFFCURVE",
"173 315 OFFCURVE",
"173 372 CURVE SMOOTH",
"173 442 OFFCURVE",
"228 500 OFFCURVE",
"296 500 CURVE SMOOTH",
"363 500 OFFCURVE",
"419 443 OFFCURVE",
"419 372 CURVE SMOOTH",
"419 314 OFFCURVE",
"383 265 OFFCURVE",
"334 247 CURVE",
"333 229 LINE",
"387 229 LINE SMOOTH",
"436 229 OFFCURVE",
"486 146 OFFCURVE",
"486 101 CURVE SMOOTH",
"486 95 LINE SMOOTH",
"486 26 OFFCURVE",
"401 0 OFFCURVE",
"296 0 CURVE SMOOTH",
"191 0 OFFCURVE",
"105 26 OFFCURVE",
"105 95 CURVE SMOOTH",
"105 99 OFFCURVE",
"105 101 OFFCURVE",
"106 105 CURVE",
"106 110 OFFCURVE",
"108 117 OFFCURVE",
"111 122 CURVE",
"124 170 OFFCURVE",
"167 229 OFFCURVE",
"209 229 CURVE SMOOTH"
);
}
);
width = 600;
}
);
unicode = 0062;
},
{
glyphname = c;
lastChange = "2013-04-10 21:09:07 -0300";
layers = (
{
layerId = "2B2FE4A8-39A2-493B-A970-B9343EE81639";
name = Regular;
paths = (
{
closed = 1;
nodes = (
"417 17 OFFCURVE",
"390 0 OFFCURVE",
"304 0 CURVE SMOOTH",
"199 0 OFFCURVE",
"114 25 OFFCURVE",
"114 95 CURVE SMOOTH",
"114 98 OFFCURVE",
"114 102 OFFCURVE",
"115 105 CURVE",
"116 111 OFFCURVE",
"117 118 OFFCURVE",
"119 123 CURVE",
"133 170 OFFCURVE",
"176 231 OFFCURVE",
"217 231 CURVE SMOOTH",
"264 231 LINE",
"264 237 OFFCURVE",
"263 243 OFFCURVE",
"262 249 CURVE",
"215 267 OFFCURVE",
"182 315 OFFCURVE",
"182 370 CURVE SMOOTH",
"182 442 OFFCURVE",
"237 500 OFFCURVE",
"304 500 CURVE SMOOTH",
"372 500 OFFCURVE",
"427 442 OFFCURVE",
"427 370 CURVE SMOOTH",
"427 314 OFFCURVE",
"392 265 OFFCURVE",
"344 248 CURVE",
"343 243 OFFCURVE",
"342 237 OFFCURVE",
"342 231 CURVE",
"396 231 LINE SMOOTH",
"414 231 OFFCURVE",
"431 219 OFFCURVE",
"435 202 CURVE",
"407 202 LINE SMOOTH",
"368 202 OFFCURVE",
"337 170 OFFCURVE",
"337 132 CURVE SMOOTH",
"337 93 OFFCURVE",
"368 62 OFFCURVE",
"407 62 CURVE SMOOTH",
"424 62 LINE"
);
},
{
closed = 1;
nodes = (
"530 156 LINE",
"530 201 LINE SMOOTH",
"530 215 OFFCURVE",
"518 226 OFFCURVE",
"505 226 CURVE SMOOTH",
"491 226 OFFCURVE",
"480 215 OFFCURVE",
"480 201 CURVE SMOOTH",
"480 156 LINE",
"435 156 LINE SMOOTH",
"421 156 OFFCURVE",
"410 145 OFFCURVE",
"410 131 CURVE SMOOTH",
"410 117 OFFCURVE",
"421 106 OFFCURVE",
"435 106 CURVE SMOOTH",
"480 106 LINE",
"480 61 LINE SMOOTH",
"480 47 OFFCURVE",
"491 36 OFFCURVE",
"505 36 CURVE SMOOTH",
"518 36 OFFCURVE",
"530 47 OFFCURVE",
"530 61 CURVE SMOOTH",
"530 106 LINE",
"575 106 LINE SMOOTH",
"588 106 OFFCURVE",
"600 117 OFFCURVE",
"600 131 CURVE SMOOTH",
"600 145 OFFCURVE",
"588 156 OFFCURVE",
"575 156 CURVE SMOOTH"
);
}
);
width = 600;
}
);
unicode = 0063;
},
{
glyphname = d;
lastChange = "2013-04-10 21:09:31 -0300";
layers = (
{
layerId = "2B2FE4A8-39A2-493B-A970-B9343EE81639";
name = Regular;
paths = (
{
closed = 1;
nodes = (
"462 17 OFFCURVE",
"390 0 OFFCURVE",
"304 0 CURVE SMOOTH",
"199 0 OFFCURVE",
"114 25 OFFCURVE",
"114 95 CURVE SMOOTH",
"114 98 OFFCURVE",
"114 102 OFFCURVE",
"115 105 CURVE",
"116 111 OFFCURVE",
"117 118 OFFCURVE",
"119 123 CURVE",
"133 170 OFFCURVE",
"176 231 OFFCURVE",
"217 231 CURVE SMOOTH",
"264 231 LINE",
"264 237 OFFCURVE",
"263 243 OFFCURVE",
"262 249 CURVE",
"215 267 OFFCURVE",
"182 315 OFFCURVE",
"182 370 CURVE SMOOTH",
"182 442 OFFCURVE",
"237 500 OFFCURVE",
"304 500 CURVE SMOOTH",
"372 500 OFFCURVE",
"427 442 OFFCURVE",
"427 370 CURVE SMOOTH",
"427 314 OFFCURVE",
"392 265 OFFCURVE",
"344 248 CURVE",
"343 243 OFFCURVE",
"342 237 OFFCURVE",
"342 231 CURVE",
"396 231 LINE SMOOTH",
"414 231 OFFCURVE",
"433 219 OFFCURVE",
"450 202 CURVE",
"407 202 LINE SMOOTH",
"368 202 OFFCURVE",
"337 170 OFFCURVE",
"337 132 CURVE SMOOTH",
"337 93 OFFCURVE",
"368 62 OFFCURVE",
"407 62 CURVE SMOOTH",
"486 62 LINE"
);
},
{
closed = 1;
nodes = (
"600 119 OFFCURVE",
"589 108 OFFCURVE",
"575 108 CURVE SMOOTH",
"435 108 LINE SMOOTH",
"422 108 OFFCURVE",
"410 119 OFFCURVE",
"410 133 CURVE",
"410 133 LINE",
"410 146 OFFCURVE",
"422 158 OFFCURVE",
"435 158 CURVE SMOOTH",
"575 158 LINE SMOOTH",
"589 158 OFFCURVE",
"600 146 OFFCURVE",
"600 133 CURVE SMOOTH"
);
}
);
width = 600;
}
);
unicode = 0064;
},
{
glyphname = e;
layers = (
{
layerId = "2B2FE4A8-39A2-493B-A970-B9343EE81639";
name = Regular;
paths = (
{
closed = 1;
nodes = (
"255 232 LINE",
"255 232 OFFCURVE",
"254 244 OFFCURVE",
"253 249 CURVE",
"206 267 OFFCURVE",
"173 315 OFFCURVE",
"173 371 CURVE SMOOTH",
"173 442 OFFCURVE",
"228 500 OFFCURVE",
"295 500 CURVE SMOOTH",
"363 500 OFFCURVE",
"418 442 OFFCURVE",
"418 370 CURVE SMOOTH",
"418 314 OFFCURVE",
"383 265 OFFCURVE",
"334 248 CURVE",
"333 243 OFFCURVE",
"333 232 OFFCURVE",
"332 232 CURVE",
"387 232 LINE SMOOTH",
"436 232 OFFCURVE",
"485 148 OFFCURVE",
"485 102 CURVE SMOOTH",
"485 95 LINE SMOOTH",
"485 25 OFFCURVE",
"400 0 OFFCURVE",
"295 0 CURVE SMOOTH",
"190 0 OFFCURVE",
"105 25 OFFCURVE",
"105 95 CURVE SMOOTH",
"105 98 OFFCURVE",
"105 102 OFFCURVE",
"106 105 CURVE",
"106 111 OFFCURVE",
"108 118 OFFCURVE",
"110 124 CURVE SMOOTH",
"124 171 OFFCURVE",
"167 232 OFFCURVE",
"208 232 CURVE SMOOTH"
);
}
);
width = 600;
}
);
unicode = 0065;
},
{
glyphname = f;
layers = (
{
layerId = "2B2FE4A8-39A2-493B-A970-B9343EE81639";
name = Regular;
paths = (
{
closed = 1;
nodes = (
"558 191 LINE",
"559 193 LINE",
"559 225 OFFCURVE",
"525 285 OFFCURVE",
"490 285 CURVE SMOOTH",
"452 285 LINE",
"453 285 OFFCURVE",
"453 291 OFFCURVE",
"454 294 CURVE",
"487 306 OFFCURVE",
"512 339 OFFCURVE",
"512 378 CURVE SMOOTH",
"512 428 OFFCURVE",
"474 467 OFFCURVE",
"427 467 CURVE SMOOTH",
"380 467 OFFCURVE",
"341 427 OFFCURVE",
"341 377 CURVE SMOOTH",
"341 338 OFFCURVE",
"365 308 OFFCURVE",
"397 295 CURVE",
"399 285 LINE",
"366 285 LINE SMOOTH",
"349 285 OFFCURVE",
"331 266 OFFCURVE",
"318 247 CURVE",
"313 248 OFFCURVE",
"309 245 OFFCURVE",
"305 245 CURVE SMOOTH",
"254 245 LINE SMOOTH",
"254 245 OFFCURVE",
"255 257 OFFCURVE",
"256 262 CURVE",
"301 278 OFFCURVE",
"334 324 OFFCURVE",
"334 378 CURVE SMOOTH",
"334 445 OFFCURVE",
"282 500 OFFCURVE",
"219 500 CURVE SMOOTH",
"155 500 OFFCURVE",
"103 446 OFFCURVE",
"103 378 CURVE SMOOTH",
"103 326 OFFCURVE",
"135 280 OFFCURVE",
"179 263 CURVE",
"180 258 OFFCURVE",
"181 245 OFFCURVE",
"181 245 CURVE SMOOTH",
"137 245 LINE SMOOTH",
"98 245 OFFCURVE",
"57 189 OFFCURVE",
"44 144 CURVE",
"42 139 OFFCURVE",
"41 134 OFFCURVE",
"40 128 CURVE",
"40 119 LINE SMOOTH",
"40 53 OFFCURVE",
"120 0 OFFCURVE",
"219 0 CURVE SMOOTH",
"308 0 OFFCURVE",
"382 44 OFFCURVE",
"395 100 CURVE",
"405 99 OFFCURVE",
"416 98 OFFCURVE",
"427 98 CURVE SMOOTH",
"500 98 OFFCURVE",
"559 137 OFFCURVE",
"559 186 CURVE"
);
}
);
width = 600;
}
);
unicode = 0066;
},
{
glyphname = g;
layers = (
{
layerId = "2B2FE4A8-39A2-493B-A970-B9343EE81639";
name = Regular;
paths = (
{
closed = 1;
nodes = (
"600 470 LINE",
"0 470 LINE",
"0 34 LINE",
"600 34 LINE"
);
},
{
closed = 1;
nodes = (
"491 407 LINE",
"300 270 LINE",
"109 407 LINE"
);
},
{
closed = 1;
nodes = (
"45 370 LINE",
"209 261 LINE",
"45 97 LINE"
);
},
{
closed = 1;
nodes = (
"555 370 LINE",
"555 97 LINE",
"400 261 LINE"
);
},
{
closed = 1;
nodes = (
"227 243 LINE",
"300 188 LINE",
"382 243 LINE",
"536 79 LINE",
"73 79 LINE"
);
}
);
width = 600;
}
);
unicode = 0067;
},
{
glyphname = h;
layers = (
{
layerId = "2B2FE4A8-39A2-493B-A970-B9343EE81639";
name = Regular;
paths = (
{
closed = 1;
nodes = (
"600 431 LINE SMOOTH",
"600 446 OFFCURVE",
"588 457 OFFCURVE",
"573 457 CURVE SMOOTH",
"27 457 LINE SMOOTH",
"12 457 OFFCURVE",
"0 446 OFFCURVE",
"0 431 CURVE SMOOTH",
"0 70 LINE SMOOTH",
"0 55 OFFCURVE",
"12 43 OFFCURVE",
"27 43 CURVE SMOOTH",
"573 43 LINE SMOOTH",
"588 43 OFFCURVE",
"600 55 OFFCURVE",
"600 70 CURVE SMOOTH"
);
},
{
closed = 1;
nodes = (
"550 411 LINE",
"550 321 LINE",
"484 321 LINE",
"484 411 LINE"
);
},
{
closed = 1;
nodes = (
"365 321 LINE",
"365 275 LINE",
"113 275 LINE",
"113 321 LINE"
);
},
{
closed = 1;
nodes = (
"345 249 LINE",
"345 205 LINE",
"113 205 LINE",
"113 249 LINE"
);
},
{
closed = 1;
nodes = (
"229 182 LINE",
"229 139 LINE",
"113 139 LINE",
"113 182 LINE"
);
}
);
width = 600;
}
);
unicode = 0068;
},
{
glyphname = i;
layers = (
{
layerId = "2B2FE4A8-39A2-493B-A970-B9343EE81639";
name = Regular;
paths = (
{
closed = 1;
nodes = (
"553 351 LINE",
"399 500 LINE",
"198 500 LINE",
"47 351 LINE",
"47 150 LINE",
"198 0 LINE",
"399 0 LINE",
"553 150 LINE"
);
},
{
closed = 1;
nodes = (
"348 250 LINE",
"409 189 LINE",
"423 176 OFFCURVE",
"423 154 OFFCURVE",
"409 140 CURVE SMOOTH",
"395 126 OFFCURVE",
"373 126 OFFCURVE",
"360 140 CURVE",
"299 201 LINE",
"238 140 LINE SMOOTH",
"224 126 OFFCURVE",
"202 126 OFFCURVE",
"188 140 CURVE",
"175 154 OFFCURVE",
"175 176 OFFCURVE",
"188 189 CURVE SMOOTH",
"249 250 LINE",
"188 312 LINE SMOOTH",
"175 325 OFFCURVE",
"175 347 OFFCURVE",
"188 361 CURVE",
"202 374 OFFCURVE",
"224 374 OFFCURVE",
"238 361 CURVE",
"299 300 LINE",
"360 361 LINE SMOOTH",
"373 374 OFFCURVE",
"395 374 OFFCURVE",
"409 361 CURVE",
"423 347 OFFCURVE",
"423 325 OFFCURVE",
"409 312 CURVE"
);
}
);
width = 600;
}
);
unicode = 0069;
},
{
glyphname = j;
layers = (
{
layerId = "2B2FE4A8-39A2-493B-A970-B9343EE81639";
name = Regular;
paths = (
{
closed = 1;
nodes = (
"563 73 OFFCURVE",
"342 456 OFFCURVE",
"328 479 CURVE SMOOTH",
"316 500 OFFCURVE",
"286 500 OFFCURVE",
"274 479 CURVE SMOOTH",
"24 47 LINE SMOOTH",
"10 23 OFFCURVE",
"27 0 OFFCURVE",
"51 0 CURVE SMOOTH",
"552 0 LINE SMOOTH",
"577 0 OFFCURVE",
"590 25 OFFCURVE",
"579 46 CURVE"
);
},
{
closed = 1;
nodes = (
"314 144 LINE",
"286 144 LINE",
"286 153 LINE",
"283 186 OFFCURVE",
"280 221 OFFCURVE",
"276 255 CURVE SMOOTH",
"272 290 OFFCURVE",
"270 311 OFFCURVE",
"270 318 CURVE SMOOTH",
"270 326 OFFCURVE",
"273 335 OFFCURVE",
"279 341 CURVE",
"284 347 OFFCURVE",
"292 350 OFFCURVE",
"301 350 CURVE SMOOTH",
"310 350 OFFCURVE",
"317 347 OFFCURVE",
"323 341 CURVE SMOOTH",
"329 335 OFFCURVE",
"332 327 OFFCURVE",
"332 318 CURVE SMOOTH",
"332 314 OFFCURVE",
"331 303 OFFCURVE",
"326 256 CURVE SMOOTH",
"322 222 OFFCURVE",
"318 186 OFFCURVE",
"315 153 CURVE SMOOTH"
);
},
{
closed = 1;
nodes = (
"317 69 OFFCURVE",
"310 66 OFFCURVE",
"301 66 CURVE SMOOTH",
"292 66 OFFCURVE",
"284 69 OFFCURVE",
"278 76 CURVE",
"272 82 OFFCURVE",
"268 90 OFFCURVE",
"268 98 CURVE SMOOTH",
"268 107 OFFCURVE",
"272 115 OFFCURVE",
"278 121 CURVE",
"284 128 OFFCURVE",
"292 131 OFFCURVE",
"301 131 CURVE SMOOTH",
"310 131 OFFCURVE",
"317 128 OFFCURVE",
"324 121 CURVE SMOOTH",
"330 115 OFFCURVE",
"333 107 OFFCURVE",
"333 98 CURVE SMOOTH",
"333 90 OFFCURVE",
"330 82 OFFCURVE",
"324 76 CURVE SMOOTH"
);
}
);
width = 600;
}
);
unicode = 006A;
},
{
glyphname = k;
layers = (
{
layerId = "2B2FE4A8-39A2-493B-A970-B9343EE81639";
name = Regular;
paths = (
{
closed = 1;
nodes = (
"211 226 LINE",
"74 84 LINE SMOOTH",
"56 66 OFFCURVE",
"53 40 OFFCURVE",
"67 26 CURVE SMOOTH",
"79 14 LINE SMOOTH",
"93 0 OFFCURVE",
"119 3 OFFCURVE",
"137 21 CURVE SMOOTH",
"274 163 LINE",
"279 169 LINE",
"304 155 OFFCURVE",
"333 147 OFFCURVE",
"364 147 CURVE SMOOTH",
"462 147 OFFCURVE",
"541 226 OFFCURVE",
"541 323 CURVE SMOOTH",
"541 421 OFFCURVE",
"462 500 OFFCURVE",
"364 500 CURVE SMOOTH",
"267 500 OFFCURVE",
"187 421 OFFCURVE",
"187 323 CURVE SMOOTH",
"187 289 OFFCURVE",
"197 256 OFFCURVE",
"214 229 CURVE"
);
},
{
closed = 1;
nodes = (
"292 192 OFFCURVE",
"233 251 OFFCURVE",
"233 323 CURVE SMOOTH",
"233 396 OFFCURVE",
"292 454 OFFCURVE",
"364 454 CURVE SMOOTH",
"436 454 OFFCURVE",
"495 396 OFFCURVE",
"495 323 CURVE SMOOTH",
"495 251 OFFCURVE",
"436 192 OFFCURVE",
"364 192 CURVE SMOOTH"
);
},
{
closed = 1;
nodes = (
"233 172 LINE",
"162 101 LINE",
"149 114 LINE",
"220 185 LINE"
);
}
);
width = 600;
}
);
unicode = 006B;
},
{
glyphname = l;
lastChange = "2013-01-08 17:54:50 -0300";
layers = (
{
layerId = "2B2FE4A8-39A2-493B-A970-B9343EE81639";
name = Regular;
paths = (
{
closed = 1;
nodes = (
"184 500 LINE SMOOTH",
"94 500 OFFCURVE",
"42 421 OFFCURVE",
"42 331 CURVE SMOOTH",
"42 273 LINE SMOOTH",
"42 197 OFFCURVE",
"75 114 OFFCURVE",
"175 114 CURVE",
"175 0 LINE",
"311 114 LINE",
"395 114 LINE SMOOTH",
"486 114 OFFCURVE",
"558 183 OFFCURVE",
"558 273 CURVE SMOOTH",
"558 331 LINE SMOOTH",
"558 421 OFFCURVE",
"486 500 OFFCURVE",
"395 500 CURVE SMOOTH"
);
},
{
closed = 1;
nodes = (
"390 189 OFFCURVE",
"372 189 OFFCURVE",
"358 200 CURVE SMOOTH",
"299 255 LINE",
"244 203 LINE SMOOTH",
"230 190 OFFCURVE",
"211 190 OFFCURVE",
"198 203 CURVE SMOOTH",
"185 214 OFFCURVE",
"185 236 OFFCURVE",
"198 249 CURVE SMOOTH",
"254 305 LINE",
"204 360 LINE SMOOTH",
"188 371 OFFCURVE",
"188 392 OFFCURVE",
"204 401 CURVE SMOOTH",
"216 415 OFFCURVE",
"233 415 OFFCURVE",
"247 401 CURVE SMOOTH",
"299 350 LINE",
"353 408 LINE SMOOTH",
"366 419 OFFCURVE",
"388 417 OFFCURVE",
"401 408 CURVE SMOOTH",
"411 394 OFFCURVE",
"411 373 OFFCURVE",
"401 360 CURVE SMOOTH",
"346 303 LINE",
"402 249 LINE SMOOTH",
"415 234 OFFCURVE",
"415 212 OFFCURVE",
"402 200 CURVE SMOOTH"
);
}
);
width = 600;
}
);
unicode = 006C;
},
{
glyphname = m;
layers = (
{
layerId = "2B2FE4A8-39A2-493B-A970-B9343EE81639";
name = Regular;
paths = (
{
closed = 1;
nodes = (
"335 263 LINE SMOOTH",
"335 243 OFFCURVE",
"319 227 OFFCURVE",
"299 227 CURVE SMOOTH",
"279 227 OFFCURVE",
"263 243 OFFCURVE",
"263 263 CURVE SMOOTH",
"263 464 LINE SMOOTH",
"263 484 OFFCURVE",
"279 500 OFFCURVE",
"299 500 CURVE SMOOTH",
"319 500 OFFCURVE",
"335 484 OFFCURVE",
"335 464 CURVE SMOOTH"
);
},
{
closed = 1;
nodes = (
"372 341 LINE",
"408 316 OFFCURVE",
"448 267 OFFCURVE",
"448 211 CURVE SMOOTH",
"448 130 OFFCURVE",
"381 65 OFFCURVE",
"300 65 CURVE SMOOTH",
"219 65 OFFCURVE",
"152 130 OFFCURVE",
"152 211 CURVE SMOOTH",
"152 266 OFFCURVE",
"190 314 OFFCURVE",
"226 339 CURVE",
"226 410 LINE",
"153 380 OFFCURVE",
"87 303 OFFCURVE",
"87 211 CURVE SMOOTH",
"87 95 OFFCURVE",
"182 0 OFFCURVE",
"299 0 CURVE SMOOTH",
"415 0 OFFCURVE",
"512 95 OFFCURVE",
"512 211 CURVE SMOOTH",
"512 304 OFFCURVE",
"445 382 OFFCURVE",
"372 411 CURVE"
);
}
);
width = 600;
}
);
unicode = 006D;
},
{
glyphname = n;
layers = (
{
layerId = "2B2FE4A8-39A2-493B-A970-B9343EE81639";
name = Regular;
paths = (
{
closed = 1;
nodes = (
"453 281 LINE",
"449 301 OFFCURVE",
"441 320 OFFCURVE",
"430 336 CURVE",
"490 396 LINE SMOOTH",
"495 401 OFFCURVE",
"495 409 OFFCURVE",
"490 414 CURVE SMOOTH",
"464 440 LINE SMOOTH",
"459 445 OFFCURVE",
"451 445 OFFCURVE",
"446 440 CURVE SMOOTH",
"386 380 LINE",
"370 391 OFFCURVE",
"351 399 OFFCURVE",
"331 403 CURVE",
"331 488 LINE SMOOTH",
"331 494 OFFCURVE",
"326 500 OFFCURVE",
"319 500 CURVE SMOOTH",
"281 500 LINE SMOOTH",
"274 500 OFFCURVE",
"269 494 OFFCURVE",
"269 488 CURVE SMOOTH",
"269 403 LINE",
"249 399 OFFCURVE",
"230 391 OFFCURVE",
"214 380 CURVE",
"154 440 LINE SMOOTH",
"149 445 OFFCURVE",
"141 445 OFFCURVE",
"136 440 CURVE SMOOTH",
"110 414 LINE SMOOTH",
"105 409 OFFCURVE",
"105 401 OFFCURVE",
"110 396 CURVE SMOOTH",
"170 336 LINE",
"159 320 OFFCURVE",
"151 301 OFFCURVE",
"147 281 CURVE",
"63 281 LINE SMOOTH",
"56 281 OFFCURVE",
"50 276 OFFCURVE",
"50 269 CURVE SMOOTH",
"50 231 LINE SMOOTH",
"50 224 OFFCURVE",
"56 219 OFFCURVE",
"63 219 CURVE SMOOTH",
"147 219 LINE",
"151 199 OFFCURVE",
"159 180 OFFCURVE",
"170 164 CURVE",
"110 104 LINE SMOOTH",
"105 99 OFFCURVE",
"105 91 OFFCURVE",
"110 86 CURVE SMOOTH",
"136 60 LINE SMOOTH",
"141 55 OFFCURVE",
"149 55 OFFCURVE",
"154 60 CURVE SMOOTH",
"214 120 LINE",
"230 109 OFFCURVE",
"249 101 OFFCURVE",
"269 97 CURVE",
"269 13 LINE SMOOTH",
"269 6 OFFCURVE",
"274 0 OFFCURVE",
"281 0 CURVE SMOOTH",
"319 0 LINE SMOOTH",
"326 0 OFFCURVE",
"331 6 OFFCURVE",
"331 13 CURVE SMOOTH",
"331 97 LINE",
"351 101 OFFCURVE",
"370 109 OFFCURVE",
"386 120 CURVE",
"446 60 LINE SMOOTH",
"451 55 OFFCURVE",
"459 55 OFFCURVE",
"464 60 CURVE SMOOTH",
"490 86 LINE SMOOTH",
"495 91 OFFCURVE",
"495 99 OFFCURVE",
"490 104 CURVE SMOOTH",
"430 164 LINE",
"441 180 OFFCURVE",
"449 199 OFFCURVE",
"453 219 CURVE",
"538 219 LINE SMOOTH",
"544 219 OFFCURVE",
"550 224 OFFCURVE",
"550 231 CURVE SMOOTH",
"550 269 LINE SMOOTH",
"550 276 OFFCURVE",
"544 281 OFFCURVE",
"538 281 CURVE SMOOTH"
);
},
{
closed = 1;
nodes = (
"240 141 OFFCURVE",
"191 190 OFFCURVE",
"191 250 CURVE SMOOTH",
"191 310 OFFCURVE",
"240 359 OFFCURVE",
"300 359 CURVE SMOOTH",
"360 359 OFFCURVE",
"409 310 OFFCURVE",
"409 250 CURVE SMOOTH",
"409 190 OFFCURVE",
"360 141 OFFCURVE",
"300 141 CURVE SMOOTH"
);
}
);
width = 600;
}
);
unicode = 006E;
},
{
glyphname = o;
layers = (
{
layerId = "2B2FE4A8-39A2-493B-A970-B9343EE81639";
name = Regular;
paths = (
{
closed = 1;
nodes = (
"162 500 OFFCURVE",
"50 388 OFFCURVE",
"50 250 CURVE SMOOTH",
"50 112 OFFCURVE",
"162 0 OFFCURVE",
"300 0 CURVE SMOOTH",
"438 0 OFFCURVE",
"550 112 OFFCURVE",
"550 250 CURVE SMOOTH",
"550 388 OFFCURVE",
"438 500 OFFCURVE",
"300 500 CURVE SMOOTH"
);
},
{
closed = 1;
nodes = (
"187 45 OFFCURVE",
"95 137 OFFCURVE",
"95 250 CURVE SMOOTH",
"95 363 OFFCURVE",
"187 455 OFFCURVE",
"300 455 CURVE SMOOTH",
"413 455 OFFCURVE",
"505 363 OFFCURVE",
"505 250 CURVE SMOOTH",
"505 137 OFFCURVE",
"413 45 OFFCURVE",
"300 45 CURVE SMOOTH"
);
},
{
closed = 1;
nodes = (
"338 403 LINE",
"338 346 LINE",
"262 346 LINE",
"262 403 LINE"
);
},
{
closed = 1;
nodes = (
"262 95 LINE",
"262 308 LINE",
"338 308 LINE",
"338 95 LINE"
);
}
);
width = 600;
}
);
unicode = 006F;
},
{
glyphname = p;
layers = (
{
layerId = "2B2FE4A8-39A2-493B-A970-B9343EE81639";
name = Regular;
paths = (
{
closed = 1;
nodes = (
"162 500 OFFCURVE",
"50 388 OFFCURVE",
"50 250 CURVE SMOOTH",
"50 112 OFFCURVE",
"162 0 OFFCURVE",
"300 0 CURVE SMOOTH",
"438 0 OFFCURVE",
"550 112 OFFCURVE",
"550 250 CURVE SMOOTH",
"550 388 OFFCURVE",
"438 500 OFFCURVE",
"300 500 CURVE SMOOTH"
);
},
{
closed = 1;
nodes = (
"186 45 OFFCURVE",
"95 137 OFFCURVE",
"95 250 CURVE SMOOTH",
"95 363 OFFCURVE",
"186 455 OFFCURVE",
"300 455 CURVE SMOOTH",
"413 455 OFFCURVE",
"505 363 OFFCURVE",
"505 250 CURVE SMOOTH",
"505 137 OFFCURVE",
"413 45 OFFCURVE",
"300 45 CURVE SMOOTH"
);
},
{
closed = 1;
nodes = (
"200 288 LINE",
"201 345 OFFCURVE",
"239 392 OFFCURVE",
"298 392 CURVE SMOOTH",
"375 392 OFFCURVE",
"399 347 OFFCURVE",
"399 316 CURVE SMOOTH",
"399 277 OFFCURVE",
"379 262 OFFCURVE",
"362 249 CURVE SMOOTH",
"345 236 OFFCURVE",
"338 226 OFFCURVE",
"319 203 CURVE",
"319 192 LINE",
"280 192 LINE",
"280 205 LINE SMOOTH",
"280 241 OFFCURVE",
"295 256 OFFCURVE",
"311 269 CURVE",
"327 281 OFFCURVE",
"338 291 OFFCURVE",
"338 313 CURVE SMOOTH",
"338 337 OFFCURVE",
"324 345 OFFCURVE",
"303 345 CURVE SMOOTH",
"273 345 OFFCURVE",
"260 326 OFFCURVE",
"260 288 CURVE"
);
},
{
closed = 1;
nodes = (
"261 95 LINE",
"261 172 LINE",
"338 172 LINE",
"338 95 LINE"
);
}
);
width = 600;
}
);
unicode = 0070;
},
{
glyphname = q;
lastChange = "2013-04-09 19:51:50 -0300";
layers = (
{
layerId = "2B2FE4A8-39A2-493B-A970-B9343EE81639";
name = Regular;
paths = (
{
closed = 1;
nodes = (
"467 381 LINE",
"473 376 LINE",
"478 374 OFFCURVE",
"480 371 OFFCURVE",
"483 374 CURVE",
"504 392 LINE",
"504 394 OFFCURVE",
"504 399 OFFCURVE",
"501 402 CURVE SMOOTH",
"467 436 LINE SMOOTH",
"465 438 OFFCURVE",
"460 438 OFFCURVE",
"457 438 CURVE",
"439 418 LINE",
"437 415 OFFCURVE",
"439 412 OFFCURVE",
"442 407 CURVE",
"447 402 LINE",
"438 394 LINE",
"403 424 OFFCURVE",
"361 441 OFFCURVE",
"318 445 CURVE",
"318 454 LINE",
"323 454 LINE SMOOTH",
"328 454 OFFCURVE",
"336 461 OFFCURVE",
"336 464 CURVE SMOOTH",
"336 490 LINE SMOOTH",
"336 492 OFFCURVE",
"328 500 OFFCURVE",
"323 500 CURVE SMOOTH",
"277 500 LINE SMOOTH",
"274 500 OFFCURVE",
"264 492 OFFCURVE",
"264 490 CURVE SMOOTH",
"264 464 LINE SMOOTH",
"264 461 OFFCURVE",
"272 454 OFFCURVE",
"277 454 CURVE SMOOTH",
"282 454 LINE",
"282 445 LINE",
"239 441 OFFCURVE",
"197 425 OFFCURVE",
"163 395 CURVE",
"153 405 LINE",
"158 410 LINE",
"161 412 OFFCURVE",
"163 418 OFFCURVE",
"161 420 CURVE SMOOTH",
"143 438 LINE SMOOTH",
"140 441 OFFCURVE",
"135 441 OFFCURVE",
"132 436 CURVE",
"99 405 LINE SMOOTH",
"96 402 OFFCURVE",
"96 397 OFFCURVE",
"96 394 CURVE",
"117 376 LINE",
"120 374 OFFCURVE",
"122 374 OFFCURVE",
"127 379 CURVE SMOOTH",
"132 384 LINE",
"141 374 LINE",
"68 292 OFFCURVE",
"71 165 OFFCURVE",
"150 82 CURVE SMOOTH",
"233 0 OFFCURVE",
"367 0 OFFCURVE",
"449 82 CURVE SMOOTH",
"528 164 OFFCURVE",
"532 290 OFFCURVE",
"460 372 CURVE"
);
},
{
closed = 1;
nodes = (
"354 44 OFFCURVE",
"246 44 OFFCURVE",
"179 111 CURVE SMOOTH",
"109 178 OFFCURVE",
"109 289 OFFCURVE",
"179 356 CURVE SMOOTH",
"246 423 OFFCURVE",
"354 423 OFFCURVE",
"424 356 CURVE SMOOTH",
"491 289 OFFCURVE",
"491 178 OFFCURVE",
"424 111 CURVE SMOOTH"
);
},
{
closed = 1;
nodes = (
"228 363 OFFCURVE",
"171 304 OFFCURVE",
"171 235 CURVE SMOOTH",
"171 162 OFFCURVE",
"228 103 OFFCURVE",
"300 103 CURVE SMOOTH",
"372 103 OFFCURVE",
"429 162 OFFCURVE",
"429 235 CURVE SMOOTH",
"429 304 OFFCURVE",
"372 363 OFFCURVE",
"300 363 CURVE SMOOTH"
);
},
{
closed = 1;
nodes = (
"364 306 LINE",
"328 250 LINE",
"336 237 OFFCURVE",
"333 222 OFFCURVE",
"323 209 CURVE",
"310 196 OFFCURVE",
"290 196 OFFCURVE",
"277 209 CURVE SMOOTH",
"264 222 OFFCURVE",
"264 245 OFFCURVE",
"277 258 CURVE",
"287 265 OFFCURVE",
"300 268 OFFCURVE",
"310 265 CURVE"
);
}
);
width = 600;
}
);
unicode = 0071;
},
{
glyphname = r;
layers = (
{
layerId = "2B2FE4A8-39A2-493B-A970-B9343EE81639";
name = Regular;
paths = (
{
closed = 1;
nodes = (
"187 230 LINE SMOOTH",
"199 230 OFFCURVE",
"207 228 OFFCURVE",
"212 224 CURVE",
"217 221 OFFCURVE",
"291 166 OFFCURVE",
"296 159 CURVE SMOOTH",
"357 73 LINE",
"357 73 OFFCURVE",
"365 58 OFFCURVE",
"367 41 CURVE SMOOTH",
"369 26 OFFCURVE",
"377 5 OFFCURVE",
"393 3 CURVE",
"408 0 OFFCURVE",
"439 13 OFFCURVE",
"439 54 CURVE SMOOTH",
"439 67 OFFCURVE",
"437 75 OFFCURVE",
"428 97 CURVE",
"427 101 OFFCURVE",
"423 113 OFFCURVE",
"421 117 CURVE",
"412 139 LINE",
"400 162 OFFCURVE",
"395 159 OFFCURVE",
"392 186 CURVE",
"415 186 LINE SMOOTH",
"456 186 OFFCURVE",
"484 205 OFFCURVE",
"509 219 CURVE SMOOTH",
"533 233 OFFCURVE",
"545 250 OFFCURVE",
"545 273 CURVE SMOOTH",
"545 292 OFFCURVE",
"538 304 OFFCURVE",
"523 320 CURVE",
"530 330 OFFCURVE",
"532 344 OFFCURVE",
"532 353 CURVE SMOOTH",
"532 363 OFFCURVE",
"529 372 OFFCURVE",
"524 379 CURVE",
"518 386 OFFCURVE",
"511 387 OFFCURVE",
"500 390 CURVE",
"500 395 OFFCURVE",
"499 403 OFFCURVE",
"499 405 CURVE SMOOTH",
"499 431 OFFCURVE",
"485 441 OFFCURVE",
"455 444 CURVE",
"456 447 OFFCURVE",
"455 454 OFFCURVE",
"455 455 CURVE SMOOTH",
"455 484 OFFCURVE",
"415 500 OFFCURVE",
"377 499 CURVE",
"364 495 OFFCURVE",
"356 483 OFFCURVE",
"356 483 CURVE",
"338 488 OFFCURVE",
"296 486 OFFCURVE",
"260 474 CURVE",
"245 468 OFFCURVE",
"235 465 OFFCURVE",
"224 456 CURVE",
"216 450 OFFCURVE",
"209 446 OFFCURVE",
"195 431 CURVE",
"76 426 LINE",
"63 393 OFFCURVE",
"56 360 OFFCURVE",
"56 328 CURVE SMOOTH",
"56 294 OFFCURVE",
"63 254 OFFCURVE",
"78 230 CURVE"
);
}
);
width = 600;
}
);
unicode = 0072;
},
{
glyphname = s;
layers = (
{
layerId = "2B2FE4A8-39A2-493B-A970-B9343EE81639";
name = Regular;
paths = (
{
closed = 1;
nodes = (
"225 414 LINE",
"226 426 LINE",
"226 467 OFFCURVE",
"193 500 OFFCURVE",
"152 500 CURVE SMOOTH",
"111 500 OFFCURVE",
"78 467 OFFCURVE",
"78 426 CURVE SMOOTH",
"78 385 OFFCURVE",
"111 352 OFFCURVE",
"152 352 CURVE SMOOTH",
"175 352 OFFCURVE",
"196 362 OFFCURVE",
"209 379 CURVE",
"379 285 LINE",
"376 277 OFFCURVE",
"374 268 OFFCURVE",
"374 259 CURVE SMOOTH",
"374 249 OFFCURVE",
"376 240 OFFCURVE",
"379 231 CURVE",
"203 127 LINE",
"190 140 OFFCURVE",
"172 148 OFFCURVE",
"152 148 CURVE SMOOTH",
"111 148 OFFCURVE",
"78 115 OFFCURVE",
"78 74 CURVE SMOOTH",
"78 33 OFFCURVE",
"111 0 OFFCURVE",
"152 0 CURVE SMOOTH",
"193 0 OFFCURVE",
"226 33 OFFCURVE",
"226 74 CURVE SMOOTH",
"226 81 OFFCURVE",
"225 87 OFFCURVE",
"223 93 CURVE",
"404 200 LINE",
"416 190 OFFCURVE",
"431 185 OFFCURVE",
"448 185 CURVE SMOOTH",
"489 185 OFFCURVE",
"522 218 OFFCURVE",
"522 259 CURVE SMOOTH",
"522 300 OFFCURVE",
"489 333 OFFCURVE",
"448 333 CURVE SMOOTH",
"431 333 OFFCURVE",
"415 327 OFFCURVE",
"402 317 CURVE"
);
}
);
width = 600;
}
);
unicode = 0073;
},
{
glyphname = t;
layers = (
{
layerId = "2B2FE4A8-39A2-493B-A970-B9343EE81639";
name = Regular;
paths = (
{
closed = 1;
nodes = (
"141 483 LINE SMOOTH",
"141 492 OFFCURVE",
"131 498 OFFCURVE",
"123 498 CURVE SMOOTH",
"116 498 OFFCURVE",
"106 492 OFFCURVE",
"106 483 CURVE SMOOTH",
"106 14 LINE SMOOTH",
"106 6 OFFCURVE",
"116 0 OFFCURVE",
"123 0 CURVE SMOOTH",
"131 0 OFFCURVE",
"141 6 OFFCURVE",
"141 14 CURVE SMOOTH",
"141 225 LINE",
"271 172 OFFCURVE",
"356 305 OFFCURVE",
"489 234 CURVE",
"489 464 LINE",
"356 535 OFFCURVE",
"271 403 OFFCURVE",
"141 456 CURVE"
);
}
);
width = 600;
}
);
unicode = 0074;
},
{
glyphname = u;
layers = (
{
layerId = "2B2FE4A8-39A2-493B-A970-B9343EE81639";
name = Regular;
paths = (
{
closed = 1;
nodes = (
"414 275 LINE SMOOTH",
"403 275 OFFCURVE",
"395 274 OFFCURVE",
"390 278 CURVE",
"384 282 OFFCURVE",
"311 336 OFFCURVE",
"305 342 CURVE",
"244 427 LINE",
"244 427 OFFCURVE",
"236 442 OFFCURVE",
"234 459 CURVE",
"233 474 OFFCURVE",
"225 495 OFFCURVE",
"209 497 CURVE",
"193 500 OFFCURVE",
"162 487 OFFCURVE",
"162 446 CURVE SMOOTH",
"162 433 OFFCURVE",
"165 425 OFFCURVE",
"173 403 CURVE",
"174 399 OFFCURVE",
"178 387 OFFCURVE",
"180 383 CURVE SMOOTH",
"189 366 LINE SMOOTH",
"201 342 OFFCURVE",
"207 342 OFFCURVE",
"210 322 CURVE",
"186 322 LINE SMOOTH",
"145 322 OFFCURVE",
"117 299 OFFCURVE",
"93 286 CURVE SMOOTH",
"68 272 OFFCURVE",
"56 252 OFFCURVE",
"56 229 CURVE SMOOTH",
"56 210 OFFCURVE",
"63 197 OFFCURVE",
"78 181 CURVE",
"72 172 OFFCURVE",
"69 156 OFFCURVE",
"69 148 CURVE SMOOTH",
"69 137 OFFCURVE",
"72 128 OFFCURVE",
"78 121 CURVE",
"83 114 OFFCURVE",
"91 113 OFFCURVE",
"102 110 CURVE",
"101 105 OFFCURVE",
"102 97 OFFCURVE",
"102 95 CURVE SMOOTH",
"102 69 OFFCURVE",
"117 59 OFFCURVE",
"146 56 CURVE",
"146 45 LINE SMOOTH",
"146 16 OFFCURVE",
"187 0 OFFCURVE",
"225 1 CURVE",
"238 5 OFFCURVE",
"246 17 OFFCURVE",
"246 17 CURVE",
"264 12 OFFCURVE",
"306 14 OFFCURVE",
"341 26 CURVE",
"356 32 OFFCURVE",
"367 35 OFFCURVE",
"377 44 CURVE",
"385 50 OFFCURVE",
"392 54 OFFCURVE",
"406 69 CURVE",
"525 74 LINE",
"539 107 OFFCURVE",
"545 142 OFFCURVE",
"545 175 CURVE SMOOTH",
"545 208 OFFCURVE",
"538 228 OFFCURVE",
"523 275 CURVE"
);
}
);
width = 600;
}
);
unicode = 0075;
},
{
glyphname = v;
layers = (
{
layerId = "2B2FE4A8-39A2-493B-A970-B9343EE81639";
name = Regular;
paths = (
{
closed = 1;
nodes = (
"567 439 OFFCURVE",
"506 500 OFFCURVE",
"431 500 CURVE SMOOTH",
"366 500 OFFCURVE",
"312 455 OFFCURVE",
"298 395 CURVE",
"284 455 OFFCURVE",
"229 500 OFFCURVE",
"165 500 CURVE SMOOTH",
"89 500 OFFCURVE",
"28 439 OFFCURVE",
"28 364 CURVE SMOOTH",
"28 343 OFFCURVE",
"33 323 OFFCURVE",
"41 305 CURVE",
"65 245 OFFCURVE",
"121 186 OFFCURVE",
"167 147 CURVE SMOOTH",
"220 102 OFFCURVE",
"282 23 OFFCURVE",
"296 4 CURVE",
"319 23 OFFCURVE",
"374 102 OFFCURVE",
"428 147 CURVE SMOOTH",
"489 198 OFFCURVE",
"570 286 OFFCURVE",
"567 364 CURVE"
);
},
{
closed = 1;
nodes = (
"293 2 LINE",
"293 0 LINE",
"293 0 OFFCURVE",
"295 0 OFFCURVE",
"296 1 CURVE",
"298 0 LINE",
"298 2 LINE SMOOTH",
"298 3 OFFCURVE",
"297 4 OFFCURVE",
"296 5 CURVE"
);
}
);
width = 600;
}
);
unicode = 0076;
},
{
glyphname = w;
layers = (
{
layerId = "2B2FE4A8-39A2-493B-A970-B9343EE81639";
name = Regular;
paths = (
{
closed = 1;
nodes = (
"439 3 OFFCURVE",
"321 102 OFFCURVE",
"302 102 CURVE SMOOTH",
"283 102 OFFCURVE",
"166 0 OFFCURVE",
"151 12 CURVE",
"135 23 OFFCURVE",
"189 171 OFFCURVE",
"183 190 CURVE SMOOTH",
"177 209 OFFCURVE",
"48 292 OFFCURVE",
"54 311 CURVE",
"59 330 OFFCURVE",
"211 323 OFFCURVE",
"226 335 CURVE",
"242 346 OFFCURVE",
"278 500 OFFCURVE",
"297 500 CURVE SMOOTH",
"317 500 OFFCURVE",
"356 348 OFFCURVE",
"372 336 CURVE",
"388 325 OFFCURVE",
"539 336 OFFCURVE",
"545 317 CURVE SMOOTH",
"551 298 OFFCURVE",
"424 212 OFFCURVE",
"419 193 CURVE",
"413 174 OFFCURVE",
"470 27 OFFCURVE",
"455 15 CURVE SMOOTH"
);
}
);
width = 600;
}
);
unicode = 0077;
},
{
glyphname = x;
layers = (
{
layerId = "2B2FE4A8-39A2-493B-A970-B9343EE81639";
name = Regular;
paths = (
{
closed = 1;
nodes = (
"466 500 LINE",
"466 0 LINE",
"304 94 LINE",
"134 0 LINE",
"134 500 LINE"
);
}
);
width = 600;
}
);
unicode = 0078;
},
{
glyphname = y;
layers = (
{
layerId = "2B2FE4A8-39A2-493B-A970-B9343EE81639";
name = Regular;
paths = (
{
closed = 1;
nodes = (
"38 443 LINE SMOOTH",
"17 443 OFFCURVE",
"0 426 OFFCURVE",
"0 405 CURVE SMOOTH",
"0 95 LINE SMOOTH",
"0 74 OFFCURVE",
"17 57 OFFCURVE",
"38 57 CURVE SMOOTH",
"562 57 LINE SMOOTH",
"583 57 OFFCURVE",
"600 74 OFFCURVE",
"600 95 CURVE SMOOTH",
"600 405 LINE SMOOTH",
"600 426 OFFCURVE",
"583 443 OFFCURVE",
"562 443 CURVE SMOOTH"
);
},
{
closed = 1;
nodes = (
"273 400 LINE",
"273 121 LINE",
"233 121 LINE",
"233 122 OFFCURVE",
"233 123 OFFCURVE",
"233 124 CURVE SMOOTH",
"233 127 LINE",
"233 128 LINE SMOOTH",
"233 150 OFFCURVE",
"221 192 OFFCURVE",
"196 192 CURVE SMOOTH",
"169 192 LINE",
"170 200 LINE",
"194 209 OFFCURVE",
"211 233 OFFCURVE",
"211 261 CURVE SMOOTH",
"211 297 OFFCURVE",
"184 326 OFFCURVE",
"150 326 CURVE SMOOTH",
"117 326 OFFCURVE",
"89 297 OFFCURVE",
"89 261 CURVE SMOOTH",
"89 233 OFFCURVE",
"106 210 OFFCURVE",
"130 201 CURVE",
"130 198 OFFCURVE",
"130 192 OFFCURVE",
"131 192 CURVE",
"107 192 LINE SMOOTH",
"87 192 OFFCURVE",
"69 165 OFFCURVE",
"69 138 CURVE",
"68 135 OFFCURVE",
"67 132 OFFCURVE",
"67 129 CURVE SMOOTH",
"67 127 OFFCURVE",
"67 126 OFFCURVE",
"67 124 CURVE SMOOTH",
"67 121 LINE",
"31 121 LINE",
"31 400 LINE"
);
},
{
closed = 1;
nodes = (
"557 400 LINE",
"557 321 LINE",
"300 321 LINE",
"300 400 LINE"
);
},
{
closed = 1;
nodes = (
"300 225 LINE",
"300 268 LINE",
"386 268 LINE",
"386 225 LINE"
);
},
{
closed = 1;
nodes = (
"557 268 LINE",
"557 225 LINE",
"429 225 LINE",
"429 268 LINE"
);
},
{
closed = 1;
nodes = (
"557 169 LINE",
"557 116 LINE",
"300 116 LINE",
"300 169 LINE"
);
}
);
width = 600;
}
);
unicode = 0079;
},
{
glyphname = z;
layers = (
{
layerId = "2B2FE4A8-39A2-493B-A970-B9343EE81639";
name = Regular;
paths = (
{
closed = 1;
nodes = (
"150 160 LINE",
"150 229 LINE",
"319 420 LINE",
"156 420 LINE",
"156 500 LINE",
"450 500 LINE",
"450 431 LINE",
"279 240 LINE",
"450 240 LINE",
"450 160 LINE"
);
},
{
closed = 1;
nodes = (
"151 0 LINE",
"151 64 LINE",
"450 64 LINE",
"450 0 LINE",
"385 0 LINE",
"385 -124 LINE",
"255 0 LINE"
);
}
);
width = 600;
}
);
unicode = 007A;
},
{
glyphname = zero;
layers = (
{
layerId = "2B2FE4A8-39A2-493B-A970-B9343EE81639";
name = Regular;
paths = (
{
closed = 1;
nodes = (
"600 444 LINE SMOOTH",
"600 465 OFFCURVE",
"579 486 OFFCURVE",
"557 486 CURVE SMOOTH",
"43 486 LINE SMOOTH",
"21 486 OFFCURVE",
"0 465 OFFCURVE",
"0 444 CURVE SMOOTH",
"0 58 LINE SMOOTH",
"0 36 OFFCURVE",
"21 15 OFFCURVE",
"43 15 CURVE SMOOTH",
"557 15 LINE SMOOTH",
"579 15 OFFCURVE",
"600 36 OFFCURVE",
"600 58 CURVE SMOOTH"
);
},
{
closed = 1;
nodes = (
"64 336 LINE",
"64 422 LINE",
"171 422 LINE",
"171 336 LINE"
);
},
{
closed = 1;
nodes = (
"193 336 LINE",
"193 422 LINE",
"407 422 LINE",
"407 336 LINE"
);
},
{
closed = 1;
nodes = (
"536 422 LINE",
"536 336 LINE",
"450 336 LINE",
"450 422 LINE"
);
},
{
closed = 1;
nodes = (
"300 294 LINE",
"300 79 LINE",
"64 79 LINE",
"64 294 LINE"
);
},
{
closed = 1;
nodes = (
"536 294 LINE",
"536 251 LINE",
"343 251 LINE",
"343 294 LINE"
);
},
{
closed = 1;
nodes = (
"471 229 LINE",
"471 186 LINE",
"343 186 LINE",
"343 229 LINE"
);
},
{
closed = 1;
nodes = (
"343 144 LINE",
"514 144 LINE",
"514 101 LINE",
"343 101 LINE"
);
}
);
width = 600;
}
);
unicode = 0030;
},
{
glyphname = one;
lastChange = "2013-05-27 23:37:23 -0300";
layers = (
{
layerId = "2B2FE4A8-39A2-493B-A970-B9343EE81639";
name = Regular;
paths = (
{
closed = 1;
nodes = (
"208 500 OFFCURVE",
"142 435 OFFCURVE",
"142 356 CURVE SMOOTH",
"142 315 OFFCURVE",
"156 283 OFFCURVE",
"186 250 CURVE",
"195 192 OFFCURVE",
"237 133 OFFCURVE",
"300 133 CURVE SMOOTH",
"364 133 OFFCURVE",
"406 192 OFFCURVE",
"414 250 CURVE",
"444 283 OFFCURVE",
"458 315 OFFCURVE",
"458 356 CURVE SMOOTH",
"458 435 OFFCURVE",
"392 500 OFFCURVE",
"300 500 CURVE SMOOTH"
);
},
{
closed = 1;
nodes = (
"234 293 LINE SMOOTH",
"233 295 OFFCURVE",
"235 298 OFFCURVE",
"240 299 CURVE",
"244 300 OFFCURVE",
"249 299 OFFCURVE",
"250 296 CURVE",
"289 218 LINE",
"293 218 OFFCURVE",
"297 218 OFFCURVE",
"300 218 CURVE SMOOTH",
"310 218 LINE",
"349 296 LINE",
"351 299 OFFCURVE",
"356 300 OFFCURVE",
"361 299 CURVE SMOOTH",
"366 298 OFFCURVE",
"368 295 OFFCURVE",
"367 293 CURVE SMOOTH",
"328 216 LINE",
"353 213 OFFCURVE",
"370 206 OFFCURVE",
"370 197 CURVE SMOOTH",
"370 185 OFFCURVE",
"339 177 OFFCURVE",
"300 177 CURVE SMOOTH",
"261 177 OFFCURVE",
"229 185 OFFCURVE",
"229 197 CURVE SMOOTH",
"229 206 OFFCURVE",
"247 213 OFFCURVE",
"272 216 CURVE"
);
},
{
closed = 1;
nodes = (
"221 64 LINE SMOOTH",
"221 48 OFFCURVE",
"240 34 OFFCURVE",
"268 28 CURVE",
"268 15 LINE SMOOTH",
"268 7 OFFCURVE",
"276 0 OFFCURVE",
"285 0 CURVE SMOOTH",
"315 0 LINE SMOOTH",
"325 0 OFFCURVE",
"332 7 OFFCURVE",
"332 15 CURVE SMOOTH",
"332 28 LINE",
"361 34 OFFCURVE",
"379 48 OFFCURVE",
"379 64 CURVE SMOOTH",
"379 120 LINE",
"357 102 OFFCURVE",
"330 92 OFFCURVE",
"300 92 CURVE SMOOTH",
"270 92 OFFCURVE",
"242 102 OFFCURVE",
"221 120 CURVE"
);
},
{
closed = 1;
nodes = (
"365 69 LINE",
"365 69 OFFCURVE",
"340 49 OFFCURVE",
"300 49 CURVE SMOOTH",
"261 49 OFFCURVE",
"236 69 OFFCURVE",
"236 69 CURVE",
"236 91 LINE",
"236 91 OFFCURVE",
"267 70 OFFCURVE",
"300 70 CURVE SMOOTH",
"333 70 OFFCURVE",
"365 91 OFFCURVE",
"365 91 CURVE"
);
}
);
width = 600;
}
);
unicode = 0031;
},
{
glyphname = two;
layers = (
{
layerId = "2B2FE4A8-39A2-493B-A970-B9343EE81639";
name = Regular;
paths = (
{
closed = 1;
nodes = (
"509 211 LINE",
"509 82 OFFCURVE",
"415 0 OFFCURVE",
"299 0 CURVE SMOOTH",
"184 0 OFFCURVE",
"90 93 OFFCURVE",
"90 209 CURVE SMOOTH",
"90 324 OFFCURVE",
"180 418 OFFCURVE",
"295 418 CURVE SMOOTH",
"297 418 OFFCURVE",
"299 418 OFFCURVE",
"300 418 CURVE",
"300 483 LINE SMOOTH",
"300 493 OFFCURVE",
"307 500 OFFCURVE",
"317 495 CURVE",
"325 490 OFFCURVE",
"439 399 OFFCURVE",
"453 390 CURVE",
"462 385 OFFCURVE",
"463 373 OFFCURVE",
"454 368 CURVE SMOOTH",
"444 362 OFFCURVE",
"327 270 OFFCURVE",
"315 264 CURVE",
"307 259 OFFCURVE",
"300 264 OFFCURVE",
"300 275 CURVE SMOOTH",
"300 278 OFFCURVE",
"300 305 OFFCURVE",
"300 338 CURVE",
"295 338 LINE SMOOTH",
"225 338 OFFCURVE",
"171 281 OFFCURVE",
"171 209 CURVE SMOOTH",
"171 138 OFFCURVE",
"228 81 OFFCURVE",
"299 81 CURVE SMOOTH",
"371 81 OFFCURVE",
"428 137 OFFCURVE",
"428 211 CURVE"
);
}
);
width = 600;
}
);
unicode = 0032;
},
{
glyphname = three;
layers = (
{
layerId = "2B2FE4A8-39A2-493B-A970-B9343EE81639";
name = Regular;
paths = (
{
closed = 1;
nodes = (
"587 389 LINE",
"587 435 LINE",
"566 456 LINE",
"540 483 LINE",
"493 483 LINE",
"422 412 LINE",
"422 500 LINE",
"127 500 LINE",
"13 386 LINE",
"13 0 LINE",
"422 0 LINE",
"422 225 LINE"
);
},
{
closed = 1;
nodes = (
"377 179 LINE",
"377 45 LINE",
"59 45 LINE",
"59 364 LINE",
"149 455 LINE",
"377 455 LINE",
"377 366 LINE",
"283 272 LINE",
"240 136 LINE",
"376 179 LINE"
);
},
{
closed = 1;
nodes = (
"331 359 LINE",
"331 381 LINE",
"127 381 LINE",
"127 359 LINE"
);
},
{
closed = 1;
nodes = (
"240 292 LINE",
"240 315 LINE",
"127 315 LINE",
"127 292 LINE"
);
},
{
closed = 1;
nodes = (
"365 214 LINE",
"370 198 LINE",
"314 178 LINE",
"282 210 LINE",
"302 266 LINE",
"318 261 LINE",
"329 225 LINE"
);
},
{
closed = 1;
nodes = (
"240 227 LINE",
"240 250 LINE",
"127 250 LINE",
"127 227 LINE"
);
},
{
closed = 1;
nodes = (
"218 159 LINE",
"218 182 LINE",
"127 182 LINE",
"127 159 LINE"
);
},
{
closed = 1;
nodes = (
"127 114 LINE",
"127 91 LINE",
"331 91 LINE",
"331 114 LINE"
);
}
);
width = 600;
}
);
unicode = 0033;
},
{
glyphname = four;
layers = (
{
layerId = "2B2FE4A8-39A2-493B-A970-B9343EE81639";
name = Regular;
paths = (
{
closed = 1;
nodes = (
"96 500 LINE SMOOTH",
"71 500 OFFCURVE",
"50 479 OFFCURVE",
"50 454 CURVE SMOOTH",
"50 46 LINE SMOOTH",
"50 21 OFFCURVE",
"71 0 OFFCURVE",
"96 0 CURVE SMOOTH",
"504 0 LINE SMOOTH",
"529 0 OFFCURVE",
"550 21 OFFCURVE",
"550 46 CURVE SMOOTH",
"550 454 LINE SMOOTH",
"550 479 OFFCURVE",
"529 500 OFFCURVE",
"504 500 CURVE SMOOTH"
);
},
{
closed = 1;
nodes = (
"488 438 LINE",
"488 63 LINE",
"113 63 LINE",
"113 438 LINE"
);
},
{
closed = 1;
nodes = (
"223 177 LINE",
"224 176 OFFCURVE",
"224 176 OFFCURVE",
"224 175 CURVE",
"239 159 LINE SMOOTH",
"245 153 OFFCURVE",
"253 149 OFFCURVE",
"261 149 CURVE SMOOTH",
"263 149 LINE SMOOTH",
"271 149 OFFCURVE",
"279 152 OFFCURVE",
"285 157 CURVE SMOOTH",
"301 171 LINE",
"303 173 OFFCURVE",
"304 175 OFFCURVE",
"305 176 CURVE",
"446 307 LINE SMOOTH",
"459 319 OFFCURVE",
"460 340 OFFCURVE",
"448 353 CURVE SMOOTH",
"434 369 LINE SMOOTH",
"428 376 OFFCURVE",
"419 379 OFFCURVE",
"410 379 CURVE SMOOTH",
"402 379 OFFCURVE",
"394 376 OFFCURVE",
"388 371 CURVE",
"266 257 LINE",
"237 289 LINE",
"230 296 OFFCURVE",
"222 300 OFFCURVE",
"213 300 CURVE SMOOTH",
"205 300 OFFCURVE",
"197 297 OFFCURVE",
"191 291 CURVE",
"175 277 LINE",
"169 271 OFFCURVE",
"165 263 OFFCURVE",
"165 255 CURVE",
"164 246 OFFCURVE",
"167 238 OFFCURVE",
"173 231 CURVE"
);
}
);
width = 600;
}
);
unicode = 0034;
},
{
glyphname = five;
layers = (
{
layerId = "2B2FE4A8-39A2-493B-A970-B9343EE81639";
name = Regular;
paths = (
{
closed = 1;
nodes = (
"529 205 LINE",
"303 500 LINE",
"302 498 LINE",
"301 500 LINE",
"74 205 LINE",
"197 205 LINE",
"197 198 LINE",
"197 0 LINE",
"403 0 LINE",
"403 198 LINE",
"403 205 LINE"
);
}
);
width = 600;
}
);
unicode = 0035;
},
{
glyphname = six;
layers = (
{
layerId = "2B2FE4A8-39A2-493B-A970-B9343EE81639";
name = Regular;
paths = (
{
closed = 1;
nodes = (
"74 294 LINE",
"302 1 LINE",
"303 5 LINE",
"304 0 LINE",
"532 294 LINE",
"405 294 LINE",
"405 308 LINE",
"405 500 LINE",
"198 500 LINE",
"198 308 LINE",
"198 294 LINE"
);
}
);
width = 600;
}
);
unicode = 0036;
},
{
glyphname = seven;
layers = (
{
layerId = "2B2FE4A8-39A2-493B-A970-B9343EE81639";
name = Regular;
paths = (
{
closed = 1;
nodes = (
"252 0 LINE",
"571 249 LINE",
"567 250 LINE",
"573 251 LINE",
"252 500 LINE",
"252 365 LINE",
"236 365 LINE",
"27 365 LINE",
"27 140 LINE",
"236 140 LINE",
"252 140 LINE"
);
}
);
width = 600;
}
);
unicode = 0037;
},
{
glyphname = eight;
layers = (
{
layerId = "2B2FE4A8-39A2-493B-A970-B9343EE81639";
name = Regular;
paths = (
{
closed = 1;
nodes = (
"345 500 LINE",
"29 251 LINE",
"34 250 LINE",
"27 249 LINE",
"345 0 LINE",
"345 140 LINE",
"367 140 LINE",
"571 140 LINE",
"571 365 LINE",
"367 365 LINE",
"345 365 LINE"
);
}
);
width = 600;
}
);
unicode = 0038;
},
{
glyphname = nine;
layers = (
{
layerId = "2B2FE4A8-39A2-493B-A970-B9343EE81639";
name = Regular;
paths = (
{
closed = 1;
nodes = (
"320 517 LINE",
"320 582 LINE SMOOTH",
"320 590 OFFCURVE",
"311 600 OFFCURVE",
"298 600 CURVE SMOOTH",
"289 600 OFFCURVE",
"280 590 OFFCURVE",
"280 582 CURVE SMOOTH",
"280 517 LINE",
"284 517 OFFCURVE",
"293 517 OFFCURVE",
"298 517 CURVE SMOOTH"
);
},
{
closed = 1;
nodes = (
"456 533 LINE SMOOTH",
"460 541 OFFCURVE",
"460 554 OFFCURVE",
"446 559 CURVE",
"438 564 OFFCURVE",
"428 564 OFFCURVE",
"420 551 CURVE SMOOTH",
"390 500 LINE",
"404 490 OFFCURVE",
"413 486 OFFCURVE",
"426 477 CURVE"
);
},
{
closed = 1;
nodes = (
"174 477 LINE",
"182 486 OFFCURVE",
"196 490 OFFCURVE",
"210 500 CURVE",
"176 551 LINE SMOOTH",
"169 562 OFFCURVE",
"158 564 OFFCURVE",
"149 559 CURVE SMOOTH",
"140 554 OFFCURVE",
"138 543 OFFCURVE",
"144 533 CURVE"
);
},
{
closed = 1;
nodes = (
"107 388 LINE",
"112 402 OFFCURVE",
"116 416 OFFCURVE",
"125 424 CURVE",
"67 456 LINE",
"57 462 OFFCURVE",
"46 460 OFFCURVE",
"41 451 CURVE SMOOTH",
"36 442 OFFCURVE",
"37 429 OFFCURVE",
"46 424 CURVE SMOOTH"
);
},
{
closed = 1;
nodes = (
"474 423 LINE",
"479 415 OFFCURVE",
"487 401 OFFCURVE",
"492 387 CURVE",
"551 424 LINE SMOOTH",
"559 429 OFFCURVE",
"564 442 OFFCURVE",
"559 451 CURVE",
"551 460 OFFCURVE",
"543 462 OFFCURVE",
"533 456 CURVE SMOOTH"
);
},
{
closed = 1;
nodes = (
"216 451 OFFCURVE",
"158 392 OFFCURVE",
"158 320 CURVE SMOOTH",
"158 284 OFFCURVE",
"167 257 OFFCURVE",
"194 226 CURVE",
"203 172 OFFCURVE",
"244 122 OFFCURVE",
"298 122 CURVE SMOOTH",
"356 122 OFFCURVE",
"392 172 OFFCURVE",
"402 226 CURVE",
"428 257 OFFCURVE",
"442 284 OFFCURVE",
"442 320 CURVE SMOOTH",
"442 392 OFFCURVE",
"384 451 OFFCURVE",
"298 451 CURVE SMOOTH"
);
},
{
closed = 1;
nodes = (
"18 320 LINE SMOOTH",
"10 320 OFFCURVE",
"0 311 OFFCURVE",
"0 302 CURVE SMOOTH",
"0 289 OFFCURVE",
"10 280 OFFCURVE",
"18 280 CURVE SMOOTH",
"88 280 LINE",
"83 293 OFFCURVE",
"79 307 OFFCURVE",
"79 320 CURVE"
);
},
{
closed = 1;
nodes = (
"509 320 LINE",
"509 307 OFFCURVE",
"509 293 OFFCURVE",
"504 280 CURVE",
"577 280 LINE SMOOTH",
"590 280 OFFCURVE",
"600 289 OFFCURVE",
"600 302 CURVE SMOOTH",
"600 311 OFFCURVE",
"590 320 OFFCURVE",
"577 320 CURVE SMOOTH"
);
},
{
closed = 1;
nodes = (
"239 266 LINE",
"239 266 OFFCURVE",
"239 271 OFFCURVE",
"244 271 CURVE SMOOTH",
"248 271 OFFCURVE",
"253 271 OFFCURVE",
"253 266 CURVE",
"289 198 LINE",
"293 198 OFFCURVE",
"298 198 OFFCURVE",
"298 198 CURVE",
"307 198 LINE",
"343 266 LINE",
"343 271 OFFCURVE",
"347 271 OFFCURVE",
"352 271 CURVE SMOOTH",
"356 271 OFFCURVE",
"361 266 OFFCURVE",
"361 266 CURVE",
"325 194 LINE",
"347 194 OFFCURVE",
"361 185 OFFCURVE",
"361 176 CURVE SMOOTH",
"361 167 OFFCURVE",
"334 158 OFFCURVE",
"298 158 CURVE SMOOTH",
"262 158 OFFCURVE",
"234 167 OFFCURVE",
"234 176 CURVE SMOOTH",
"234 185 OFFCURVE",
"253 194 OFFCURVE",
"275 194 CURVE"
);
},
{
closed = 1;
nodes = (
"226 59 LINE SMOOTH",
"226 46 OFFCURVE",
"244 31 OFFCURVE",
"271 28 CURVE",
"271 13 LINE SMOOTH",
"271 5 OFFCURVE",
"275 0 OFFCURVE",
"284 0 CURVE SMOOTH",
"311 0 LINE SMOOTH",
"320 0 OFFCURVE",
"329 5 OFFCURVE",
"329 13 CURVE SMOOTH",
"329 28 LINE",
"352 31 OFFCURVE",
"370 46 OFFCURVE",
"370 59 CURVE SMOOTH",
"370 108 LINE",
"352 90 OFFCURVE",
"325 82 OFFCURVE",
"298 82 CURVE SMOOTH",
"271 82 OFFCURVE",
"248 90 OFFCURVE",
"226 108 CURVE"
);
},
{
closed = 1;
nodes = (
"356 64 LINE",
"356 64 OFFCURVE",
"334 46 OFFCURVE",
"298 46 CURVE SMOOTH",
"262 46 OFFCURVE",
"239 64 OFFCURVE",
"239 64 CURVE",
"239 82 LINE",
"239 82 OFFCURVE",
"271 64 OFFCURVE",
"298 64 CURVE SMOOTH",
"329 64 OFFCURVE",
"356 82 OFFCURVE",
"356 82 CURVE"
);
}
);
width = 600;
}
);
unicode = 0039;
},
{
glyphname = backslash;
lastChange = "2012-12-11 13:36:19 -0300";
layers = (
{
layerId = "2B2FE4A8-39A2-493B-A970-B9343EE81639";
name = Regular;
paths = (
{
closed = 1;
nodes = (
"162 500 OFFCURVE",
"50 388 OFFCURVE",
"50 250 CURVE SMOOTH",
"50 112 OFFCURVE",
"162 0 OFFCURVE",
"300 0 CURVE SMOOTH",
"438 0 OFFCURVE",
"550 112 OFFCURVE",
"550 250 CURVE SMOOTH",
"550 388 OFFCURVE",
"438 500 OFFCURVE",
"300 500 CURVE SMOOTH"
);
},
{
closed = 1;
nodes = (
"360 190 LINE",
"360 135 LINE SMOOTH",
"360 102 OFFCURVE",
"333 75 OFFCURVE",
"300 75 CURVE SMOOTH",
"267 75 OFFCURVE",
"240 102 OFFCURVE",
"240 135 CURVE SMOOTH",
"240 190 LINE",
"185 190 LINE SMOOTH",
"152 190 OFFCURVE",
"125 217 OFFCURVE",
"125 250 CURVE SMOOTH",
"125 283 OFFCURVE",
"152 310 OFFCURVE",
"185 310 CURVE SMOOTH",
"240 310 LINE",
"240 365 LINE SMOOTH",
"240 398 OFFCURVE",
"267 425 OFFCURVE",
"300 425 CURVE SMOOTH",
"333 425 OFFCURVE",
"360 398 OFFCURVE",
"360 365 CURVE SMOOTH",
"360 310 LINE",
"415 310 LINE SMOOTH",
"448 310 OFFCURVE",
"475 283 OFFCURVE",
"475 250 CURVE SMOOTH",
"475 217 OFFCURVE",
"448 190 OFFCURVE",
"415 190 CURVE SMOOTH"
);
}
);
width = 600;
}
);
unicode = 005C;
},
{
glyphname = bullet;
layers = (
{
layerId = "2B2FE4A8-39A2-493B-A970-B9343EE81639";
name = Regular;
paths = (
{
closed = 1;
nodes = (
"162 500 OFFCURVE",
"50 388 OFFCURVE",
"50 250 CURVE SMOOTH",
"50 112 OFFCURVE",
"162 0 OFFCURVE",
"300 0 CURVE SMOOTH",
"438 0 OFFCURVE",
"550 112 OFFCURVE",
"550 250 CURVE SMOOTH",
"550 388 OFFCURVE",
"438 500 OFFCURVE",
"300 500 CURVE SMOOTH"
);
},
{
closed = 1;
nodes = (
"299 196 LINE",
"230 127 LINE SMOOTH",
"215 112 OFFCURVE",
"190 112 OFFCURVE",
"174 128 CURVE SMOOTH",
"159 143 OFFCURVE",
"159 168 OFFCURVE",
"174 183 CURVE SMOOTH",
"243 252 LINE",
"178 317 LINE SMOOTH",
"163 332 OFFCURVE",
"163 357 OFFCURVE",
"178 372 CURVE SMOOTH",
"193 388 OFFCURVE",
"218 388 OFFCURVE",
"234 372 CURVE SMOOTH",
"298 308 LINE",
"366 375 LINE SMOOTH",
"382 391 OFFCURVE",
"407 390 OFFCURVE",
"422 375 CURVE SMOOTH",
"437 360 OFFCURVE",
"438 335 OFFCURVE",
"422 319 CURVE SMOOTH",
"354 252 LINE",
"426 180 LINE SMOOTH",
"441 165 OFFCURVE",
"441 140 OFFCURVE",
"426 125 CURVE SMOOTH",
"410 110 OFFCURVE",
"386 110 OFFCURVE",
"370 125 CURVE SMOOTH"
);
}
);
width = 600;
}
);
unicode = 2022;
},
{
glyphname = colon;
layers = (
{
layerId = "2B2FE4A8-39A2-493B-A970-B9343EE81639";
name = Regular;
paths = (
{
closed = 1;
nodes = (
"472 260 LINE",
"441 302 LINE",
"481 335 LINE",
"436 361 LINE",
"459 407 LINE",
"407 412 LINE",
"409 464 LINE",
"360 448 LINE",
"341 496 LINE",
"302 461 LINE",
"265 497 LINE",
"244 449 LINE",
"195 468 LINE",
"195 416 LINE",
"144 412 LINE",
"166 365 LINE",
"120 341 LINE",
"159 306 LINE",
"126 265 LINE",
"176 250 LINE",
"163 199 LINE",
"215 205 LINE",
"217 190 LINE",
"139 32 LINE",
"186 38 LINE",
"209 -3 LINE",
"287 153 LINE",
"297 137 LINE",
"311 156 LINE",
"390 -3 LINE",
"414 38 LINE",
"460 32 LINE",
"380 194 LINE",
"382 203 LINE",
"433 195 LINE",
"422 246 LINE"
);
},
{
closed = 1;
nodes = (
"238 350 OFFCURVE",
"277 348 OFFCURVE",
"281 351 CURVE SMOOTH",
"285 354 OFFCURVE",
"295 394 OFFCURVE",
"300 394 CURVE SMOOTH",
"305 394 OFFCURVE",
"315 355 OFFCURVE",
"319 352 CURVE SMOOTH",
"323 349 OFFCURVE",
"362 352 OFFCURVE",
"364 347 CURVE",
"365 342 OFFCURVE",
"333 320 OFFCURVE",
"331 315 CURVE",
"330 310 OFFCURVE",
"344 272 OFFCURVE",
"340 269 CURVE SMOOTH",
"336 266 OFFCURVE",
"306 291 OFFCURVE",
"301 291 CURVE SMOOTH",
"296 291 OFFCURVE",
"266 265 OFFCURVE",
"262 268 CURVE SMOOTH",
"258 271 OFFCURVE",
"272 309 OFFCURVE",
"270 314 CURVE",
"269 319 OFFCURVE",
"235 340 OFFCURVE",
"237 345 CURVE"
);
}
);
width = 600;
}
);
unicode = 003A;
},
{
glyphname = comma;
lastChange = "2013-06-07 16:43:30 -0300";
layers = (
{
layerId = "2B2FE4A8-39A2-493B-A970-B9343EE81639";
name = Regular;
paths = (
{
closed = 1;
nodes = (
"438 319 OFFCURVE",
"425 327 OFFCURVE",
"421 323 CURVE SMOOTH",
"417 319 OFFCURVE",
"430 309 OFFCURVE",
"429 283 CURVE",
"425 249 OFFCURVE",
"352 444 OFFCURVE",
"347 442 CURVE SMOOTH",
"342 440 OFFCURVE",
"351 427 OFFCURVE",
"348 399 CURVE SMOOTH",
"345 372 OFFCURVE",
"333 359 OFFCURVE",
"333 359 CURVE SMOOTH",
"333 359 OFFCURVE",
"334 365 OFFCURVE",
"326 419 CURVE SMOOTH",
"317 472 OFFCURVE",
"224 498 OFFCURVE",
"224 498 CURVE SMOOTH",
"224 498 OFFCURVE",
"214 500 OFFCURVE",
"247 450 CURVE SMOOTH",
"273 413 OFFCURVE",
"248 360 OFFCURVE",
"221 320 CURVE",
"215 357 OFFCURVE",
"151 383 OFFCURVE",
"141 378 CURVE",
"150 367 OFFCURVE",
"163 342 OFFCURVE",
"175 311 CURVE SMOOTH",
"188 280 OFFCURVE",
"174 262 OFFCURVE",
"174 262 CURVE",
"171 259 OFFCURVE",
"169 255 OFFCURVE",
"166 251 CURVE",
"151 226 OFFCURVE",
"143 196 OFFCURVE",
"143 164 CURVE SMOOTH",
"143 73 OFFCURVE",
"212 0 OFFCURVE",
"297 0 CURVE SMOOTH",
"373 0 OFFCURVE",
"436 58 OFFCURVE",
"450 134 CURVE SMOOTH",
"458 174 OFFCURVE",
"455 233 OFFCURVE",
"446 279 CURVE SMOOTH"
);
},
{
closed = 1;
nodes = (
"277 90 OFFCURVE",
"224 136 OFFCURVE",
"251 140 CURVE SMOOTH",
"313 149 OFFCURVE",
"302 248 OFFCURVE",
"309 248 CURVE SMOOTH",
"315 248 OFFCURVE",
"366 167 OFFCURVE",
"366 140 CURVE SMOOTH",
"366 112 OFFCURVE",
"340 90 OFFCURVE",
"309 90 CURVE SMOOTH"
);
}
);
width = 600;
}
);
unicode = 002C;
},
{
glyphname = exclam;
layers = (
{
layerId = "2B2FE4A8-39A2-493B-A970-B9343EE81639";
name = Regular;
paths = (
{
closed = 1;
nodes = (
"465 411 LINE",
"444 463 LINE",
"412 482 LINE",
"381 500 LINE",
"325 493 LINE",
"142 173 LINE",
"134 0 LINE",
"281 93 LINE",
"282 93 LINE"
);
},
{
closed = 1;
nodes = (
"268 114 LINE",
"200 68 LINE",
"198 68 LINE",
"159 90 LINE",
"166 173 LINE",
"187 173 LINE",
"212 132 LINE",
"257 132 LINE"
);
}
);
width = 600;
}
);
unicode = 0021;
},
{
glyphname = numbersign;
layers = (
{
layerId = "2B2FE4A8-39A2-493B-A970-B9343EE81639";
name = Regular;
paths = (
{
closed = 1;
nodes = (
"453 499 LINE",
"500 501 OFFCURVE",
"381 497 OFFCURVE",
"450 499 CURVE SMOOTH"
);
},
{
closed = 1;
nodes = (
"450 499 LINE SMOOTH",
"376 497 OFFCURVE",
"378 378 OFFCURVE",
"342 334 CURVE SMOOTH",
"267 243 OFFCURVE",
"148 235 OFFCURVE",
"35 231 CURVE",
"117 200 OFFCURVE",
"70 177 OFFCURVE",
"20 176 CURVE",
"47 167 OFFCURVE",
"86 171 OFFCURVE",
"113 162 CURVE",
"59 125 LINE",
"141 129 OFFCURVE",
"233 144 OFFCURVE",
"309 100 CURVE SMOOTH",
"351 76 OFFCURVE",
"341 17 OFFCURVE",
"311 2 CURVE",
"424 2 LINE",
"402 19 OFFCURVE",
"376 24 OFFCURVE",
"349 22 CURVE",
"369 122 OFFCURVE",
"475 133 OFFCURVE",
"503 220 CURVE SMOOTH",
"521 277 OFFCURVE",
"459 316 OFFCURVE",
"470 369 CURVE SMOOTH",
"476 401 OFFCURVE",
"569 425 OFFCURVE",
"578 397 CURVE",
"563 447 OFFCURVE",
"509 500 OFFCURVE",
"453 499 CURVE SMOOTH"
);
},
{
closed = 1;
nodes = (
"447 430 OFFCURVE",
"447 480 OFFCURVE",
"479 480 CURVE SMOOTH",
"511 480 OFFCURVE",
"511 430 OFFCURVE",
"479 430 CURVE SMOOTH"
);
}
);
width = 600;
}
);
unicode = 0023;
},
{
glyphname = period;
lastChange = "2013-10-22 16:57:15 -0300";
layers = (
{
layerId = "2B2FE4A8-39A2-493B-A970-B9343EE81639";
name = Regular;
paths = (
{
closed = 1;
nodes = (
"564 500 LINE",
"550 500 LINE SMOOTH",
"550 500 OFFCURVE",
"523 499 OFFCURVE",
"488 493 CURVE",
"442 487 OFFCURVE",
"383 473 OFFCURVE",
"345 447 CURVE SMOOTH",
"278 402 OFFCURVE",
"263 368 OFFCURVE",
"251 320 CURVE SMOOTH",
"240 272 OFFCURVE",
"239 273 OFFCURVE",
"222 259 CURVE",
"218 256 OFFCURVE",
"214 249 OFFCURVE",
"211 242 CURVE",
"210 243 OFFCURVE",
"209 245 OFFCURVE",
"207 246 CURVE",
"199 253 OFFCURVE",
"198 253 OFFCURVE",
"201 276 CURVE SMOOTH",
"204 299 OFFCURVE",
"201 315 OFFCURVE",
"166 337 CURVE SMOOTH",
"132 360 OFFCURVE",
"46 366 OFFCURVE",
"46 366 CURVE SMOOTH",
"37 366 LINE",
"36 360 LINE",
"36 360 OFFCURVE",
"38 300 OFFCURVE",
"68 275 CURVE",
"100 251 OFFCURVE",
"123 247 OFFCURVE",
"157 248 CURVE SMOOTH",
"192 248 OFFCURVE",
"192 247 OFFCURVE",
"201 242 CURVE",
"203 240 OFFCURVE",
"205 236 OFFCURVE",
"207 231 CURVE",
"191 188 OFFCURVE",
"183 115 OFFCURVE",
"183 115 CURVE SMOOTH",
"183 115 OFFCURVE",
"185 113 OFFCURVE",
"191 113 CURVE SMOOTH",
"195 113 OFFCURVE",
"197 115 OFFCURVE",
"197 115 CURVE SMOOTH",
"197 115 OFFCURVE",
"214 233 OFFCURVE",
"229 249 CURVE",
"238 256 OFFCURVE",
"242 260 OFFCURVE",
"252 261 CURVE SMOOTH",
"261 262 OFFCURVE",
"274 262 OFFCURVE",
"299 261 CURVE",
"316 261 OFFCURVE",
"332 261 OFFCURVE",
"348 263 CURVE",
"379 268 OFFCURVE",
"410 281 OFFCURVE",
"452 314 CURVE SMOOTH",
"516 365 OFFCURVE",
"560 488 OFFCURVE",
"560 488 CURVE"
);
},
{
closed = 1;
nodes = (
"427 387 OFFCURVE",
"413 345 OFFCURVE",
"382 323 CURVE SMOOTH",
"334 291 OFFCURVE",
"314 284 OFFCURVE",
"257 278 CURVE",
"277 320 OFFCURVE",
"295 342 OFFCURVE",
"328 375 CURVE SMOOTH",
"360 407 OFFCURVE",
"403 409 OFFCURVE",
"446 420 CURVE"
);
},
{
closed = 1;
nodes = (
"162 298 OFFCURVE",
"179 288 OFFCURVE",
"188 256 CURVE",
"133 272 OFFCURVE",
"91 281 OFFCURVE",
"62 335 CURVE",
"87 329 OFFCURVE",
"111 324 OFFCURVE",
"136 318 CURVE"
);
},
{
closed = 1;
nodes = (
"206 114 LINE",
"206 111 LINE",
"204 109 LINE",
"203 107 OFFCURVE",
"199 103 OFFCURVE",
"191 103 CURVE SMOOTH",
"181 103 OFFCURVE",
"177 107 OFFCURVE",
"176 109 CURVE",
"173 112 LINE",
"173 116 LINE SMOOTH",
"173 117 OFFCURVE",
"174 120 OFFCURVE",
"174 124 CURVE",
"172 124 OFFCURVE",
"171 125 OFFCURVE",
"167 128 CURVE",
"160 134 OFFCURVE",
"152 133 OFFCURVE",
"145 128 CURVE",
"139 123 OFFCURVE",
"128 119 OFFCURVE",
"121 122 CURVE",
"113 124 OFFCURVE",
"103 117 OFFCURVE",
"92 100 CURVE SMOOTH",
"81 83 OFFCURVE",
"52 73 OFFCURVE",
"52 66 CURVE SMOOTH",
"52 59 OFFCURVE",
"58 54 OFFCURVE",
"47 41 CURVE SMOOTH",
"37 29 OFFCURVE",
"71 34 OFFCURVE",
"70 28 CURVE SMOOTH",
"69 23 OFFCURVE",
"81 16 OFFCURVE",
"80 14 CURVE",
"74 9 OFFCURVE",
"98 6 OFFCURVE",
"108 8 CURVE SMOOTH",
"119 10 OFFCURVE",
"135 15 OFFCURVE",
"146 11 CURVE",
"156 6 OFFCURVE",
"165 2 OFFCURVE",
"168 3 CURVE SMOOTH",
"171 4 OFFCURVE",
"191 7 OFFCURVE",
"201 4 CURVE",
"210 0 OFFCURVE",
"204 13 OFFCURVE",
"205 14 CURVE SMOOTH",
"207 16 OFFCURVE",
"226 5 OFFCURVE",
"240 5 CURVE",
"254 6 OFFCURVE",
"258 18 OFFCURVE",
"270 16 CURVE",
"282 15 OFFCURVE",
"285 9 OFFCURVE",
"293 14 CURVE",
"300 19 OFFCURVE",
"316 10 OFFCURVE",
"322 6 CURVE",
"328 3 OFFCURVE",
"345 12 OFFCURVE",
"348 14 CURVE",
"352 17 OFFCURVE",
"368 19 OFFCURVE",
"374 12 CURVE SMOOTH",
"380 5 OFFCURVE",
"388 14 OFFCURVE",
"393 18 CURVE",
"399 22 OFFCURVE",
"400 24 OFFCURVE",
"405 23 CURVE",
"409 22 OFFCURVE",
"418 24 OFFCURVE",
"425 27 CURVE",
"431 31 OFFCURVE",
"432 37 OFFCURVE",
"428 40 CURVE SMOOTH",
"423 44 OFFCURVE",
"408 43 OFFCURVE",
"398 43 CURVE SMOOTH",
"388 43 OFFCURVE",
"391 51 OFFCURVE",
"391 57 CURVE",
"392 63 OFFCURVE",
"389 64 OFFCURVE",
"383 65 CURVE",
"379 66 OFFCURVE",
"369 75 OFFCURVE",
"366 82 CURVE",
"362 88 OFFCURVE",
"355 88 OFFCURVE",
"348 87 CURVE SMOOTH",
"342 86 OFFCURVE",
"335 91 OFFCURVE",
"334 97 CURVE",
"334 103 OFFCURVE",
"320 113 OFFCURVE",
"308 106 CURVE SMOOTH",
"296 99 OFFCURVE",
"292 112 OFFCURVE",
"280 116 CURVE",
"268 121 OFFCURVE",
"258 127 OFFCURVE",
"252 120 CURVE",
"246 112 OFFCURVE",
"228 123 OFFCURVE",
"223 128 CURVE SMOOTH",
"221 130 OFFCURVE",
"215 131 OFFCURVE",
"209 131 CURVE"
);
}
);
width = 600;
}
);
unicode = 002E;
},
{
glyphname = periodcentered;
layers = (
{
layerId = "2B2FE4A8-39A2-493B-A970-B9343EE81639";
name = Regular;
paths = (
{
closed = 1;
nodes = (
"542 139 LINE",
"542 166 LINE",
"425 267 LINE",
"426 268 OFFCURVE",
"426 269 OFFCURVE",
"426 271 CURVE SMOOTH",
"426 298 LINE SMOOTH",
"426 308 OFFCURVE",
"416 316 OFFCURVE",
"406 316 CURVE SMOOTH",
"397 316 OFFCURVE",
"388 309 OFFCURVE",
"387 300 CURVE",
"329 350 LINE",
"329 428 LINE SMOOTH",
"329 445 OFFCURVE",
"314 500 OFFCURVE",
"298 500 CURVE SMOOTH",
"281 500 OFFCURVE",
"266 445 OFFCURVE",
"266 428 CURVE SMOOTH",
"266 350 LINE",
"208 300 LINE",
"207 309 OFFCURVE",
"198 316 OFFCURVE",
"189 316 CURVE SMOOTH",
"179 316 OFFCURVE",
"169 308 OFFCURVE",
"169 298 CURVE SMOOTH",
"169 271 LINE SMOOTH",
"169 269 OFFCURVE",
"169 268 OFFCURVE",
"170 267 CURVE",
"53 166 LINE",
"53 139 LINE",
"266 205 LINE",
"266 205 OFFCURVE",
"272 140 OFFCURVE",
"279 83 CURVE",
"189 13 LINE",
"189 0 LINE",
"290 28 LINE",
"292 20 OFFCURVE",
"295 15 OFFCURVE",
"298 15 CURVE SMOOTH",
"300 15 OFFCURVE",
"303 20 OFFCURVE",
"305 28 CURVE",
"406 0 LINE",
"406 13 LINE",
"316 83 LINE",
"324 140 OFFCURVE",
"329 205 OFFCURVE",
"329 205 CURVE"
);
},
{
closed = 1;
nodes = (
"297 234 LINE SMOOTH",
"272 234 OFFCURVE",
"248 248 OFFCURVE",
"224 276 CURVE",
"249 304 OFFCURVE",
"273 318 OFFCURVE",
"297 319 CURVE",
"298 319 LINE",
"322 318 OFFCURVE",
"347 304 OFFCURVE",
"371 277 CURVE",
"348 248 OFFCURVE",
"323 234 OFFCURVE",
"298 234 CURVE SMOOTH"
);
},
{
closed = 1;
nodes = (
"264 285 OFFCURVE",
"267 293 OFFCURVE",
"274 300 CURVE",
"274 301 OFFCURVE",
"275 301 OFFCURVE",
"276 302 CURVE",
"265 297 OFFCURVE",
"254 288 OFFCURVE",
"242 276 CURVE",
"254 263 OFFCURVE",
"265 254 OFFCURVE",
"277 249 CURVE",
"274 252 LINE SMOOTH",
"267 259 OFFCURVE",
"264 267 OFFCURVE",
"264 276 CURVE SMOOTH"
);
},
{
closed = 1;
nodes = (
"319 302 OFFCURVE",
"320 302 OFFCURVE",
"320 302 CURVE SMOOTH"
);
},
{
closed = 1;
nodes = (
"321 300 LINE",
"328 293 OFFCURVE",
"331 285 OFFCURVE",
"331 276 CURVE SMOOTH",
"331 267 OFFCURVE",
"328 259 OFFCURVE",
"321 252 CURVE SMOOTH",
"320 251 OFFCURVE",
"319 250 OFFCURVE",
"317 249 CURVE",
"329 253 OFFCURVE",
"341 263 OFFCURVE",
"353 276 CURVE",
"341 289 OFFCURVE",
"331 297 OFFCURVE",
"320 302 CURVE"
);
},
{
closed = 1;
nodes = (
"309 296 OFFCURVE",
"304 298 OFFCURVE",
"298 298 CURVE SMOOTH",
"291 298 OFFCURVE",
"286 296 OFFCURVE",
"282 292 CURVE",
"278 287 OFFCURVE",
"276 282 OFFCURVE",
"276 276 CURVE SMOOTH",
"276 270 OFFCURVE",
"278 265 OFFCURVE",
"282 261 CURVE",
"286 256 OFFCURVE",
"291 254 OFFCURVE",
"298 254 CURVE SMOOTH",
"304 254 OFFCURVE",
"309 256 OFFCURVE",
"313 261 CURVE",
"318 265 OFFCURVE",
"320 270 OFFCURVE",
"320 276 CURVE SMOOTH",
"320 282 OFFCURVE",
"318 287 OFFCURVE",
"313 292 CURVE SMOOTH"
);
}
);
width = 600;
}
);
unicode = 00B7;
},
{
glyphname = question;
layers = (
{
layerId = "2B2FE4A8-39A2-493B-A970-B9343EE81639";
name = Regular;
paths = (
{
closed = 1;
nodes = (
"187 477 LINE SMOOTH",
"172 477 OFFCURVE",
"160 464 OFFCURVE",
"160 448 CURVE SMOOTH",
"160 222 LINE SMOOTH",
"160 206 OFFCURVE",
"172 193 OFFCURVE",
"187 193 CURVE SMOOTH",
"573 193 LINE SMOOTH",
"588 193 OFFCURVE",
"600 206 OFFCURVE",
"600 222 CURVE SMOOTH",
"600 448 LINE SMOOTH",
"600 464 OFFCURVE",
"588 477 OFFCURVE",
"573 477 CURVE SMOOTH"
);
},
{
closed = 1;
nodes = (
"360 445 LINE",
"360 240 LINE",
"330 240 LINE",
"330 241 OFFCURVE",
"330 241 OFFCURVE",
"330 243 CURVE SMOOTH",
"330 245 LINE",
"330 246 LINE SMOOTH",
"330 262 OFFCURVE",
"321 292 OFFCURVE",
"304 292 CURVE SMOOTH",
"284 292 LINE",
"284 299 LINE",
"302 306 OFFCURVE",
"315 323 OFFCURVE",
"315 343 CURVE SMOOTH",
"315 369 OFFCURVE",
"295 391 OFFCURVE",
"270 391 CURVE SMOOTH",
"246 391 OFFCURVE",
"225 369 OFFCURVE",
"225 343 CURVE SMOOTH",
"225 323 OFFCURVE",
"238 306 OFFCURVE",
"256 299 CURVE",
"256 292 LINE",
"238 292 LINE SMOOTH",
"224 292 OFFCURVE",
"211 272 OFFCURVE",
"211 253 CURVE",
"210 250 OFFCURVE",
"210 248 OFFCURVE",
"210 246 CURVE SMOOTH",
"210 245 OFFCURVE",
"210 244 OFFCURVE",
"210 243 CURVE SMOOTH",
"210 240 LINE",
"183 240 LINE",
"183 445 LINE"
);
},
{
closed = 1;
nodes = (
"568 445 LINE",
"568 387 LINE",
"380 387 LINE",
"380 445 LINE"
);
},
{
closed = 1;
nodes = (
"380 316 LINE",
"380 349 LINE",
"443 349 LINE",
"443 316 LINE"
);
},
{
closed = 1;
nodes = (
"568 349 LINE",
"568 316 LINE",
"475 316 LINE",
"475 349 LINE"
);
},
{
closed = 1;
nodes = (
"568 275 LINE",
"568 237 LINE",
"380 237 LINE",
"380 275 LINE"
);
},
{
closed = 1;
nodes = (
"170 86 LINE",
"170 34 OFFCURVE",
"133 0 OFFCURVE",
"84 0 CURVE SMOOTH",
"37 0 OFFCURVE",
"0 38 OFFCURVE",
"0 85 CURVE SMOOTH",
"0 132 OFFCURVE",
"36 170 OFFCURVE",
"83 170 CURVE SMOOTH",
"84 170 OFFCURVE",
"84 170 OFFCURVE",
"86 170 CURVE",
"86 197 LINE SMOOTH",
"86 200 OFFCURVE",
"88 204 OFFCURVE",
"92 201 CURVE",
"96 199 OFFCURVE",
"141 163 OFFCURVE",
"148 159 CURVE",
"151 157 OFFCURVE",
"152 152 OFFCURVE",
"148 150 CURVE",
"143 148 OFFCURVE",
"96 111 OFFCURVE",
"91 107 CURVE",
"88 105 OFFCURVE",
"86 107 OFFCURVE",
"86 113 CURVE SMOOTH",
"86 114 OFFCURVE",
"86 123 OFFCURVE",
"86 137 CURVE",
"83 137 LINE SMOOTH",
"55 137 OFFCURVE",
"33 115 OFFCURVE",
"33 85 CURVE SMOOTH",
"33 56 OFFCURVE",
"56 34 OFFCURVE",
"84 34 CURVE SMOOTH",
"114 34 OFFCURVE",
"137 56 OFFCURVE",
"137 86 CURVE"
);
}
);
width = 600;
}
);
unicode = 003F;
},
{
glyphname = semicolon;
layers = (
{
layerId = "2B2FE4A8-39A2-493B-A970-B9343EE81639";
name = Regular;
paths = (
{
closed = 1;
nodes = (
"184 0 LINE",
"416 0 LINE",
"416 133 LINE",
"418 134 LINE",
"405 149 OFFCURVE",
"326 181 OFFCURVE",
"326 181 CURVE SMOOTH",
"326 181 OFFCURVE",
"331 229 OFFCURVE",
"331 256 CURVE",
"348 264 OFFCURVE",
"363 274 OFFCURVE",
"375 285 CURVE",
"396 282 OFFCURVE",
"417 282 OFFCURVE",
"434 286 CURVE SMOOTH",
"482 297 OFFCURVE",
"510 353 OFFCURVE",
"501 395 CURVE SMOOTH",
"495 423 OFFCURVE",
"474 437 OFFCURVE",
"447 440 CURVE",
"449 463 OFFCURVE",
"449 479 OFFCURVE",
"449 479 CURVE SMOOTH",
"449 479 OFFCURVE",
"401 500 OFFCURVE",
"300 500 CURVE SMOOTH",
"199 500 OFFCURVE",
"151 479 OFFCURVE",
"151 479 CURVE SMOOTH",
"151 479 OFFCURVE",
"151 463 OFFCURVE",
"153 440 CURVE",
"126 437 OFFCURVE",
"105 423 OFFCURVE",
"99 395 CURVE SMOOTH",
"90 353 OFFCURVE",
"118 297 OFFCURVE",
"166 286 CURVE SMOOTH",
"183 282 OFFCURVE",
"204 282 OFFCURVE",
"224 285 CURVE",
"237 274 OFFCURVE",
"251 264 OFFCURVE",
"268 256 CURVE",
"268 229 OFFCURVE",
"272 181 OFFCURVE",
"272 181 CURVE SMOOTH",
"272 181 OFFCURVE",
"198 155 OFFCURVE",
"184 135 CURVE"
);
},
{
closed = 1;
nodes = (
"142 321 OFFCURVE",
"125 362 OFFCURVE",
"131 388 CURVE SMOOTH",
"134 403 OFFCURVE",
"144 410 OFFCURVE",
"158 412 CURVE",
"164 381 OFFCURVE",
"177 344 OFFCURVE",
"201 312 CURVE",
"190 311 OFFCURVE",
"180 312 OFFCURVE",
"172 314 CURVE SMOOTH"
);
},
{
closed = 1;
nodes = (
"455 410 OFFCURVE",
"465 403 OFFCURVE",
"469 388 CURVE SMOOTH",
"475 362 OFFCURVE",
"458 321 OFFCURVE",
"428 314 CURVE SMOOTH",
"420 312 OFFCURVE",
"410 311 OFFCURVE",
"399 312 CURVE",
"423 344 OFFCURVE",
"436 381 OFFCURVE",
"442 412 CURVE"
);
},
{
closed = 1;
nodes = (
"378 78 LINE",
"378 39 LINE",
"223 39 LINE",
"223 78 LINE"
);
}
);
width = 600;
}
);
unicode = 003B;
},
{
glyphname = slash;
lastChange = "2013-09-11 12:00:38 -0300";
layers = (
{
layerId = "2B2FE4A8-39A2-493B-A970-B9343EE81639";
name = Regular;
paths = (
{
closed = 1;
nodes = (
"162 500 OFFCURVE",
"50 388 OFFCURVE",
"50 250 CURVE SMOOTH",
"50 112 OFFCURVE",
"162 0 OFFCURVE",
"300 0 CURVE SMOOTH",
"438 0 OFFCURVE",
"550 112 OFFCURVE",
"550 250 CURVE SMOOTH",
"550 388 OFFCURVE",
"438 500 OFFCURVE",
"300 500 CURVE SMOOTH"
);
},
{
closed = 1;
nodes = (
"187 45 OFFCURVE",
"95 137 OFFCURVE",
"95 250 CURVE SMOOTH",
"95 363 OFFCURVE",
"187 455 OFFCURVE",
"300 455 CURVE SMOOTH",
"413 455 OFFCURVE",
"505 363 OFFCURVE",
"505 250 CURVE SMOOTH",
"505 137 OFFCURVE",
"413 45 OFFCURVE",
"300 45 CURVE SMOOTH"
);
},
{
closed = 1;
nodes = (
"227 273 LINE",
"238 306 OFFCURVE",
"266 324 OFFCURVE",
"300 324 CURVE SMOOTH",
"325 324 OFFCURVE",
"348 313 OFFCURVE",
"363 293 CURVE",
"313 246 LINE",
"306 249 OFFCURVE",
"298 251 OFFCURVE",
"290 249 CURVE",
"269 246 OFFCURVE",
"255 226 OFFCURVE",
"258 205 CURVE",
"262 183 OFFCURVE",
"282 169 OFFCURVE",
"303 173 CURVE SMOOTH",
"324 177 OFFCURVE",
"338 197 OFFCURVE",
"335 218 CURVE",
"334 223 OFFCURVE",
"332 227 OFFCURVE",
"330 231 CURVE",
"339 242 OFFCURVE",
"355 262 OFFCURVE",
"370 281 CURVE",
"373 273 LINE",
"450 273 LINE",
"437 358 OFFCURVE",
"375 399 OFFCURVE",
"300 399 CURVE SMOOTH",
"225 399 OFFCURVE",
"162 358 OFFCURVE",
"150 273 CURVE"
);
},
{
closed = 1;
nodes = (
"374 303 LINE",
"369 309 OFFCURVE",
"354 323 OFFCURVE",
"348 328 CURVE",
"370 372 LINE",
"408 355 OFFCURVE",
"433 311 OFFCURVE",
"437 290 CURVE",
"421 290 OFFCURVE",
"390 290 OFFCURVE",
"380 290 CURVE",
"379 292 LINE",
"393 310 OFFCURVE",
"405 325 OFFCURVE",
"406 327 CURVE",
"409 332 OFFCURVE",
"401 330 OFFCURVE",
"401 330 CURVE"
);
},
{
closed = 1;
nodes = (
"290 192 OFFCURVE",
"281 199 OFFCURVE",
"279 208 CURVE",
"278 218 OFFCURVE",
"284 227 OFFCURVE",
"294 228 CURVE",
"303 230 OFFCURVE",
"312 224 OFFCURVE",
"314 214 CURVE",
"315 205 OFFCURVE",
"309 196 OFFCURVE",
"300 194 CURVE SMOOTH"
);
}
);
width = 600;
}
);
unicode = 002F;
},
{
glyphname = underscore;
layers = (
{
layerId = "2B2FE4A8-39A2-493B-A970-B9343EE81639";
name = Regular;
paths = (
{
closed = 1;
nodes = (
"343 425 LINE",
"343 491 LINE SMOOTH",
"343 496 OFFCURVE",
"339 500 OFFCURVE",
"334 500 CURVE SMOOTH",
"266 500 LINE SMOOTH",
"262 500 OFFCURVE",
"258 496 OFFCURVE",
"258 491 CURVE SMOOTH",
"258 425 LINE",
"96 425 LINE SMOOTH",
"92 425 OFFCURVE",
"88 421 OFFCURVE",
"88 416 CURVE SMOOTH",
"88 348 LINE",
"512 348 LINE",
"512 416 LINE SMOOTH",
"512 421 OFFCURVE",
"509 425 OFFCURVE",
"504 425 CURVE SMOOTH"
);
},
{
closed = 1;
nodes = (
"209 0 LINE",
"209 302 LINE",
"130 302 LINE",
"130 8 LINE SMOOTH",
"130 3 OFFCURVE",
"134 0 OFFCURVE",
"139 0 CURVE SMOOTH"
);
},
{
closed = 1;
nodes = (
"251 302 LINE",
"251 0 LINE",
"349 0 LINE",
"349 302 LINE"
);
},
{
closed = 1;
nodes = (
"470 302 LINE",
"391 302 LINE",
"391 0 LINE",
"462 0 LINE SMOOTH",
"466 0 OFFCURVE",
"470 3 OFFCURVE",
"470 8 CURVE SMOOTH"
);
}
);
width = 600;
}
);
unicode = 005F;
},
{
glyphname = braceleft;
lastChange = "2013-02-27 18:12:35 -0300";
layers = (
{
layerId = "2B2FE4A8-39A2-493B-A970-B9343EE81639";
name = Regular;
paths = (
{
closed = 1;
nodes = (
"162 499 OFFCURVE",
"50 387 OFFCURVE",
"50 249 CURVE SMOOTH",
"50 111 OFFCURVE",
"162 -1 OFFCURVE",
"300 -1 CURVE SMOOTH",
"437 -1 OFFCURVE",
"550 111 OFFCURVE",
"550 249 CURVE SMOOTH",
"550 387 OFFCURVE",
"437 499 OFFCURVE",
"300 499 CURVE SMOOTH"
);
},
{
closed = 1;
nodes = (
"208 83 OFFCURVE",
"133 157 OFFCURVE",
"133 249 CURVE SMOOTH",
"133 341 OFFCURVE",
"208 415 OFFCURVE",
"300 415 CURVE SMOOTH",
"391 415 OFFCURVE",
"466 341 OFFCURVE",
"466 249 CURVE SMOOTH",
"466 157 OFFCURVE",
"391 83 OFFCURVE",
"300 83 CURVE SMOOTH"
);
},
{
closed = 1;
nodes = (
"217 295 OFFCURVE",
"254 332 OFFCURVE",
"300 332 CURVE SMOOTH",
"345 332 OFFCURVE",
"382 295 OFFCURVE",
"382 249 CURVE SMOOTH",
"382 203 OFFCURVE",
"345 166 OFFCURVE",
"300 166 CURVE SMOOTH",
"254 166 OFFCURVE",
"217 203 OFFCURVE",
"217 249 CURVE SMOOTH"
);
}
);
width = 600;
}
);
unicode = 007B;
},
{
glyphname = braceright;
layers = (
{
layerId = "2B2FE4A8-39A2-493B-A970-B9343EE81639";
name = Regular;
paths = (
{
closed = 1;
nodes = (
"414 250 LINE",
"485 345 LINE",
"489 343 OFFCURVE",
"493 341 OFFCURVE",
"498 341 CURVE SMOOTH",
"510 341 OFFCURVE",
"520 351 OFFCURVE",
"520 363 CURVE SMOOTH",
"520 375 OFFCURVE",
"510 385 OFFCURVE",
"498 385 CURVE SMOOTH",
"486 385 OFFCURVE",
"476 375 OFFCURVE",
"476 363 CURVE SMOOTH",
"476 361 LINE",
"357 348 LINE",
"310 458 LINE",
"317 461 OFFCURVE",
"322 469 OFFCURVE",
"322 478 CURVE SMOOTH",
"322 490 OFFCURVE",
"313 500 OFFCURVE",
"301 500 CURVE SMOOTH",
"289 500 OFFCURVE",
"279 490 OFFCURVE",
"279 478 CURVE SMOOTH",
"279 469 OFFCURVE",
"284 461 OFFCURVE",
"292 458 CURVE",
"243 349 LINE",
"124 363 LINE",
"124 375 OFFCURVE",
"114 385 OFFCURVE",
"102 385 CURVE SMOOTH",
"90 385 OFFCURVE",
"80 375 OFFCURVE",
"80 363 CURVE SMOOTH",
"80 351 OFFCURVE",
"90 341 OFFCURVE",
"102 341 CURVE SMOOTH",
"107 341 OFFCURVE",
"113 343 OFFCURVE",
"116 346 CURVE",
"186 250 LINE",
"115 154 LINE",
"111 156 OFFCURVE",
"107 158 OFFCURVE",
"102 158 CURVE SMOOTH",
"90 158 OFFCURVE",
"80 148 OFFCURVE",
"80 136 CURVE SMOOTH",
"80 124 OFFCURVE",
"90 114 OFFCURVE",
"102 114 CURVE SMOOTH",
"114 114 OFFCURVE",
"124 124 OFFCURVE",
"124 136 CURVE SMOOTH",
"124 138 LINE",
"243 151 LINE",
"290 42 LINE",
"282 39 OFFCURVE",
"276 31 OFFCURVE",
"276 22 CURVE SMOOTH",
"276 10 OFFCURVE",
"286 0 OFFCURVE",
"298 0 CURVE SMOOTH",
"310 0 OFFCURVE",
"320 10 OFFCURVE",
"320 22 CURVE SMOOTH",
"320 30 OFFCURVE",
"315 38 OFFCURVE",
"308 42 CURVE",
"357 151 LINE",
"472 138 LINE",
"472 136 LINE SMOOTH",
"472 124 OFFCURVE",
"482 114 OFFCURVE",
"494 114 CURVE SMOOTH",
"506 114 OFFCURVE",
"516 124 OFFCURVE",
"516 136 CURVE SMOOTH",
"516 148 OFFCURVE",
"506 158 OFFCURVE",
"494 158 CURVE SMOOTH",
"490 158 OFFCURVE",
"486 157 OFFCURVE",
"483 155 CURVE"
);
}
);
width = 600;
}
);
unicode = 007D;
},
{
glyphname = bracketleft;
layers = (
{
layerId = "2B2FE4A8-39A2-493B-A970-B9343EE81639";
name = Regular;
paths = (
{
closed = 1;
nodes = (
"320 517 LINE",
"320 582 LINE SMOOTH",
"320 590 OFFCURVE",
"311 600 OFFCURVE",
"298 600 CURVE SMOOTH",
"289 600 OFFCURVE",
"280 590 OFFCURVE",
"280 582 CURVE SMOOTH",
"280 517 LINE",
"284 517 OFFCURVE",
"293 517 OFFCURVE",
"298 517 CURVE SMOOTH"
);
},
{
closed = 1;
nodes = (
"456 533 LINE SMOOTH",
"460 541 OFFCURVE",
"460 554 OFFCURVE",
"446 559 CURVE",
"438 564 OFFCURVE",
"428 564 OFFCURVE",
"420 551 CURVE SMOOTH",
"390 500 LINE",
"404 490 OFFCURVE",
"413 486 OFFCURVE",
"426 477 CURVE"
);
},
{
closed = 1;
nodes = (
"174 477 LINE",
"182 486 OFFCURVE",
"196 490 OFFCURVE",
"210 500 CURVE",
"176 551 LINE SMOOTH",
"169 562 OFFCURVE",
"158 564 OFFCURVE",
"149 559 CURVE SMOOTH",
"140 554 OFFCURVE",
"138 543 OFFCURVE",
"144 533 CURVE"
);
},
{
closed = 1;
nodes = (
"107 388 LINE",
"112 402 OFFCURVE",
"116 416 OFFCURVE",
"125 424 CURVE",
"67 456 LINE",
"57 462 OFFCURVE",
"46 460 OFFCURVE",
"41 451 CURVE SMOOTH",
"36 442 OFFCURVE",
"37 429 OFFCURVE",
"46 424 CURVE SMOOTH"
);
},
{
closed = 1;
nodes = (
"474 423 LINE",
"479 415 OFFCURVE",
"487 401 OFFCURVE",
"492 387 CURVE",
"551 424 LINE SMOOTH",
"559 429 OFFCURVE",
"564 442 OFFCURVE",
"559 451 CURVE",
"551 460 OFFCURVE",
"543 462 OFFCURVE",
"533 456 CURVE SMOOTH"
);
},
{
closed = 1;
nodes = (
"216 451 OFFCURVE",
"158 392 OFFCURVE",
"158 320 CURVE SMOOTH",
"158 284 OFFCURVE",
"167 257 OFFCURVE",
"194 226 CURVE",
"203 172 OFFCURVE",
"244 122 OFFCURVE",
"298 122 CURVE SMOOTH",
"356 122 OFFCURVE",
"392 172 OFFCURVE",
"402 226 CURVE",
"428 257 OFFCURVE",
"442 284 OFFCURVE",
"442 320 CURVE SMOOTH",
"442 392 OFFCURVE",
"384 451 OFFCURVE",
"298 451 CURVE SMOOTH"
);
},
{
closed = 1;
nodes = (
"18 320 LINE SMOOTH",
"10 320 OFFCURVE",
"0 311 OFFCURVE",
"0 302 CURVE SMOOTH",
"0 289 OFFCURVE",
"10 280 OFFCURVE",
"18 280 CURVE SMOOTH",
"88 280 LINE",
"83 293 OFFCURVE",
"79 307 OFFCURVE",
"79 320 CURVE"
);
},
{
closed = 1;
nodes = (
"509 320 LINE",
"509 307 OFFCURVE",
"509 293 OFFCURVE",
"504 280 CURVE",
"577 280 LINE SMOOTH",
"590 280 OFFCURVE",
"600 289 OFFCURVE",
"600 302 CURVE SMOOTH",
"600 311 OFFCURVE",
"590 320 OFFCURVE",
"577 320 CURVE SMOOTH"
);
},
{
closed = 1;
nodes = (
"239 266 LINE",
"239 266 OFFCURVE",
"239 271 OFFCURVE",
"244 271 CURVE SMOOTH",
"248 271 OFFCURVE",
"253 271 OFFCURVE",
"253 266 CURVE",
"289 198 LINE",
"293 198 OFFCURVE",
"298 198 OFFCURVE",
"298 198 CURVE",
"307 198 LINE",
"343 266 LINE",
"343 271 OFFCURVE",
"347 271 OFFCURVE",
"352 271 CURVE SMOOTH",
"356 271 OFFCURVE",
"361 266 OFFCURVE",
"361 266 CURVE",
"325 194 LINE",
"347 194 OFFCURVE",
"361 185 OFFCURVE",
"361 176 CURVE SMOOTH",
"361 167 OFFCURVE",
"334 158 OFFCURVE",
"298 158 CURVE SMOOTH",
"262 158 OFFCURVE",
"234 167 OFFCURVE",
"234 176 CURVE SMOOTH",
"234 185 OFFCURVE",
"253 194 OFFCURVE",
"275 194 CURVE"
);
},
{
closed = 1;
nodes = (
"170 86 LINE",
"170 34 OFFCURVE",
"133 0 OFFCURVE",
"84 0 CURVE SMOOTH",
"37 0 OFFCURVE",
"0 38 OFFCURVE",
"0 85 CURVE SMOOTH",
"0 132 OFFCURVE",
"36 170 OFFCURVE",
"83 170 CURVE SMOOTH",
"84 170 OFFCURVE",
"84 170 OFFCURVE",
"86 170 CURVE",
"86 197 LINE SMOOTH",
"86 200 OFFCURVE",
"88 204 OFFCURVE",
"92 201 CURVE",
"96 199 OFFCURVE",
"141 163 OFFCURVE",
"148 159 CURVE",
"151 157 OFFCURVE",
"152 152 OFFCURVE",
"148 150 CURVE",
"143 148 OFFCURVE",
"96 111 OFFCURVE",
"91 107 CURVE",
"88 105 OFFCURVE",
"86 107 OFFCURVE",
"86 113 CURVE SMOOTH",
"86 114 OFFCURVE",
"86 123 OFFCURVE",
"86 137 CURVE",
"83 137 LINE SMOOTH",
"55 137 OFFCURVE",
"33 115 OFFCURVE",
"33 85 CURVE SMOOTH",
"33 56 OFFCURVE",
"56 34 OFFCURVE",
"84 34 CURVE SMOOTH",
"114 34 OFFCURVE",
"137 56 OFFCURVE",
"137 86 CURVE"
);
},
{
closed = 1;
nodes = (
"226 59 LINE SMOOTH",
"226 46 OFFCURVE",
"244 31 OFFCURVE",
"271 28 CURVE",
"271 13 LINE SMOOTH",
"271 5 OFFCURVE",
"275 0 OFFCURVE",
"284 0 CURVE SMOOTH",
"311 0 LINE SMOOTH",
"320 0 OFFCURVE",
"329 5 OFFCURVE",
"329 13 CURVE SMOOTH",
"329 28 LINE",
"352 31 OFFCURVE",
"370 46 OFFCURVE",
"370 59 CURVE SMOOTH",
"370 108 LINE",
"352 90 OFFCURVE",
"325 82 OFFCURVE",
"298 82 CURVE SMOOTH",
"271 82 OFFCURVE",
"248 90 OFFCURVE",
"226 108 CURVE"
);
},
{
closed = 1;
nodes = (
"356 64 LINE",
"356 64 OFFCURVE",
"334 46 OFFCURVE",
"298 46 CURVE SMOOTH",
"262 46 OFFCURVE",
"239 64 OFFCURVE",
"239 64 CURVE",
"239 82 LINE",
"239 82 OFFCURVE",
"271 64 OFFCURVE",
"298 64 CURVE SMOOTH",
"329 64 OFFCURVE",
"356 82 OFFCURVE",
"356 82 CURVE"
);
}
);
width = 600;
}
);
unicode = 005B;
},
{
glyphname = bracketright;
layers = (
{
layerId = "2B2FE4A8-39A2-493B-A970-B9343EE81639";
name = Regular;
paths = (
{
closed = 1;
nodes = (
"599 447 LINE",
"419 447 LINE",
"364 500 LINE",
"248 500 LINE",
"199 436 LINE",
"199 132 LINE",
"599 132 LINE"
);
},
{
closed = 1;
nodes = (
"170 86 LINE",
"170 34 OFFCURVE",
"133 0 OFFCURVE",
"84 0 CURVE SMOOTH",
"37 0 OFFCURVE",
"0 38 OFFCURVE",
"0 85 CURVE SMOOTH",
"0 132 OFFCURVE",
"36 170 OFFCURVE",
"83 170 CURVE SMOOTH",
"84 170 OFFCURVE",
"84 170 OFFCURVE",
"86 170 CURVE",
"86 197 LINE SMOOTH",
"86 200 OFFCURVE",
"88 204 OFFCURVE",
"92 201 CURVE",
"96 199 OFFCURVE",
"141 163 OFFCURVE",
"148 159 CURVE",
"151 157 OFFCURVE",
"152 152 OFFCURVE",
"148 150 CURVE",
"143 148 OFFCURVE",
"96 111 OFFCURVE",
"91 107 CURVE",
"88 105 OFFCURVE",
"86 107 OFFCURVE",
"86 113 CURVE SMOOTH",
"86 114 OFFCURVE",
"86 123 OFFCURVE",
"86 137 CURVE",
"83 137 LINE SMOOTH",
"55 137 OFFCURVE",
"33 115 OFFCURVE",
"33 85 CURVE SMOOTH",
"33 56 OFFCURVE",
"56 34 OFFCURVE",
"84 34 CURVE SMOOTH",
"114 34 OFFCURVE",
"137 56 OFFCURVE",
"137 86 CURVE"
);
}
);
width = 600;
}
);
unicode = 005D;
},
{
glyphname = parenleft;
layers = (
{
layerId = "2B2FE4A8-39A2-493B-A970-B9343EE81639";
name = Regular;
paths = (
{
closed = 1;
nodes = (
"165 283 LINE",
"299 124 LINE",
"419 283 LINE",
"367 283 LINE SMOOTH",
"367 283 OFFCURVE",
"400 370 OFFCURVE",
"303 461 CURVE SMOOTH",
"221 535 OFFCURVE",
"80 477 OFFCURVE",
"80 477 CURVE SMOOTH",
"80 477 OFFCURVE",
"214 490 OFFCURVE",
"245 409 CURVE SMOOTH",
"273 328 OFFCURVE",
"250 283 OFFCURVE",
"250 283 CURVE SMOOTH"
);
},
{
closed = 1;
nodes = (
"541 141 LINE",
"481 141 LINE",
"481 62 LINE",
"121 62 LINE",
"121 141 LINE",
"60 141 LINE",
"60 50 LINE SMOOTH",
"60 27 OFFCURVE",
"81 0 OFFCURVE",
"105 0 CURVE SMOOTH",
"497 0 LINE SMOOTH",
"522 0 OFFCURVE",
"541 27 OFFCURVE",
"541 50 CURVE SMOOTH"
);
}
);
width = 600;
}
);
unicode = 0028;
},
{
glyphname = parenright;
layers = (
{
layerId = "2B2FE4A8-39A2-493B-A970-B9343EE81639";
name = Regular;
paths = (
{
closed = 1;
nodes = (
"419 174 LINE",
"550 250 LINE",
"419 326 LINE",
"419 268 LINE",
"318 268 LINE",
"318 369 LINE",
"376 369 LINE",
"300 500 LINE",
"224 369 LINE",
"282 369 LINE",
"282 268 LINE",
"181 268 LINE",
"181 326 LINE",
"50 250 LINE",
"181 174 LINE",
"181 232 LINE",
"282 232 LINE",
"282 131 LINE",
"224 131 LINE",
"300 0 LINE",
"376 131 LINE",
"318 131 LINE",
"318 232 LINE",
"419 232 LINE"
);
}
);
width = 600;
}
);
unicode = 0029;
},
{
glyphname = emdash;
lastChange = "2012-12-11 13:47:16 -0300";
layers = (
{
layerId = "2B2FE4A8-39A2-493B-A970-B9343EE81639";
name = Regular;
paths = (
{
closed = 1;
nodes = (
"335 0 LINE",
"335 285 LINE",
"265 285 LINE",
"265 0 LINE"
);
},
{
closed = 1;
nodes = (
"350 420 LINE",
"350 491 LINE SMOOTH",
"350 496 OFFCURVE",
"346 500 OFFCURVE",
"341 500 CURVE SMOOTH",
"258 500 LINE SMOOTH",
"254 500 OFFCURVE",
"250 496 OFFCURVE",
"250 491 CURVE SMOOTH",
"250 420 LINE",
"93 420 LINE SMOOTH",
"89 420 OFFCURVE",
"85 416 OFFCURVE",
"85 411 CURVE SMOOTH",
"85 350 LINE",
"515 350 LINE",
"515 411 LINE SMOOTH",
"515 416 OFFCURVE",
"512 420 OFFCURVE",
"507 420 CURVE SMOOTH"
);
},
{
closed = 1;
nodes = (
"140 5 LINE SMOOTH",
"140 2 OFFCURVE",
"142 0 OFFCURVE",
"145 0 CURVE SMOOTH",
"205 0 LINE",
"205 285 LINE",
"140 285 LINE"
);
},
{
closed = 1;
nodes = (
"460 5 LINE SMOOTH",
"460 2 OFFCURVE",
"458 0 OFFCURVE",
"455 0 CURVE SMOOTH",
"395 0 LINE",
"395 285 LINE",
"460 285 LINE"
);
}
);
width = 600;
}
);
unicode = 2014;
},
{
glyphname = hyphen;
layers = (
{
layerId = "2B2FE4A8-39A2-493B-A970-B9343EE81639";
name = Regular;
paths = (
{
closed = 1;
nodes = (
"23 484 LINE SMOOTH",
"10 484 OFFCURVE",
"0 474 OFFCURVE",
"0 461 CURVE SMOOTH",
"0 138 LINE SMOOTH",
"0 126 OFFCURVE",
"10 115 OFFCURVE",
"23 115 CURVE SMOOTH",
"321 115 LINE",
"312 127 OFFCURVE",
"306 143 OFFCURVE",
"306 159 CURVE SMOOTH",
"306 199 OFFCURVE",
"338 231 OFFCURVE",
"377 231 CURVE SMOOTH",
"394 231 LINE",
"394 246 LINE SMOOTH",
"394 285 OFFCURVE",
"426 317 OFFCURVE",
"465 317 CURVE SMOOTH",
"504 317 OFFCURVE",
"536 285 OFFCURVE",
"536 246 CURVE SMOOTH",
"536 231 LINE",
"552 231 LINE SMOOTH",
"570 231 OFFCURVE",
"587 223 OFFCURVE",
"600 212 CURVE",
"600 461 LINE SMOOTH",
"600 474 OFFCURVE",
"590 484 OFFCURVE",
"577 484 CURVE SMOOTH"
);
},
{
closed = 1;
nodes = (
"138 369 LINE",
"138 300 LINE",
"69 300 LINE",
"69 369 LINE"
);
},
{
closed = 1;
nodes = (
"513 154 LINE",
"513 215 LINE SMOOTH",
"513 229 OFFCURVE",
"502 240 OFFCURVE",
"488 240 CURVE SMOOTH",
"474 240 OFFCURVE",
"463 229 OFFCURVE",
"463 215 CURVE SMOOTH",
"463 154 LINE",
"400 154 LINE SMOOTH",
"386 154 OFFCURVE",
"375 142 OFFCURVE",
"375 128 CURVE SMOOTH",
"375 114 OFFCURVE",
"386 103 OFFCURVE",
"400 103 CURVE SMOOTH",
"463 103 LINE",
"463 40 LINE SMOOTH",
"463 26 OFFCURVE",
"474 15 OFFCURVE",
"488 15 CURVE SMOOTH",
"502 15 OFFCURVE",
"513 26 OFFCURVE",
"513 40 CURVE SMOOTH",
"513 103 LINE",
"575 103 LINE SMOOTH",
"589 103 OFFCURVE",
"600 114 OFFCURVE",
"600 128 CURVE SMOOTH",
"600 142 OFFCURVE",
"589 154 OFFCURVE",
"575 154 CURVE SMOOTH"
);
}
);
width = 600;
}
);
unicode = 002D;
},
{
glyphname = guilsinglright;
lastChange = "2012-12-12 16:57:09 -0300";
layers = (
{
layerId = "2B2FE4A8-39A2-493B-A970-B9343EE81639";
name = Regular;
paths = (
{
closed = 1;
nodes = (
"600 410 LINE SMOOTH",
"600 404 OFFCURVE",
"596 400 OFFCURVE",
"590 400 CURVE SMOOTH",
"10 400 LINE SMOOTH",
"4 400 OFFCURVE",
"0 404 OFFCURVE",
"0 410 CURVE SMOOTH",
"0 490 LINE SMOOTH",
"0 496 OFFCURVE",
"4 500 OFFCURVE",
"10 500 CURVE SMOOTH",
"590 500 LINE SMOOTH",
"596 500 OFFCURVE",
"600 496 OFFCURVE",
"600 490 CURVE SMOOTH"
);
},
{
closed = 1;
nodes = (
"600 210 LINE SMOOTH",
"600 204 OFFCURVE",
"596 200 OFFCURVE",
"590 200 CURVE SMOOTH",
"10 200 LINE SMOOTH",
"4 200 OFFCURVE",
"0 204 OFFCURVE",
"0 210 CURVE SMOOTH",
"0 290 LINE SMOOTH",
"0 296 OFFCURVE",
"4 300 OFFCURVE",
"10 300 CURVE SMOOTH",
"590 300 LINE SMOOTH",
"596 300 OFFCURVE",
"600 296 OFFCURVE",
"600 290 CURVE SMOOTH"
);
},
{
closed = 1;
nodes = (
"600 10 LINE SMOOTH",
"600 4 OFFCURVE",
"596 0 OFFCURVE",
"590 0 CURVE SMOOTH",
"10 0 LINE SMOOTH",
"4 0 OFFCURVE",
"0 4 OFFCURVE",
"0 10 CURVE SMOOTH",
"0 90 LINE SMOOTH",
"0 96 OFFCURVE",
"4 100 OFFCURVE",
"10 100 CURVE SMOOTH",
"590 100 LINE SMOOTH",
"596 100 OFFCURVE",
"600 96 OFFCURVE",
"600 90 CURVE SMOOTH"
);
}
);
width = 600;
}
);
unicode = 203A;
},
{
glyphname = dollar;
layers = (
{
layerId = "2B2FE4A8-39A2-493B-A970-B9343EE81639";
name = Regular;
paths = (
{
closed = 1;
nodes = (
"211 321 LINE",
"260 326 OFFCURVE",
"297 366 OFFCURVE",
"300 415 CURVE",
"297 462 OFFCURVE",
"258 500 OFFCURVE",
"210 500 CURVE SMOOTH",
"121 500 LINE",
"121 411 LINE SMOOTH",
"121 361 OFFCURVE",
"161 321 OFFCURVE",
"210 321 CURVE SMOOTH"
);
},
{
closed = 1;
nodes = (
"479 500 LINE",
"389 500 LINE SMOOTH",
"342 500 OFFCURVE",
"302 462 OFFCURVE",
"300 415 CURVE",
"302 366 OFFCURVE",
"340 326 OFFCURVE",
"389 321 CURVE",
"439 321 OFFCURVE",
"479 361 OFFCURVE",
"479 411 CURVE SMOOTH"
);
},
{
closed = 1;
nodes = (
"181 427 OFFCURVE",
"194 440 OFFCURVE",
"210 440 CURVE SMOOTH",
"227 440 OFFCURVE",
"240 427 OFFCURVE",
"240 411 CURVE SMOOTH",
"240 394 OFFCURVE",
"227 381 OFFCURVE",
"210 381 CURVE SMOOTH",
"194 381 OFFCURVE",
"181 394 OFFCURVE",
"181 411 CURVE SMOOTH"
);
},
{
closed = 1;
nodes = (
"373 381 OFFCURVE",
"360 394 OFFCURVE",
"360 411 CURVE SMOOTH",
"360 427 OFFCURVE",
"373 440 OFFCURVE",
"389 440 CURVE SMOOTH",
"406 440 OFFCURVE",
"419 427 OFFCURVE",
"419 411 CURVE SMOOTH",
"419 394 OFFCURVE",
"406 381 OFFCURVE",
"389 381 CURVE SMOOTH"
);
},
{
closed = 1;
nodes = (
"491 138 LINE",
"478 368 LINE",
"473 323 OFFCURVE",
"435 289 OFFCURVE",
"389 289 CURVE SMOOTH",
"335 289 LINE",
"314 271 OFFCURVE",
"300 243 OFFCURVE",
"300 213 CURVE",
"300 243 OFFCURVE",
"286 271 OFFCURVE",
"265 289 CURVE",
"210 289 LINE SMOOTH",
"165 289 OFFCURVE",
"127 323 OFFCURVE",
"122 368 CURVE",
"109 138 LINE",
"109 132 LINE SMOOTH",
"109 103 OFFCURVE",
"135 77 OFFCURVE",
"176 60 CURVE",
"168 57 OFFCURVE",
"161 52 OFFCURVE",
"158 47 CURVE SMOOTH",
"151 35 OFFCURVE",
"165 20 OFFCURVE",
"170 10 CURVE",
"175 31 OFFCURVE",
"195 13 OFFCURVE",
"198 0 CURVE",
"201 13 OFFCURVE",
"219 29 OFFCURVE",
"225 11 CURVE",
"229 17 OFFCURVE",
"239 33 OFFCURVE",
"239 39 CURVE SMOOTH",
"239 42 LINE",
"258 39 OFFCURVE",
"279 37 OFFCURVE",
"300 37 CURVE SMOOTH",
"321 37 OFFCURVE",
"340 39 OFFCURVE",
"359 42 CURVE",
"358 31 OFFCURVE",
"369 18 OFFCURVE",
"373 10 CURVE",
"378 31 OFFCURVE",
"398 13 OFFCURVE",
"400 0 CURVE",
"403 13 OFFCURVE",
"422 29 OFFCURVE",
"428 11 CURVE",
"431 17 OFFCURVE",
"442 33 OFFCURVE",
"442 39 CURVE SMOOTH",
"442 50 OFFCURVE",
"435 57 OFFCURVE",
"425 60 CURVE",
"465 78 OFFCURVE",
"491 104 OFFCURVE",
"491 132 CURVE SMOOTH"
);
}
);
width = 600;
}
);
unicode = 0024;
},
{
glyphname = divide;
layers = (
{
layerId = "2B2FE4A8-39A2-493B-A970-B9343EE81639";
name = Regular;
paths = (
{
closed = 1;
nodes = (
"88 400 LINE",
"512 400 LINE",
"300 100 LINE"
);
}
);
width = 600;
}
);
unicode = 00F7;
},
{
glyphname = equal;
layers = (
{
layerId = "2B2FE4A8-39A2-493B-A970-B9343EE81639";
name = Regular;
paths = (
{
closed = 1;
nodes = (
"83 50 LINE SMOOTH",
"75 42 OFFCURVE",
"75 29 OFFCURVE",
"83 21 CURVE SMOOTH",
"98 6 LINE SMOOTH",
"106 -2 OFFCURVE",
"119 -2 OFFCURVE",
"127 6 CURVE SMOOTH",
"204 83 LINE",
"295 14 OFFCURVE",
"426 21 OFFCURVE",
"509 104 CURVE SMOOTH",
"600 194 OFFCURVE",
"600 341 OFFCURVE",
"509 432 CURVE SMOOTH",
"418 523 OFFCURVE",
"271 523 OFFCURVE",
"181 432 CURVE SMOOTH",
"98 349 OFFCURVE",
"91 218 OFFCURVE",
"160 127 CURVE"
);
},
{
closed = 1;
nodes = (
"174 169 OFFCURVE",
"154 217 OFFCURVE",
"154 268 CURVE SMOOTH",
"154 319 OFFCURVE",
"174 367 OFFCURVE",
"210 403 CURVE SMOOTH",
"246 439 OFFCURVE",
"294 459 OFFCURVE",
"345 459 CURVE SMOOTH",
"396 459 OFFCURVE",
"444 439 OFFCURVE",
"480 403 CURVE SMOOTH",
"516 367 OFFCURVE",
"536 319 OFFCURVE",
"536 268 CURVE SMOOTH",
"536 217 OFFCURVE",
"516 169 OFFCURVE",
"480 133 CURVE SMOOTH",
"444 97 OFFCURVE",
"396 77 OFFCURVE",
"345 77 CURVE SMOOTH",
"294 77 OFFCURVE",
"246 97 OFFCURVE",
"210 133 CURVE SMOOTH"
);
},
{
closed = 1;
nodes = (
"458 347 LINE",
"359 347 LINE",
"331 374 LINE",
"267 374 LINE",
"240 339 LINE",
"240 174 LINE",
"458 174 LINE"
);
}
);
width = 600;
}
);
unicode = 003D;
},
{
glyphname = percent;
layers = (
{
layerId = "2B2FE4A8-39A2-493B-A970-B9343EE81639";
name = Regular;
paths = (
{
closed = 1;
nodes = (
"83 50 LINE SMOOTH",
"75 42 OFFCURVE",
"75 29 OFFCURVE",
"83 21 CURVE SMOOTH",
"98 6 LINE SMOOTH",
"106 -2 OFFCURVE",
"119 -2 OFFCURVE",
"127 6 CURVE SMOOTH",
"204 83 LINE",
"295 14 OFFCURVE",
"426 21 OFFCURVE",
"509 104 CURVE SMOOTH",
"600 194 OFFCURVE",
"600 341 OFFCURVE",
"509 432 CURVE SMOOTH",
"418 523 OFFCURVE",
"271 523 OFFCURVE",
"181 432 CURVE SMOOTH",
"98 349 OFFCURVE",
"91 218 OFFCURVE",
"160 127 CURVE"
);
},
{
closed = 1;
nodes = (
"174 169 OFFCURVE",
"154 217 OFFCURVE",
"154 268 CURVE SMOOTH",
"154 319 OFFCURVE",
"174 367 OFFCURVE",
"210 403 CURVE SMOOTH",
"246 439 OFFCURVE",
"294 459 OFFCURVE",
"345 459 CURVE SMOOTH",
"396 459 OFFCURVE",
"444 439 OFFCURVE",
"480 403 CURVE SMOOTH",
"516 367 OFFCURVE",
"536 319 OFFCURVE",
"536 268 CURVE SMOOTH",
"536 217 OFFCURVE",
"516 169 OFFCURVE",
"480 133 CURVE SMOOTH",
"444 97 OFFCURVE",
"396 77 OFFCURVE",
"345 77 CURVE SMOOTH",
"294 77 OFFCURVE",
"246 97 OFFCURVE",
"210 133 CURVE SMOOTH"
);
},
{
closed = 1;
nodes = (
"235 352 LINE SMOOTH",
"226 352 OFFCURVE",
"218 344 OFFCURVE",
"218 335 CURVE SMOOTH",
"218 199 LINE SMOOTH",
"218 190 OFFCURVE",
"226 182 OFFCURVE",
"235 182 CURVE SMOOTH",
"465 182 LINE SMOOTH",
"474 182 OFFCURVE",
"482 190 OFFCURVE",
"482 199 CURVE SMOOTH",
"482 335 LINE SMOOTH",
"482 344 OFFCURVE",
"474 352 OFFCURVE",
"465 352 CURVE SMOOTH"
);
},
{
closed = 1;
nodes = (
"338 333 LINE",
"338 210 LINE",
"321 210 LINE",
"321 211 OFFCURVE",
"321 211 OFFCURVE",
"321 212 CURVE SMOOTH",
"321 223 OFFCURVE",
"315 242 OFFCURVE",
"304 242 CURVE SMOOTH",
"292 242 LINE SMOOTH",
"292 242 OFFCURVE",
"293 244 OFFCURVE",
"293 245 CURVE",
"303 249 OFFCURVE",
"311 260 OFFCURVE",
"311 272 CURVE SMOOTH",
"311 288 OFFCURVE",
"299 300 OFFCURVE",
"284 300 CURVE SMOOTH",
"270 300 OFFCURVE",
"257 288 OFFCURVE",
"257 272 CURVE SMOOTH",
"257 260 OFFCURVE",
"265 249 OFFCURVE",
"275 245 CURVE",
"275 244 OFFCURVE",
"275 242 OFFCURVE",
"276 242 CURVE",
"265 242 LINE SMOOTH",
"256 242 OFFCURVE",
"249 230 OFFCURVE",
"249 218 CURVE",
"248 216 OFFCURVE",
"248 215 OFFCURVE",
"248 214 CURVE SMOOTH",
"248 213 OFFCURVE",
"248 213 OFFCURVE",
"248 212 CURVE SMOOTH",
"248 210 LINE",
"232 210 LINE",
"232 333 LINE"
);
},
{
closed = 1;
nodes = (
"463 333 LINE",
"463 298 LINE",
"350 298 LINE",
"350 333 LINE"
);
},
{
closed = 1;
nodes = (
"350 256 LINE",
"350 275 LINE",
"388 275 LINE",
"388 256 LINE"
);
},
{
closed = 1;
nodes = (
"463 275 LINE",
"463 256 LINE",
"407 256 LINE",
"407 275 LINE"
);
},
{
closed = 1;
nodes = (
"463 231 LINE",
"463 208 LINE",
"350 208 LINE",
"350 231 LINE"
);
}
);
width = 600;
}
);
unicode = 0025;
},
{
glyphname = plus;
lastChange = "2013-03-19 15:43:06 -0300";
layers = (
{
background = {
paths = (
{
closed = 1;
nodes = (
"45 50 LINE SMOOTH",
"37 42 OFFCURVE",
"37 29 OFFCURVE",
"45 21 CURVE SMOOTH",
"60 6 LINE SMOOTH",
"68 -2 OFFCURVE",
"81 -2 OFFCURVE",
"89 6 CURVE SMOOTH",
"166 83 LINE",
"257 14 OFFCURVE",
"388 21 OFFCURVE",
"471 104 CURVE SMOOTH",
"562 194 OFFCURVE",
"562 341 OFFCURVE",
"471 432 CURVE SMOOTH",
"380 523 OFFCURVE",
"233 523 OFFCURVE",
"143 432 CURVE SMOOTH",
"60 349 OFFCURVE",
"53 218 OFFCURVE",
"122 127 CURVE"
);
},
{
closed = 1;
nodes = (
"136 169 OFFCURVE",
"116 217 OFFCURVE",
"116 268 CURVE SMOOTH",
"116 319 OFFCURVE",
"136 367 OFFCURVE",
"172 403 CURVE SMOOTH",
"208 439 OFFCURVE",
"256 459 OFFCURVE",
"307 459 CURVE SMOOTH",
"358 459 OFFCURVE",
"406 439 OFFCURVE",
"442 403 CURVE SMOOTH",
"478 367 OFFCURVE",
"498 319 OFFCURVE",
"498 268 CURVE SMOOTH",
"498 217 OFFCURVE",
"478 169 OFFCURVE",
"442 133 CURVE SMOOTH",
"406 97 OFFCURVE",
"358 77 OFFCURVE",
"307 77 CURVE SMOOTH",
"256 77 OFFCURVE",
"208 97 OFFCURVE",
"172 133 CURVE SMOOTH"
);
},
{
closed = 1;
nodes = (
"260 392 OFFCURVE",
"228 359 OFFCURVE",
"228 319 CURVE SMOOTH",
"228 299 OFFCURVE",
"233 284 OFFCURVE",
"248 266 CURVE",
"253 236 OFFCURVE",
"276 208 OFFCURVE",
"306 208 CURVE SMOOTH",
"338 208 OFFCURVE",
"359 236 OFFCURVE",
"364 266 CURVE",
"379 284 OFFCURVE",
"386 299 OFFCURVE",
"386 319 CURVE SMOOTH",
"386 359 OFFCURVE",
"354 392 OFFCURVE",
"306 392 CURVE SMOOTH"
);
},
{
closed = 1;
nodes = (
"273 289 LINE",
"273 289 OFFCURVE",
"273 291 OFFCURVE",
"276 291 CURVE SMOOTH",
"278 291 OFFCURVE",
"281 291 OFFCURVE",
"281 289 CURVE",
"301 251 LINE",
"303 251 OFFCURVE",
"306 251 OFFCURVE",
"306 251 CURVE",
"311 251 LINE",
"331 289 LINE",
"331 291 OFFCURVE",
"333 291 OFFCURVE",
"336 291 CURVE SMOOTH",
"338 291 OFFCURVE",
"341 289 OFFCURVE",
"341 289 CURVE",
"321 248 LINE",
"333 248 OFFCURVE",
"341 243 OFFCURVE",
"341 238 CURVE SMOOTH",
"341 233 OFFCURVE",
"326 228 OFFCURVE",
"306 228 CURVE SMOOTH",
"286 228 OFFCURVE",
"270 233 OFFCURVE",
"270 238 CURVE SMOOTH",
"270 243 OFFCURVE",
"281 248 OFFCURVE",
"293 248 CURVE"
);
},
{
closed = 1;
nodes = (
"266 173 LINE SMOOTH",
"266 166 OFFCURVE",
"276 157 OFFCURVE",
"291 155 CURVE",
"291 147 LINE SMOOTH",
"291 143 OFFCURVE",
"293 140 OFFCURVE",
"298 140 CURVE SMOOTH",
"313 140 LINE SMOOTH",
"318 140 OFFCURVE",
"323 143 OFFCURVE",
"323 147 CURVE SMOOTH",
"323 155 LINE",
"336 157 OFFCURVE",
"346 166 OFFCURVE",
"346 173 CURVE SMOOTH",
"346 200 LINE",
"336 190 OFFCURVE",
"321 186 OFFCURVE",
"306 186 CURVE SMOOTH",
"291 186 OFFCURVE",
"278 190 OFFCURVE",
"266 200 CURVE"
);
},
{
closed = 1;
nodes = (
"338 176 LINE",
"338 176 OFFCURVE",
"326 166 OFFCURVE",
"306 166 CURVE SMOOTH",
"286 166 OFFCURVE",
"273 176 OFFCURVE",
"273 176 CURVE",
"273 186 LINE",
"273 186 OFFCURVE",
"291 176 OFFCURVE",
"306 176 CURVE SMOOTH",
"323 176 OFFCURVE",
"338 186 OFFCURVE",
"338 186 CURVE"
);
}
);
};
layerId = "2B2FE4A8-39A2-493B-A970-B9343EE81639";
name = Regular;
paths = (
{
closed = 1;
nodes = (
"45 50 LINE SMOOTH",
"37 42 OFFCURVE",
"37 29 OFFCURVE",
"45 21 CURVE SMOOTH",
"60 6 LINE SMOOTH",
"68 -2 OFFCURVE",
"81 -2 OFFCURVE",
"89 6 CURVE SMOOTH",
"166 83 LINE",
"257 14 OFFCURVE",
"388 21 OFFCURVE",
"471 104 CURVE SMOOTH",
"562 194 OFFCURVE",
"562 341 OFFCURVE",
"471 432 CURVE SMOOTH",
"380 523 OFFCURVE",
"233 523 OFFCURVE",
"143 432 CURVE SMOOTH",
"60 349 OFFCURVE",
"53 218 OFFCURVE",
"122 127 CURVE"
);
},
{
closed = 1;
nodes = (
"136 169 OFFCURVE",
"116 217 OFFCURVE",
"116 268 CURVE SMOOTH",
"116 319 OFFCURVE",
"136 367 OFFCURVE",
"172 403 CURVE SMOOTH",
"208 439 OFFCURVE",
"256 459 OFFCURVE",
"307 459 CURVE SMOOTH",
"358 459 OFFCURVE",
"406 439 OFFCURVE",
"442 403 CURVE SMOOTH",
"478 367 OFFCURVE",
"498 319 OFFCURVE",
"498 268 CURVE SMOOTH",
"498 217 OFFCURVE",
"478 169 OFFCURVE",
"442 133 CURVE SMOOTH",
"406 97 OFFCURVE",
"358 77 OFFCURVE",
"307 77 CURVE SMOOTH",
"256 77 OFFCURVE",
"208 97 OFFCURVE",
"172 133 CURVE SMOOTH"
);
},
{
closed = 1;
nodes = (
"260 392 OFFCURVE",
"228 359 OFFCURVE",
"228 319 CURVE SMOOTH",
"228 299 OFFCURVE",
"233 284 OFFCURVE",
"248 266 CURVE",
"253 236 OFFCURVE",
"276 208 OFFCURVE",
"306 208 CURVE SMOOTH",
"338 208 OFFCURVE",
"359 236 OFFCURVE",
"364 266 CURVE",
"379 284 OFFCURVE",
"386 299 OFFCURVE",
"386 319 CURVE SMOOTH",
"386 359 OFFCURVE",
"354 392 OFFCURVE",
"306 392 CURVE SMOOTH"
);
},
{
closed = 1;
nodes = (
"273 289 LINE",
"273 289 OFFCURVE",
"273 291 OFFCURVE",
"276 291 CURVE SMOOTH",
"278 291 OFFCURVE",
"281 291 OFFCURVE",
"281 289 CURVE",
"301 251 LINE",
"303 251 OFFCURVE",
"306 251 OFFCURVE",
"306 251 CURVE",
"311 251 LINE",
"331 289 LINE",
"331 291 OFFCURVE",
"333 291 OFFCURVE",
"336 291 CURVE SMOOTH",
"338 291 OFFCURVE",
"341 289 OFFCURVE",
"341 289 CURVE",
"321 248 LINE",
"333 248 OFFCURVE",
"341 243 OFFCURVE",
"341 238 CURVE SMOOTH",
"341 233 OFFCURVE",
"326 228 OFFCURVE",
"306 228 CURVE SMOOTH",
"286 228 OFFCURVE",
"270 233 OFFCURVE",
"270 238 CURVE SMOOTH",
"270 243 OFFCURVE",
"281 248 OFFCURVE",
"293 248 CURVE"
);
},
{
closed = 1;
nodes = (
"266 173 LINE SMOOTH",
"266 166 OFFCURVE",
"276 157 OFFCURVE",
"291 155 CURVE",
"291 147 LINE SMOOTH",
"291 143 OFFCURVE",
"293 140 OFFCURVE",
"298 140 CURVE SMOOTH",
"313 140 LINE SMOOTH",
"318 140 OFFCURVE",
"323 143 OFFCURVE",
"323 147 CURVE SMOOTH",
"323 155 LINE",
"336 157 OFFCURVE",
"346 166 OFFCURVE",
"346 173 CURVE SMOOTH",
"346 200 LINE",
"336 190 OFFCURVE",
"321 186 OFFCURVE",
"306 186 CURVE SMOOTH",
"291 186 OFFCURVE",
"278 190 OFFCURVE",
"266 200 CURVE"
);
},
{
closed = 1;
nodes = (
"338 176 LINE",
"338 176 OFFCURVE",
"326 166 OFFCURVE",
"306 166 CURVE SMOOTH",
"286 166 OFFCURVE",
"273 176 OFFCURVE",
"273 176 CURVE",
"273 186 LINE",
"273 186 OFFCURVE",
"291 176 OFFCURVE",
"306 176 CURVE SMOOTH",
"323 176 OFFCURVE",
"338 186 OFFCURVE",
"338 186 CURVE"
);
}
);
width = 600;
},
{
associatedMasterId = "2B2FE4A8-39A2-493B-A970-B9343EE81639";
layerId = "C3E07DE6-1F0D-4EB9-B814-35F02EA15E70";
name = "Regular Mar 19 13, 15:39";
paths = (
{
closed = 1;
nodes = (
"45 50 LINE SMOOTH",
"37 42 OFFCURVE",
"37 29 OFFCURVE",
"45 21 CURVE SMOOTH",
"60 6 LINE SMOOTH",
"68 -2 OFFCURVE",
"81 -2 OFFCURVE",
"89 6 CURVE SMOOTH",
"166 83 LINE",
"257 14 OFFCURVE",
"388 21 OFFCURVE",
"471 104 CURVE SMOOTH",
"562 194 OFFCURVE",
"562 341 OFFCURVE",
"471 432 CURVE SMOOTH",
"380 523 OFFCURVE",
"233 523 OFFCURVE",
"143 432 CURVE SMOOTH",
"60 349 OFFCURVE",
"53 218 OFFCURVE",
"122 127 CURVE"
);
},
{
closed = 1;
nodes = (
"136 169 OFFCURVE",
"116 217 OFFCURVE",
"116 268 CURVE SMOOTH",
"116 319 OFFCURVE",
"136 367 OFFCURVE",
"172 403 CURVE SMOOTH",
"208 439 OFFCURVE",
"256 459 OFFCURVE",
"307 459 CURVE SMOOTH",
"358 459 OFFCURVE",
"406 439 OFFCURVE",
"442 403 CURVE SMOOTH",
"478 367 OFFCURVE",
"498 319 OFFCURVE",
"498 268 CURVE SMOOTH",
"498 217 OFFCURVE",
"478 169 OFFCURVE",
"442 133 CURVE SMOOTH",
"406 97 OFFCURVE",
"358 77 OFFCURVE",
"307 77 CURVE SMOOTH",
"256 77 OFFCURVE",
"208 97 OFFCURVE",
"172 133 CURVE SMOOTH"
);
},
{
closed = 1;
nodes = (
"260 392 OFFCURVE",
"228 359 OFFCURVE",
"228 319 CURVE SMOOTH",
"228 299 OFFCURVE",
"233 284 OFFCURVE",
"248 266 CURVE",
"253 236 OFFCURVE",
"276 208 OFFCURVE",
"306 208 CURVE SMOOTH",
"338 208 OFFCURVE",
"359 236 OFFCURVE",
"364 266 CURVE",
"379 284 OFFCURVE",
"386 299 OFFCURVE",
"386 319 CURVE SMOOTH",
"386 359 OFFCURVE",
"354 392 OFFCURVE",
"306 392 CURVE SMOOTH"
);
},
{
closed = 1;
nodes = (
"273 289 LINE",
"273 289 OFFCURVE",
"273 291 OFFCURVE",
"276 291 CURVE SMOOTH",
"277 291 OFFCURVE",
"278 291 OFFCURVE",
"279 291 CURVE SMOOTH",
"281 290 OFFCURVE",
"282 287 OFFCURVE",
"286 280 CURVE SMOOTH",
"295 262 LINE SMOOTH",
"299 254 OFFCURVE",
"303 251 OFFCURVE",
"306 251 CURVE",
"299 251 LINE SMOOTH",
"307 251 OFFCURVE",
"313 254 OFFCURVE",
"317 262 CURVE SMOOTH",
"331 289 LINE",
"331 291 OFFCURVE",
"333 291 OFFCURVE",
"336 291 CURVE SMOOTH",
"338 291 OFFCURVE",
"341 289 OFFCURVE",
"341 289 CURVE",
"328 261 LINE SMOOTH",
"323 253 OFFCURVE",
"327 250 OFFCURVE",
"336 245 CURVE SMOOTH",
"339 243 OFFCURVE",
"341 240 OFFCURVE",
"341 238 CURVE SMOOTH",
"341 233 OFFCURVE",
"326 228 OFFCURVE",
"306 228 CURVE SMOOTH",
"286 228 OFFCURVE",
"270 233 OFFCURVE",
"270 238 CURVE SMOOTH",
"270 241 OFFCURVE",
"274 244 OFFCURVE",
"280 246 CURVE SMOOTH",
"288 249 OFFCURVE",
"290 253 OFFCURVE",
"286 262 CURVE SMOOTH"
);
},
{
closed = 1;
nodes = (
"266 173 LINE SMOOTH",
"266 166 OFFCURVE",
"276 157 OFFCURVE",
"291 155 CURVE",
"291 147 LINE SMOOTH",
"291 143 OFFCURVE",
"293 140 OFFCURVE",
"298 140 CURVE SMOOTH",
"313 140 LINE SMOOTH",
"318 140 OFFCURVE",
"323 143 OFFCURVE",
"323 147 CURVE SMOOTH",
"323 155 LINE",
"336 157 OFFCURVE",
"346 166 OFFCURVE",
"346 173 CURVE SMOOTH",
"346 181 LINE SMOOTH",
"346 192 OFFCURVE",
"341 194 OFFCURVE",
"330 190 CURVE SMOOTH",
"323 187 OFFCURVE",
"314 186 OFFCURVE",
"306 186 CURVE SMOOTH",
"298 186 OFFCURVE",
"290 187 OFFCURVE",
"283 190 CURVE SMOOTH",
"272 194 OFFCURVE",
"266 195 OFFCURVE",
"266 187 CURVE SMOOTH"
);
},
{
closed = 1;
nodes = (
"338 176 LINE",
"338 176 OFFCURVE",
"326 166 OFFCURVE",
"306 166 CURVE SMOOTH",
"286 166 OFFCURVE",
"273 176 OFFCURVE",
"273 176 CURVE",
"273 186 LINE",
"273 186 OFFCURVE",
"291 176 OFFCURVE",
"306 176 CURVE SMOOTH",
"323 176 OFFCURVE",
"338 186 OFFCURVE",
"338 186 CURVE"
);
}
);
width = 600;
}
);
unicode = 002B;
},
{
glyphname = bar;
layers = (
{
layerId = "2B2FE4A8-39A2-493B-A970-B9343EE81639";
name = Regular;
paths = (
{
closed = 1;
nodes = (
"450 400 LINE",
"450 100 LINE",
"150 100 LINE",
"150 400 LINE"
);
}
);
width = 600;
}
);
unicode = 007C;
},
{
glyphname = Eacute;
lastChange = "2013-10-25 11:39:34 -0300";
layers = (
{
layerId = "2B2FE4A8-39A2-493B-A970-B9343EE81639";
name = Regular;
paths = (
{
closed = 1;
nodes = (
"468 299 LINE",
"468 299 OFFCURVE",
"468 305 OFFCURVE",
"469 308 CURVE",
"495 317 OFFCURVE",
"514 343 OFFCURVE",
"514 374 CURVE SMOOTH",
"514 412 OFFCURVE",
"485 444 OFFCURVE",
"448 444 CURVE SMOOTH",
"412 444 OFFCURVE",
"382 412 OFFCURVE",
"382 374 CURVE SMOOTH",
"382 344 OFFCURVE",
"400 318 OFFCURVE",
"425 308 CURVE",
"426 306 OFFCURVE",
"426 299 OFFCURVE",
"426 299 CURVE SMOOTH",
"401 299 LINE SMOOTH",
"380 299 OFFCURVE",
"359 270 OFFCURVE",
"350 246 CURVE",
"378 240 OFFCURVE",
"405 208 OFFCURVE",
"422 175 CURVE",
"430 175 OFFCURVE",
"439 174 OFFCURVE",
"448 174 CURVE SMOOTH",
"504 174 OFFCURVE",
"550 188 OFFCURVE",
"550 225 CURVE SMOOTH",
"550 229 LINE SMOOTH",
"550 254 OFFCURVE",
"524 299 OFFCURVE",
"497 299 CURVE SMOOTH"
);
},
{
closed = 1;
nodes = (
"440 187 OFFCURVE",
"434 194 OFFCURVE",
"434 201 CURVE SMOOTH",
"434 208 OFFCURVE",
"440 214 OFFCURVE",
"448 214 CURVE SMOOTH",
"455 214 OFFCURVE",
"461 208 OFFCURVE",
"461 201 CURVE SMOOTH",
"461 194 OFFCURVE",
"455 187 OFFCURVE",
"448 187 CURVE SMOOTH"
);
},
{
closed = 1;
nodes = (
"440 221 OFFCURVE",
"434 227 OFFCURVE",
"434 235 CURVE SMOOTH",
"434 242 OFFCURVE",
"440 248 OFFCURVE",
"448 248 CURVE SMOOTH",
"455 248 OFFCURVE",
"461 242 OFFCURVE",
"461 235 CURVE SMOOTH",
"461 227 OFFCURVE",
"455 221 OFFCURVE",
"448 221 CURVE SMOOTH"
);
},
{
closed = 1;
nodes = (
"440 255 OFFCURVE",
"434 261 OFFCURVE",
"434 269 CURVE SMOOTH",
"434 276 OFFCURVE",
"440 282 OFFCURVE",
"448 282 CURVE SMOOTH",
"455 282 OFFCURVE",
"461 276 OFFCURVE",
"461 269 CURVE SMOOTH",
"461 261 OFFCURVE",
"455 255 OFFCURVE",
"448 255 CURVE SMOOTH"
);
},
{
closed = 1;
nodes = (
"277 232 LINE",
"278 232 OFFCURVE",
"278 243 OFFCURVE",
"279 248 CURVE",
"329 265 OFFCURVE",
"364 314 OFFCURVE",
"364 370 CURVE SMOOTH",
"364 442 OFFCURVE",
"309 500 OFFCURVE",
"240 500 CURVE SMOOTH",
"173 500 OFFCURVE",
"118 442 OFFCURVE",
"118 371 CURVE SMOOTH",
"118 315 OFFCURVE",
"151 267 OFFCURVE",
"198 249 CURVE",
"199 244 OFFCURVE",
"200 232 OFFCURVE",
"200 232 CURVE SMOOTH",
"153 232 LINE SMOOTH",
"112 232 OFFCURVE",
"69 171 OFFCURVE",
"55 124 CURVE SMOOTH",
"53 118 OFFCURVE",
"51 111 OFFCURVE",
"51 105 CURVE",
"50 102 OFFCURVE",
"50 98 OFFCURVE",
"50 95 CURVE SMOOTH",
"50 25 OFFCURVE",
"135 0 OFFCURVE",
"240 0 CURVE SMOOTH",
"346 0 OFFCURVE",
"431 25 OFFCURVE",
"431 95 CURVE SMOOTH",
"431 102 LINE SMOOTH",
"431 148 OFFCURVE",
"382 232 OFFCURVE",
"333 232 CURVE SMOOTH"
);
},
{
closed = 1;
nodes = (
"240 21 LINE",
"210 51 LINE",
"236 167 LINE",
"205 198 LINE",
"275 198 LINE",
"244 167 LINE",
"270 51 LINE"
);
}
);
width = 600;
}
);
unicode = 00C9;
},
{
glyphname = Ecircumflex;
lastChange = "2013-10-25 12:14:11 -0300";
layers = (
{
layerId = "2B2FE4A8-39A2-493B-A970-B9343EE81639";
name = Regular;
paths = (
{
closed = 1;
nodes = (
"548 218 LINE",
"546 224 OFFCURVE",
"543 229 OFFCURVE",
"541 236 CURVE",
"547 244 OFFCURVE",
"553 251 OFFCURVE",
"560 259 CURVE",
"560 261 OFFCURVE",
"561 262 OFFCURVE",
"561 264 CURVE SMOOTH",
"561 270 OFFCURVE",
"535 293 OFFCURVE",
"530 298 CURVE",
"529 299 OFFCURVE",
"527 300 OFFCURVE",
"526 300 CURVE SMOOTH",
"524 300 OFFCURVE",
"523 299 OFFCURVE",
"521 299 CURVE",
"496 280 LINE",
"491 281 OFFCURVE",
"486 284 OFFCURVE",
"480 286 CURVE",
"474 319 LINE",
"474 322 OFFCURVE",
"471 324 OFFCURVE",
"468 324 CURVE SMOOTH",
"429 324 LINE SMOOTH",
"426 324 OFFCURVE",
"423 322 OFFCURVE",
"423 319 CURVE SMOOTH",
"420 308 OFFCURVE",
"419 296 OFFCURVE",
"417 286 CURVE",
"412 284 OFFCURVE",
"406 281 OFFCURVE",
"401 279 CURVE",
"376 299 LINE",
"376 299 OFFCURVE",
"374 300 OFFCURVE",
"372 300 CURVE SMOOTH",
"366 300 OFFCURVE",
"342 274 OFFCURVE",
"338 268 CURVE",
"337 267 OFFCURVE",
"336 265 OFFCURVE",
"336 264 CURVE SMOOTH",
"336 262 OFFCURVE",
"337 261 OFFCURVE",
"338 259 CURVE",
"345 251 OFFCURVE",
"351 244 OFFCURVE",
"357 235 CURVE",
"354 229 OFFCURVE",
"352 224 OFFCURVE",
"350 219 CURVE",
"316 214 LINE",
"314 214 OFFCURVE",
"312 210 OFFCURVE",
"312 207 CURVE SMOOTH",
"312 168 LINE SMOOTH",
"312 165 OFFCURVE",
"314 162 OFFCURVE",
"317 162 CURVE",
"350 156 LINE",
"352 150 OFFCURVE",
"354 145 OFFCURVE",
"357 138 CURVE",
"351 131 OFFCURVE",
"345 123 OFFCURVE",
"338 115 CURVE",
"337 113 OFFCURVE",
"337 112 OFFCURVE",
"337 110 CURVE SMOOTH",
"337 104 OFFCURVE",
"362 81 OFFCURVE",
"368 77 CURVE",
"368 75 OFFCURVE",
"370 74 OFFCURVE",
"372 74 CURVE SMOOTH",
"374 74 OFFCURVE",
"376 75 OFFCURVE",
"376 77 CURVE",
"401 95 LINE",
"406 93 OFFCURVE",
"412 90 OFFCURVE",
"417 89 CURVE",
"423 55 LINE",
"423 52 OFFCURVE",
"426 50 OFFCURVE",
"429 50 CURVE SMOOTH",
"468 50 LINE SMOOTH",
"471 50 OFFCURVE",
"474 52 OFFCURVE",
"474 55 CURVE",
"478 66 OFFCURVE",
"479 78 OFFCURVE",
"480 89 CURVE",
"486 90 OFFCURVE",
"491 93 OFFCURVE",
"496 95 CURVE",
"521 76 LINE",
"523 75 OFFCURVE",
"524 74 OFFCURVE",
"526 74 CURVE SMOOTH",
"532 74 OFFCURVE",
"556 101 OFFCURVE",
"560 107 CURVE",
"561 107 OFFCURVE",
"562 109 OFFCURVE",
"562 110 CURVE SMOOTH",
"562 112 OFFCURVE",
"561 113 OFFCURVE",
"560 115 CURVE",
"553 123 OFFCURVE",
"547 131 OFFCURVE",
"541 139 CURVE",
"543 145 OFFCURVE",
"546 150 OFFCURVE",
"547 156 CURVE",
"581 161 LINE",
"584 161 OFFCURVE",
"586 165 OFFCURVE",
"586 168 CURVE SMOOTH",
"586 206 LINE SMOOTH",
"586 210 OFFCURVE",
"584 213 OFFCURVE",
"581 214 CURVE"
);
},
{
closed = 1;
nodes = (
"419 132 OFFCURVE",
"394 157 OFFCURVE",
"394 187 CURVE SMOOTH",
"394 217 OFFCURVE",
"419 242 OFFCURVE",
"449 242 CURVE SMOOTH",
"479 242 OFFCURVE",
"504 217 OFFCURVE",
"504 187 CURVE SMOOTH",
"504 157 OFFCURVE",
"479 132 OFFCURVE",
"449 132 CURVE SMOOTH"
);
},
{
closed = 1;
nodes = (
"397 58 OFFCURVE",
"389 62 OFFCURVE",
"383 64 CURVE",
"349 40 LINE",
"349 38 OFFCURVE",
"346 37 OFFCURVE",
"344 37 CURVE SMOOTH",
"341 37 OFFCURVE",
"339 38 OFFCURVE",
"338 40 CURVE",
"330 46 OFFCURVE",
"297 77 OFFCURVE",
"297 85 CURVE SMOOTH",
"297 87 OFFCURVE",
"298 89 OFFCURVE",
"299 91 CURVE",
"308 102 OFFCURVE",
"316 112 OFFCURVE",
"324 122 CURVE",
"320 131 OFFCURVE",
"317 138 OFFCURVE",
"314 146 CURVE",
"271 153 LINE",
"267 153 OFFCURVE",
"264 157 OFFCURVE",
"264 162 CURVE SMOOTH",
"264 213 LINE SMOOTH",
"264 217 OFFCURVE",
"267 222 OFFCURVE",
"270 222 CURVE",
"315 229 LINE",
"317 236 OFFCURVE",
"320 243 OFFCURVE",
"324 251 CURVE",
"316 262 OFFCURVE",
"308 272 OFFCURVE",
"299 283 CURVE",
"297 285 OFFCURVE",
"296 287 OFFCURVE",
"296 289 CURVE SMOOTH",
"296 291 OFFCURVE",
"297 293 OFFCURVE",
"299 294 CURVE",
"304 302 OFFCURVE",
"336 337 OFFCURVE",
"344 337 CURVE SMOOTH",
"346 337 OFFCURVE",
"349 336 OFFCURVE",
"349 335 CURVE",
"364 323 LINE",
"364 346 LINE SMOOTH",
"364 431 OFFCURVE",
"297 500 OFFCURVE",
"209 500 CURVE SMOOTH",
"121 500 OFFCURVE",
"53 431 OFFCURVE",
"53 346 CURVE SMOOTH",
"53 291 LINE",
"49 291 LINE SMOOTH",
"31 291 OFFCURVE",
"15 270 OFFCURVE",
"15 252 CURVE SMOOTH",
"15 21 LINE SMOOTH",
"15 3 OFFCURVE",
"31 0 OFFCURVE",
"49 0 CURVE SMOOTH",
"367 0 LINE SMOOTH",
"387 0 OFFCURVE",
"404 3 OFFCURVE",
"404 21 CURVE SMOOTH",
"404 54 LINE",
"404 56 LINE"
);
},
{
closed = 1;
nodes = (
"131 392 OFFCURVE",
"161 428 OFFCURVE",
"208 428 CURVE SMOOTH",
"255 428 OFFCURVE",
"285 392 OFFCURVE",
"285 346 CURVE SMOOTH",
"285 291 LINE",
"131 291 LINE",
"131 346 LINE SMOOTH"
);
}
);
width = 600;
}
);
unicode = 00CA;
},
{
glyphname = Edieresis;
lastChange = "2013-10-25 12:19:23 -0300";
layers = (
{
layerId = "2B2FE4A8-39A2-493B-A970-B9343EE81639";
name = Regular;
paths = (
{
closed = 1;
nodes = (
"370 291 LINE",
"370 346 LINE SMOOTH",
"370 431 OFFCURVE",
"303 500 OFFCURVE",
"215 500 CURVE SMOOTH",
"127 500 OFFCURVE",
"59 431 OFFCURVE",
"59 346 CURVE SMOOTH",
"59 291 LINE",
"55 291 LINE SMOOTH",
"37 291 OFFCURVE",
"21 270 OFFCURVE",
"21 252 CURVE SMOOTH",
"21 21 LINE SMOOTH",
"21 3 OFFCURVE",
"37 0 OFFCURVE",
"55 0 CURVE SMOOTH",
"373 0 LINE SMOOTH",
"393 0 OFFCURVE",
"410 3 OFFCURVE",
"410 21 CURVE SMOOTH",
"410 252 LINE SMOOTH",
"410 270 OFFCURVE",
"393 291 OFFCURVE",
"373 291 CURVE SMOOTH"
);
},
{
closed = 1;
nodes = (
"292 291 LINE",
"138 291 LINE",
"138 346 LINE SMOOTH",
"138 392 OFFCURVE",
"168 428 OFFCURVE",
"215 428 CURVE SMOOTH",
"262 428 OFFCURVE",
"292 392 OFFCURVE",
"292 346 CURVE SMOOTH"
);
},
{
closed = 1;
nodes = (
"197 199 LINE SMOOTH",
"197 211 OFFCURVE",
"204 218 OFFCURVE",
"216 218 CURVE SMOOTH",
"227 218 OFFCURVE",
"235 211 OFFCURVE",
"235 199 CURVE SMOOTH",
"235 139 LINE",
"254 133 OFFCURVE",
"249 123 OFFCURVE",
"249 111 CURVE SMOOTH",
"249 92 OFFCURVE",
"235 78 OFFCURVE",
"216 78 CURVE SMOOTH",
"195 78 OFFCURVE",
"181 92 OFFCURVE",
"181 111 CURVE SMOOTH",
"181 123 OFFCURVE",
"176 133 OFFCURVE",
"197 139 CURVE"
);
},
{
closed = 1;
nodes = (
"572 333 OFFCURVE",
"579 358 OFFCURVE",
"579 386 CURVE SMOOTH",
"579 433 OFFCURVE",
"541 471 OFFCURVE",
"494 471 CURVE SMOOTH",
"446 471 OFFCURVE",
"407 433 OFFCURVE",
"407 386 CURVE SMOOTH",
"407 356 OFFCURVE",
"419 329 OFFCURVE",
"442 314 CURVE",
"447 309 OFFCURVE",
"455 303 OFFCURVE",
"455 296 CURVE SMOOTH",
"455 141 LINE",
"455 141 OFFCURVE",
"467 119 OFFCURVE",
"478 119 CURVE SMOOTH",
"489 119 OFFCURVE",
"499 137 OFFCURVE",
"500 141 CURVE",
"496 144 OFFCURVE",
"491 149 OFFCURVE",
"491 151 CURVE SMOOTH",
"491 156 OFFCURVE",
"506 165 OFFCURVE",
"506 169 CURVE SMOOTH",
"506 180 LINE SMOOTH",
"506 184 OFFCURVE",
"495 189 OFFCURVE",
"495 194 CURVE SMOOTH",
"495 196 OFFCURVE",
"506 202 OFFCURVE",
"506 206 CURVE SMOOTH",
"506 216 LINE SMOOTH",
"506 219 OFFCURVE",
"499 223 OFFCURVE",
"499 225 CURVE SMOOTH",
"499 228 OFFCURVE",
"506 232 OFFCURVE",
"506 236 CURVE SMOOTH",
"506 251 LINE",
"533 263 LINE",
"533 294 LINE SMOOTH",
"533 306 OFFCURVE",
"545 318 OFFCURVE",
"545 318 CURVE"
);
},
{
closed = 1;
nodes = (
"540 414 OFFCURVE",
"519 407 OFFCURVE",
"494 407 CURVE SMOOTH",
"468 407 OFFCURVE",
"447 414 OFFCURVE",
"447 423 CURVE SMOOTH",
"447 431 OFFCURVE",
"468 447 OFFCURVE",
"494 447 CURVE SMOOTH",
"519 447 OFFCURVE",
"540 431 OFFCURVE",
"540 423 CURVE SMOOTH"
);
}
);
width = 600;
}
);
unicode = 00CB;
},
{
glyphname = Egrave;
lastChange = "2013-10-25 12:21:52 -0300";
layers = (
{
layerId = "2B2FE4A8-39A2-493B-A970-B9343EE81639";
name = Regular;
paths = (
{
closed = 1;
nodes = (
"270 303 OFFCURVE",
"247 279 OFFCURVE",
"247 251 CURVE SMOOTH",
"247 222 OFFCURVE",
"270 199 OFFCURVE",
"299 199 CURVE SMOOTH",
"327 199 OFFCURVE",
"351 222 OFFCURVE",
"351 251 CURVE SMOOTH",
"351 279 OFFCURVE",
"327 303 OFFCURVE",
"299 303 CURVE SMOOTH"
);
},
{
closed = 1;
nodes = (
"496 419 OFFCURVE",
"463 404 OFFCURVE",
"427 404 CURVE SMOOTH",
"368 404 OFFCURVE",
"319 439 OFFCURVE",
"304 500 CURVE",
"295 500 LINE",
"280 439 OFFCURVE",
"231 404 OFFCURVE",
"172 404 CURVE SMOOTH",
"136 404 OFFCURVE",
"103 419 OFFCURVE",
"80 443 CURVE",
"61 395 OFFCURVE",
"56 341 OFFCURVE",
"67 274 CURVE SMOOTH",
"90 124 OFFCURVE",
"267 0 OFFCURVE",
"300 0 CURVE SMOOTH",
"332 0 OFFCURVE",
"507 125 OFFCURVE",
"533 274 CURVE SMOOTH",
"544 339 OFFCURVE",
"538 395 OFFCURVE",
"519 443 CURVE"
);
},
{
closed = 1;
nodes = (
"429 229 OFFCURVE",
"427 226 OFFCURVE",
"424 226 CURVE",
"392 221 LINE",
"391 216 OFFCURVE",
"388 211 OFFCURVE",
"386 205 CURVE",
"392 197 OFFCURVE",
"398 190 OFFCURVE",
"405 182 CURVE",
"405 181 OFFCURVE",
"406 179 OFFCURVE",
"406 178 CURVE SMOOTH",
"406 177 OFFCURVE",
"405 175 OFFCURVE",
"405 174 CURVE",
"400 169 OFFCURVE",
"377 144 OFFCURVE",
"372 144 CURVE SMOOTH",
"370 144 OFFCURVE",
"369 144 OFFCURVE",
"367 146 CURVE",
"344 164 LINE",
"339 161 OFFCURVE",
"334 158 OFFCURVE",
"329 157 CURVE",
"327 147 OFFCURVE",
"327 135 OFFCURVE",
"323 125 CURVE",
"322 122 OFFCURVE",
"320 120 OFFCURVE",
"317 120 CURVE SMOOTH",
"280 120 LINE SMOOTH",
"277 120 OFFCURVE",
"274 122 OFFCURVE",
"274 125 CURVE",
"269 157 LINE",
"264 159 OFFCURVE",
"258 162 OFFCURVE",
"254 163 CURVE",
"230 146 LINE",
"230 144 OFFCURVE",
"227 144 OFFCURVE",
"226 144 CURVE SMOOTH",
"224 144 OFFCURVE",
"222 144 OFFCURVE",
"222 146 CURVE",
"216 150 OFFCURVE",
"192 172 OFFCURVE",
"192 178 CURVE SMOOTH",
"192 179 OFFCURVE",
"193 181 OFFCURVE",
"194 182 CURVE",
"200 190 OFFCURVE",
"206 197 OFFCURVE",
"212 204 CURVE",
"209 211 OFFCURVE",
"207 216 OFFCURVE",
"205 222 CURVE",
"174 227 LINE",
"171 227 OFFCURVE",
"169 229 OFFCURVE",
"169 233 CURVE SMOOTH",
"169 269 LINE SMOOTH",
"169 272 OFFCURVE",
"171 276 OFFCURVE",
"173 276 CURVE",
"205 281 LINE",
"207 286 OFFCURVE",
"209 291 OFFCURVE",
"212 297 CURVE",
"206 304 OFFCURVE",
"200 312 OFFCURVE",
"194 319 CURVE",
"192 321 OFFCURVE",
"192 322 OFFCURVE",
"192 324 CURVE SMOOTH",
"192 325 OFFCURVE",
"192 327 OFFCURVE",
"194 327 CURVE",
"197 333 OFFCURVE",
"220 358 OFFCURVE",
"226 358 CURVE SMOOTH",
"227 358 OFFCURVE",
"230 357 OFFCURVE",
"230 356 CURVE",
"253 338 LINE",
"258 340 OFFCURVE",
"264 343 OFFCURVE",
"269 344 CURVE",
"270 354 OFFCURVE",
"272 365 OFFCURVE",
"274 375 CURVE SMOOTH",
"275 378 OFFCURVE",
"277 380 OFFCURVE",
"280 380 CURVE SMOOTH",
"317 380 LINE SMOOTH",
"320 380 OFFCURVE",
"323 378 OFFCURVE",
"323 375 CURVE",
"329 344 LINE",
"334 343 OFFCURVE",
"339 340 OFFCURVE",
"344 339 CURVE",
"367 357 LINE",
"369 357 OFFCURVE",
"370 358 OFFCURVE",
"372 358 CURVE SMOOTH",
"373 358 OFFCURVE",
"375 357 OFFCURVE",
"376 356 CURVE",
"381 352 OFFCURVE",
"405 329 OFFCURVE",
"405 324 CURVE SMOOTH",
"405 322 OFFCURVE",
"405 321 OFFCURVE",
"404 319 CURVE",
"398 312 OFFCURVE",
"392 304 OFFCURVE",
"386 297 CURVE",
"388 291 OFFCURVE",
"391 286 OFFCURVE",
"393 280 CURVE",
"424 276 LINE",
"427 275 OFFCURVE",
"429 272 OFFCURVE",
"429 269 CURVE SMOOTH",
"429 232 LINE SMOOTH"
);
}
);
width = 600;
}
);
unicode = 00C8;
},
{
glyphname = Icircumflex;
layers = (
{
layerId = "2B2FE4A8-39A2-493B-A970-B9343EE81639";
name = Regular;
paths = (
{
closed = 1;
nodes = (
"483 49 LINE SMOOTH",
"483 34 OFFCURVE",
"467 27 OFFCURVE",
"452 27 CURVE SMOOTH",
"128 27 LINE",
"128 5 OFFCURVE",
"140 0 OFFCURVE",
"155 0 CURVE SMOOTH",
"480 0 LINE SMOOTH",
"495 0 OFFCURVE",
"504 7 OFFCURVE",
"504 22 CURVE SMOOTH",
"504 421 LINE SMOOTH",
"504 436 OFFCURVE",
"499 448 OFFCURVE",
"483 448 CURVE"
);
},
{
closed = 1;
nodes = (
"96 58 LINE SMOOTH",
"96 48 OFFCURVE",
"106 43 OFFCURVE",
"116 43 CURVE SMOOTH",
"145 43 LINE",
"145 500 LINE",
"116 500 LINE SMOOTH",
"106 500 OFFCURVE",
"96 486 OFFCURVE",
"96 475 CURVE SMOOTH"
);
},
{
closed = 1;
nodes = (
"412 500 LINE",
"412 311 LINE",
"377 332 LINE",
"341 311 LINE",
"341 500 LINE",
"155 500 LINE",
"155 43 LINE",
"443 43 LINE SMOOTH",
"453 43 OFFCURVE",
"461 48 OFFCURVE",
"461 58 CURVE SMOOTH",
"461 475 LINE SMOOTH",
"461 486 OFFCURVE",
"453 500 OFFCURVE",
"443 500 CURVE SMOOTH"
);
}
);
width = 600;
}
);
unicode = 00CE;
},
{
glyphname = Idieresis;
layers = (
{
layerId = "2B2FE4A8-39A2-493B-A970-B9343EE81639";
name = Regular;
paths = (
{
closed = 1;
nodes = (
"235 235 OFFCURVE",
"210 210 OFFCURVE",
"210 180 CURVE SMOOTH",
"210 149 OFFCURVE",
"235 124 OFFCURVE",
"266 124 CURVE SMOOTH",
"296 124 OFFCURVE",
"321 149 OFFCURVE",
"321 180 CURVE SMOOTH",
"321 210 OFFCURVE",
"296 235 OFFCURVE",
"266 235 CURVE SMOOTH"
);
},
{
closed = 1;
nodes = (
"243 140 OFFCURVE",
"225 158 OFFCURVE",
"225 180 CURVE SMOOTH",
"225 202 OFFCURVE",
"243 220 OFFCURVE",
"266 220 CURVE SMOOTH",
"288 220 OFFCURVE",
"306 202 OFFCURVE",
"306 180 CURVE SMOOTH",
"306 158 OFFCURVE",
"288 140 OFFCURVE",
"266 140 CURVE SMOOTH"
);
},
{
closed = 1;
nodes = (
"143 274 OFFCURVE",
"143 274 OFFCURVE",
"143 274 CURVE",
"143 274 OFFCURVE",
"143 274 OFFCURVE",
"143 274 CURVE"
);
},
{
closed = 1;
nodes = (
"144 275 OFFCURVE",
"144 275 OFFCURVE",
"144 274 CURVE",
"144 275 OFFCURVE",
"144 280 OFFCURVE",
"144 276 CURVE"
);
},
{
closed = 1;
nodes = (
"195 274 OFFCURVE",
"195 274 OFFCURVE",
"195 274 CURVE",
"195 274 OFFCURVE",
"195 274 OFFCURVE",
"195 274 CURVE"
);
},
{
closed = 1;
nodes = (
"197 275 OFFCURVE",
"197 275 OFFCURVE",
"197 276 CURVE",
"197 280 OFFCURVE",
"197 275 OFFCURVE",
"197 274 CURVE"
);
},
{
closed = 1;
nodes = (
"399 271 LINE",
"399 341 LINE",
"395 341 LINE",
"395 271 LINE",
"332 271 LINE",
"303 323 LINE",
"225 323 LINE",
"197 271 LINE",
"196 271 LINE SMOOTH",
"196 271 OFFCURVE",
"196 275 OFFCURVE",
"197 276 CURVE",
"196 281 OFFCURVE",
"192 285 OFFCURVE",
"187 285 CURVE SMOOTH",
"153 285 LINE SMOOTH",
"149 285 OFFCURVE",
"145 281 OFFCURVE",
"144 276 CURVE",
"144 275 OFFCURVE",
"144 271 OFFCURVE",
"144 271 CURVE SMOOTH",
"138 271 LINE",
"133 285 OFFCURVE",
"127 285 OFFCURVE",
"119 285 CURVE SMOOTH",
"89 285 LINE SMOOTH",
"74 285 OFFCURVE",
"60 278 OFFCURVE",
"60 263 CURVE SMOOTH",
"60 92 LINE SMOOTH",
"60 77 OFFCURVE",
"74 62 OFFCURVE",
"89 62 CURVE SMOOTH",
"119 62 LINE SMOOTH",
"129 62 OFFCURVE",
"138 76 OFFCURVE",
"143 76 CURVE SMOOTH",
"365 76 LINE SMOOTH",
"381 76 OFFCURVE",
"399 89 OFFCURVE",
"399 105 CURVE SMOOTH",
"399 146 LINE",
"399 267 LINE",
"464 267 LINE",
"464 271 LINE"
);
},
{
closed = 1;
nodes = (
"148 95 OFFCURVE",
"147 92 OFFCURVE",
"143 92 CURVE SMOOTH",
"140 92 OFFCURVE",
"139 95 OFFCURVE",
"139 99 CURVE SMOOTH",
"139 245 LINE SMOOTH",
"139 249 OFFCURVE",
"140 252 OFFCURVE",
"143 252 CURVE SMOOTH",
"147 252 OFFCURVE",
"148 249 OFFCURVE",
"148 245 CURVE SMOOTH",
"148 99 LINE SMOOTH"
);
},
{
closed = 1;
nodes = (
"225 107 OFFCURVE",
"193 140 OFFCURVE",
"193 180 CURVE SMOOTH",
"193 220 OFFCURVE",
"225 252 OFFCURVE",
"266 252 CURVE SMOOTH",
"306 252 OFFCURVE",
"338 220 OFFCURVE",
"338 180 CURVE SMOOTH",
"338 140 OFFCURVE",
"306 107 OFFCURVE",
"266 107 CURVE SMOOTH"
);
},
{
closed = 1;
nodes = (
"41 7 LINE",
"46 5 OFFCURVE",
"49 4 OFFCURVE",
"52 4 CURVE SMOOTH",
"54 4 OFFCURVE",
"55 4 OFFCURVE",
"56 5 CURVE SMOOTH",
"58 6 OFFCURVE",
"59 6 OFFCURVE",
"59 7 CURVE SMOOTH",
"60 8 OFFCURVE",
"60 9 OFFCURVE",
"60 11 CURVE SMOOTH",
"60 12 OFFCURVE",
"60 13 OFFCURVE",
"59 15 CURVE SMOOTH",
"58 16 OFFCURVE",
"56 17 OFFCURVE",
"54 19 CURVE SMOOTH",
"51 20 LINE",
"49 22 LINE SMOOTH",
"44 24 OFFCURVE",
"42 28 OFFCURVE",
"42 32 CURVE SMOOTH",
"42 35 OFFCURVE",
"43 37 OFFCURVE",
"45 39 CURVE SMOOTH",
"47 41 OFFCURVE",
"51 42 OFFCURVE",
"55 42 CURVE SMOOTH",
"58 42 OFFCURVE",
"60 42 OFFCURVE",
"64 41 CURVE",
"64 37 LINE",
"60 38 OFFCURVE",
"58 38 OFFCURVE",
"55 38 CURVE SMOOTH",
"53 38 OFFCURVE",
"51 38 OFFCURVE",
"49 37 CURVE SMOOTH",
"48 36 OFFCURVE",
"47 34 OFFCURVE",
"47 33 CURVE SMOOTH",
"47 31 OFFCURVE",
"47 30 OFFCURVE",
"48 28 CURVE SMOOTH",
"49 27 OFFCURVE",
"51 26 OFFCURVE",
"52 25 CURVE",
"54 24 LINE",
"57 23 LINE",
"59 22 LINE SMOOTH",
"63 19 OFFCURVE",
"65 15 OFFCURVE",
"65 11 CURVE SMOOTH",
"65 8 OFFCURVE",
"64 6 OFFCURVE",
"62 4 CURVE SMOOTH",
"60 1 OFFCURVE",
"56 0 OFFCURVE",
"51 0 CURVE SMOOTH",
"50 0 OFFCURVE",
"48 0 OFFCURVE",
"47 1 CURVE SMOOTH",
"45 1 OFFCURVE",
"46 1 OFFCURVE",
"41 2 CURVE"
);
},
{
closed = 1;
nodes = (
"74 43 LINE",
"78 43 LINE",
"78 22 LINE",
"93 43 LINE",
"98 43 LINE",
"84 24 LINE",
"100 2 LINE",
"94 2 LINE",
"78 22 LINE",
"78 2 LINE",
"74 2 LINE"
);
},
{
closed = 1;
nodes = (
"111 43 LINE",
"111 15 LINE SMOOTH",
"111 12 OFFCURVE",
"110 9 OFFCURVE",
"111 8 CURVE SMOOTH",
"111 7 OFFCURVE",
"111 6 OFFCURVE",
"113 5 CURVE SMOOTH",
"114 5 OFFCURVE",
"115 4 OFFCURVE",
"116 4 CURVE SMOOTH",
"118 4 OFFCURVE",
"119 5 OFFCURVE",
"120 5 CURVE SMOOTH",
"122 6 OFFCURVE",
"123 7 OFFCURVE",
"123 9 CURVE SMOOTH",
"124 10 OFFCURVE",
"125 13 OFFCURVE",
"125 17 CURVE SMOOTH",
"125 43 LINE",
"129 43 LINE",
"129 15 LINE SMOOTH",
"129 12 OFFCURVE",
"128 9 OFFCURVE",
"127 7 CURVE SMOOTH",
"126 4 OFFCURVE",
"125 3 OFFCURVE",
"123 2 CURVE SMOOTH",
"121 1 OFFCURVE",
"119 0 OFFCURVE",
"116 0 CURVE SMOOTH",
"113 0 OFFCURVE",
"111 1 OFFCURVE",
"109 2 CURVE SMOOTH",
"107 3 OFFCURVE",
"105 4 OFFCURVE",
"104 6 CURVE SMOOTH",
"103 8 OFFCURVE",
"101 11 OFFCURVE",
"101 16 CURVE SMOOTH",
"101 43 LINE"
);
},
{
closed = 1;
nodes = (
"184 42 OFFCURVE",
"187 41 OFFCURVE",
"189 37 CURVE SMOOTH",
"192 33 OFFCURVE",
"193 28 OFFCURVE",
"193 21 CURVE SMOOTH",
"193 15 OFFCURVE",
"192 10 OFFCURVE",
"189 6 CURVE SMOOTH",
"187 2 OFFCURVE",
"184 0 OFFCURVE",
"179 0 CURVE SMOOTH",
"175 0 OFFCURVE",
"171 2 OFFCURVE",
"169 6 CURVE SMOOTH",
"166 10 OFFCURVE",
"165 15 OFFCURVE",
"165 21 CURVE SMOOTH",
"165 28 OFFCURVE",
"166 33 OFFCURVE",
"169 37 CURVE SMOOTH",
"171 41 OFFCURVE",
"175 42 OFFCURVE",
"179 42 CURVE SMOOTH"
);
},
{
closed = 1;
nodes = (
"185 34 LINE",
"184 36 OFFCURVE",
"183 37 OFFCURVE",
"182 38 CURVE SMOOTH",
"181 38 OFFCURVE",
"180 38 OFFCURVE",
"179 38 CURVE SMOOTH",
"176 38 OFFCURVE",
"174 37 OFFCURVE",
"173 34 CURVE SMOOTH",
"171 31 OFFCURVE",
"170 26 OFFCURVE",
"170 22 CURVE SMOOTH",
"170 21 OFFCURVE",
"170 19 OFFCURVE",
"170 18 CURVE SMOOTH",
"170 17 OFFCURVE",
"171 15 OFFCURVE",
"171 13 CURVE"
);
},
{
closed = 1;
nodes = (
"173 8 LINE",
"174 7 OFFCURVE",
"175 6 OFFCURVE",
"176 5 CURVE SMOOTH",
"177 5 OFFCURVE",
"178 4 OFFCURVE",
"179 4 CURVE SMOOTH",
"182 4 OFFCURVE",
"184 6 OFFCURVE",
"186 10 CURVE SMOOTH",
"187 13 OFFCURVE",
"188 17 OFFCURVE",
"188 22 CURVE SMOOTH",
"188 24 OFFCURVE",
"187 27 OFFCURVE",
"187 30 CURVE"
);
},
{
closed = 1;
nodes = (
"204 5 LINE SMOOTH",
"204 8 OFFCURVE",
"204 10 OFFCURVE",
"204 12 CURVE SMOOTH",
"205 14 OFFCURVE",
"206 16 OFFCURVE",
"208 18 CURVE SMOOTH",
"209 21 OFFCURVE",
"210 22 OFFCURVE",
"211 24 CURVE SMOOTH",
"215 29 LINE",
"217 30 LINE",
"218 32 OFFCURVE",
"219 34 OFFCURVE",
"220 34 CURVE",
"199 34 LINE",
"199 43 LINE",
"222 43 LINE",
"222 38 LINE SMOOTH",
"222 37 OFFCURVE",
"223 36 OFFCURVE",
"223 35 CURVE SMOOTH",
"222 33 OFFCURVE",
"221 31 OFFCURVE",
"219 28 CURVE SMOOTH",
"218 27 OFFCURVE",
"218 26 OFFCURVE",
"217 25 CURVE SMOOTH",
"214 21 LINE SMOOTH",
"213 19 OFFCURVE",
"211 17 OFFCURVE",
"211 16 CURVE SMOOTH",
"210 14 OFFCURVE",
"209 13 OFFCURVE",
"209 11 CURVE SMOOTH",
"209 10 OFFCURVE",
"208 8 OFFCURVE",
"208 5 CURVE SMOOTH",
"208 2 LINE",
"204 2 LINE"
);
},
{
closed = 1;
nodes = (
"247 42 OFFCURVE",
"250 41 OFFCURVE",
"253 37 CURVE SMOOTH",
"255 33 OFFCURVE",
"256 28 OFFCURVE",
"256 21 CURVE SMOOTH",
"256 15 OFFCURVE",
"255 10 OFFCURVE",
"253 6 CURVE SMOOTH",
"250 2 OFFCURVE",
"247 0 OFFCURVE",
"242 0 CURVE SMOOTH",
"238 0 OFFCURVE",
"234 2 OFFCURVE",
"232 6 CURVE SMOOTH",
"229 10 OFFCURVE",
"228 15 OFFCURVE",
"228 21 CURVE SMOOTH",
"228 28 OFFCURVE",
"229 33 OFFCURVE",
"232 37 CURVE SMOOTH",
"234 41 OFFCURVE",
"238 42 OFFCURVE",
"242 42 CURVE SMOOTH"
);
},
{
closed = 1;
nodes = (
"248 34 LINE",
"247 36 OFFCURVE",
"246 37 OFFCURVE",
"245 38 CURVE SMOOTH",
"244 38 OFFCURVE",
"243 38 OFFCURVE",
"242 38 CURVE SMOOTH",
"239 38 OFFCURVE",
"237 37 OFFCURVE",
"236 34 CURVE SMOOTH",
"234 31 OFFCURVE",
"233 26 OFFCURVE",
"233 22 CURVE SMOOTH",
"233 21 OFFCURVE",
"233 19 OFFCURVE",
"233 18 CURVE SMOOTH",
"234 17 OFFCURVE",
"234 15 OFFCURVE",
"234 13 CURVE"
);
},
{
closed = 1;
nodes = (
"236 8 LINE",
"237 7 OFFCURVE",
"238 6 OFFCURVE",
"239 5 CURVE SMOOTH",
"240 5 OFFCURVE",
"241 4 OFFCURVE",
"242 4 CURVE SMOOTH",
"245 4 OFFCURVE",
"247 6 OFFCURVE",
"249 10 CURVE SMOOTH",
"250 13 OFFCURVE",
"251 17 OFFCURVE",
"251 22 CURVE SMOOTH",
"251 24 OFFCURVE",
"251 27 OFFCURVE",
"250 30 CURVE"
);
},
{
closed = 1;
nodes = (
"264 43 LINE",
"283 43 LINE",
"283 39 LINE",
"269 39 LINE",
"269 25 LINE",
"268 25 LINE",
"274 25 OFFCURVE",
"278 25 OFFCURVE",
"282 22 CURVE SMOOTH",
"285 20 OFFCURVE",
"286 17 OFFCURVE",
"286 13 CURVE SMOOTH",
"286 11 OFFCURVE",
"286 9 OFFCURVE",
"284 6 CURVE SMOOTH",
"283 4 OFFCURVE",
"281 3 OFFCURVE",
"279 2 CURVE SMOOTH",
"277 1 OFFCURVE",
"273 0 OFFCURVE",
"271 0 CURVE SMOOTH",
"268 0 OFFCURVE",
"264 1 OFFCURVE",
"260 2 CURVE",
"260 7 LINE",
"264 7 OFFCURVE",
"264 6 OFFCURVE",
"266 5 CURVE SMOOTH",
"267 5 OFFCURVE",
"270 5 OFFCURVE",
"271 5 CURVE SMOOTH",
"273 5 OFFCURVE",
"275 5 OFFCURVE",
"276 6 CURVE SMOOTH",
"277 6 OFFCURVE",
"279 8 OFFCURVE",
"280 9 CURVE SMOOTH",
"280 10 OFFCURVE",
"281 12 OFFCURVE",
"281 13 CURVE SMOOTH",
"281 16 OFFCURVE",
"280 17 OFFCURVE",
"278 19 CURVE SMOOTH",
"275 20 OFFCURVE",
"271 20 OFFCURVE",
"266 20 CURVE"
);
},
{
closed = 1;
nodes = (
"306 36 LINE",
"302 35 OFFCURVE",
"301 34 OFFCURVE",
"300 33 CURVE SMOOTH",
"299 32 OFFCURVE",
"297 32 OFFCURVE",
"292 31 CURVE",
"292 35 LINE",
"297 37 OFFCURVE",
"301 39 OFFCURVE",
"304 43 CURVE",
"311 43 LINE",
"311 6 LINE",
"320 6 LINE",
"320 2 LINE",
"292 2 LINE",
"292 6 LINE",
"306 6 LINE"
);
},
{
closed = 1;
nodes = (
"343 21 OFFCURVE",
"341 19 OFFCURVE",
"340 18 CURVE SMOOTH",
"338 17 OFFCURVE",
"336 16 OFFCURVE",
"334 16 CURVE SMOOTH",
"332 16 OFFCURVE",
"330 17 OFFCURVE",
"328 18 CURVE SMOOTH",
"326 19 OFFCURVE",
"325 20 OFFCURVE",
"324 22 CURVE SMOOTH",
"323 24 OFFCURVE",
"323 26 OFFCURVE",
"323 28 CURVE SMOOTH",
"323 32 OFFCURVE",
"324 35 OFFCURVE",
"326 38 CURVE SMOOTH",
"329 41 OFFCURVE",
"332 42 OFFCURVE",
"336 42 CURVE SMOOTH",
"341 42 OFFCURVE",
"344 40 OFFCURVE",
"346 37 CURVE SMOOTH",
"349 33 OFFCURVE",
"350 28 OFFCURVE",
"350 22 CURVE SMOOTH",
"350 15 OFFCURVE",
"348 10 OFFCURVE",
"346 6 CURVE SMOOTH",
"343 2 OFFCURVE",
"338 0 OFFCURVE",
"333 0 CURVE SMOOTH",
"330 0 OFFCURVE",
"329 1 OFFCURVE",
"325 1 CURVE",
"325 6 LINE",
"329 5 OFFCURVE",
"331 4 OFFCURVE",
"333 4 CURVE SMOOTH",
"337 4 OFFCURVE",
"339 6 OFFCURVE",
"341 9 CURVE SMOOTH",
"343 12 OFFCURVE",
"343 17 OFFCURVE",
"343 22 CURVE"
);
},
{
closed = 1;
nodes = (
"334 38 OFFCURVE",
"333 38 OFFCURVE",
"332 37 CURVE SMOOTH",
"330 37 OFFCURVE",
"329 35 OFFCURVE",
"329 34 CURVE SMOOTH",
"328 32 OFFCURVE",
"328 31 OFFCURVE",
"328 29 CURVE SMOOTH",
"328 26 OFFCURVE",
"328 24 OFFCURVE",
"329 23 CURVE SMOOTH",
"331 21 OFFCURVE",
"333 20 OFFCURVE",
"335 20 CURVE SMOOTH",
"337 20 OFFCURVE",
"339 21 OFFCURVE",
"341 23 CURVE SMOOTH",
"342 25 OFFCURVE",
"343 27 OFFCURVE",
"343 30 CURVE SMOOTH",
"343 32 OFFCURVE",
"342 34 OFFCURVE",
"341 36 CURVE SMOOTH",
"339 38 OFFCURVE",
"338 38 OFFCURVE",
"336 38 CURVE SMOOTH"
);
},
{
closed = 1;
nodes = (
"363 24 LINE SMOOTH",
"362 24 OFFCURVE",
"361 26 OFFCURVE",
"360 27 CURVE SMOOTH",
"359 29 OFFCURVE",
"358 31 OFFCURVE",
"358 33 CURVE SMOOTH",
"358 35 OFFCURVE",
"359 38 OFFCURVE",
"361 40 CURVE SMOOTH",
"363 41 OFFCURVE",
"366 42 OFFCURVE",
"369 42 CURVE SMOOTH",
"371 42 OFFCURVE",
"373 42 OFFCURVE",
"375 41 CURVE SMOOTH",
"376 41 OFFCURVE",
"377 40 OFFCURVE",
"378 38 CURVE SMOOTH",
"379 37 OFFCURVE",
"379 35 OFFCURVE",
"379 34 CURVE SMOOTH",
"379 33 OFFCURVE",
"379 31 OFFCURVE",
"379 30 CURVE SMOOTH",
"378 29 OFFCURVE",
"378 28 OFFCURVE",
"377 27 CURVE SMOOTH",
"376 26 OFFCURVE",
"375 25 OFFCURVE",
"372 23 CURVE",
"375 21 LINE SMOOTH",
"377 19 OFFCURVE",
"379 17 OFFCURVE",
"380 16 CURVE SMOOTH",
"381 14 OFFCURVE",
"381 13 OFFCURVE",
"381 11 CURVE SMOOTH",
"381 8 OFFCURVE",
"380 5 OFFCURVE",
"378 3 CURVE SMOOTH",
"376 1 OFFCURVE",
"373 0 OFFCURVE",
"369 0 CURVE SMOOTH",
"364 0 OFFCURVE",
"361 1 OFFCURVE",
"359 3 CURVE SMOOTH",
"357 5 OFFCURVE",
"356 8 OFFCURVE",
"356 11 CURVE SMOOTH",
"356 15 OFFCURVE",
"359 19 OFFCURVE",
"364 23 CURVE"
);
},
{
closed = 1;
nodes = (
"363 17 OFFCURVE",
"361 14 OFFCURVE",
"361 11 CURVE SMOOTH",
"361 9 OFFCURVE",
"362 7 OFFCURVE",
"363 6 CURVE SMOOTH",
"365 5 OFFCURVE",
"367 4 OFFCURVE",
"369 4 CURVE SMOOTH",
"371 4 OFFCURVE",
"372 5 OFFCURVE",
"374 6 CURVE SMOOTH",
"375 7 OFFCURVE",
"376 9 OFFCURVE",
"376 10 CURVE SMOOTH",
"376 12 OFFCURVE",
"375 14 OFFCURVE",
"373 16 CURVE SMOOTH",
"371 17 OFFCURVE",
"370 19 OFFCURVE",
"369 19 CURVE"
);
},
{
closed = 1;
nodes = (
"372 27 OFFCURVE",
"373 29 OFFCURVE",
"374 30 CURVE SMOOTH",
"374 31 OFFCURVE",
"375 32 OFFCURVE",
"375 33 CURVE SMOOTH",
"375 35 OFFCURVE",
"374 36 OFFCURVE",
"373 37 CURVE SMOOTH",
"372 38 OFFCURVE",
"370 38 OFFCURVE",
"369 38 CURVE SMOOTH",
"367 38 OFFCURVE",
"365 38 OFFCURVE",
"364 37 CURVE SMOOTH",
"363 36 OFFCURVE",
"363 34 OFFCURVE",
"363 33 CURVE SMOOTH",
"363 32 OFFCURVE",
"363 31 OFFCURVE",
"364 30 CURVE SMOOTH",
"365 29 OFFCURVE",
"366 28 OFFCURVE",
"368 26 CURVE"
);
},
{
closed = 1;
nodes = (
"390 2 LINE",
"390 6 LINE SMOOTH",
"390 7 OFFCURVE",
"389 8 OFFCURVE",
"390 9 CURVE SMOOTH",
"390 11 OFFCURVE",
"390 12 OFFCURVE",
"392 14 CURVE SMOOTH",
"393 15 OFFCURVE",
"394 17 OFFCURVE",
"396 18 CURVE SMOOTH",
"398 21 LINE SMOOTH",
"399 22 OFFCURVE",
"400 23 OFFCURVE",
"402 25 CURVE SMOOTH",
"404 27 OFFCURVE",
"405 29 OFFCURVE",
"405 30 CURVE SMOOTH",
"406 31 OFFCURVE",
"406 32 OFFCURVE",
"406 33 CURVE SMOOTH",
"406 35 OFFCURVE",
"406 36 OFFCURVE",
"404 37 CURVE SMOOTH",
"403 38 OFFCURVE",
"401 38 OFFCURVE",
"400 38 CURVE SMOOTH",
"399 38 OFFCURVE",
"397 38 OFFCURVE",
"396 38 CURVE SMOOTH",
"395 38 OFFCURVE",
"395 38 OFFCURVE",
"394 37 CURVE SMOOTH",
"393 37 OFFCURVE",
"390 36 OFFCURVE",
"390 36 CURVE",
"390 40 LINE SMOOTH",
"390 41 OFFCURVE",
"394 41 OFFCURVE",
"396 42 CURVE SMOOTH",
"398 42 OFFCURVE",
"399 42 OFFCURVE",
"401 42 CURVE SMOOTH",
"403 42 OFFCURVE",
"405 42 OFFCURVE",
"406 41 CURVE SMOOTH",
"408 41 OFFCURVE",
"409 40 OFFCURVE",
"410 38 CURVE SMOOTH",
"411 37 OFFCURVE",
"411 35 OFFCURVE",
"411 34 CURVE SMOOTH",
"411 32 OFFCURVE",
"411 30 OFFCURVE",
"410 28 CURVE SMOOTH",
"409 26 OFFCURVE",
"407 24 OFFCURVE",
"404 21 CURVE SMOOTH",
"401 18 LINE",
"398 16 LINE SMOOTH",
"397 14 OFFCURVE",
"395 13 OFFCURVE",
"394 11 CURVE SMOOTH",
"393 10 OFFCURVE",
"393 6 OFFCURVE",
"393 6 CURVE",
"413 6 LINE",
"413 2 LINE"
);
},
{
closed = 1;
nodes = (
"559 462 LINE",
"550 484 LINE",
"537 492 LINE",
"524 500 LINE",
"500 497 LINE",
"423 362 LINE",
"419 289 LINE",
"481 327 LINE"
);
},
{
closed = 1;
nodes = (
"476 338 LINE",
"447 318 LINE",
"446 318 LINE",
"430 328 LINE",
"433 365 LINE",
"442 365 LINE",
"452 346 LINE",
"471 346 LINE"
);
}
);
width = 600;
}
);
unicode = 00CF;
},
{
glyphname = Ocircumflex;
lastChange = "2013-10-25 12:24:03 -0300";
layers = (
{
layerId = "2B2FE4A8-39A2-493B-A970-B9343EE81639";
name = Regular;
paths = (
{
closed = 1;
nodes = (
"298 56 OFFCURVE",
"299 57 OFFCURVE",
"300 59 CURVE",
"307 67 OFFCURVE",
"312 74 OFFCURVE",
"318 81 CURVE",
"315 88 OFFCURVE",
"313 93 OFFCURVE",
"311 99 CURVE",
"279 104 LINE",
"276 104 OFFCURVE",
"274 107 OFFCURVE",
"274 111 CURVE SMOOTH",
"274 148 LINE SMOOTH",
"274 151 OFFCURVE",
"276 155 OFFCURVE",
"279 155 CURVE",
"312 160 LINE",
"313 165 OFFCURVE",
"315 170 OFFCURVE",
"318 176 CURVE",
"312 184 OFFCURVE",
"307 192 OFFCURVE",
"300 200 CURVE",
"298 201 OFFCURVE",
"298 203 OFFCURVE",
"298 204 CURVE SMOOTH",
"298 206 OFFCURVE",
"298 207 OFFCURVE",
"300 208 CURVE",
"304 214 OFFCURVE",
"327 240 OFFCURVE",
"333 240 CURVE SMOOTH",
"334 240 OFFCURVE",
"337 239 OFFCURVE",
"337 238 CURVE",
"361 219 LINE",
"366 221 OFFCURVE",
"372 224 OFFCURVE",
"377 226 CURVE",
"379 236 OFFCURVE",
"380 248 OFFCURVE",
"382 258 CURVE SMOOTH",
"383 261 OFFCURVE",
"386 264 OFFCURVE",
"388 264 CURVE SMOOTH",
"427 264 LINE SMOOTH",
"430 264 OFFCURVE",
"433 261 OFFCURVE",
"433 258 CURVE",
"439 226 LINE",
"444 224 OFFCURVE",
"449 221 OFFCURVE",
"454 220 CURVE",
"477 237 LINE",
"481 249 OFFCURVE",
"484 261 OFFCURVE",
"487 274 CURVE SMOOTH",
"498 339 OFFCURVE",
"492 395 OFFCURVE",
"473 443 CURVE",
"450 419 OFFCURVE",
"417 404 OFFCURVE",
"381 404 CURVE SMOOTH",
"322 404 OFFCURVE",
"273 439 OFFCURVE",
"258 500 CURVE",
"249 500 LINE",
"234 439 OFFCURVE",
"185 404 OFFCURVE",
"126 404 CURVE SMOOTH",
"90 404 OFFCURVE",
"57 419 OFFCURVE",
"34 443 CURVE",
"15 395 OFFCURVE",
"10 341 OFFCURVE",
"21 274 CURVE SMOOTH",
"44 124 OFFCURVE",
"221 0 OFFCURVE",
"254 0 CURVE SMOOTH",
"264 0 OFFCURVE",
"287 12 OFFCURVE",
"316 33 CURVE",
"307 41 OFFCURVE",
"298 51 OFFCURVE",
"298 54 CURVE SMOOTH"
);
},
{
closed = 1;
nodes = (
"444 108 OFFCURVE",
"427 91 OFFCURVE",
"407 91 CURVE SMOOTH",
"387 91 OFFCURVE",
"371 108 OFFCURVE",
"371 128 CURVE SMOOTH",
"371 148 OFFCURVE",
"387 164 OFFCURVE",
"407 164 CURVE SMOOTH",
"427 164 OFFCURVE",
"444 148 OFFCURVE",
"444 128 CURVE SMOOTH"
);
},
{
closed = 1;
nodes = (
"553 45 OFFCURVE",
"545 37 OFFCURVE",
"535 37 CURVE SMOOTH",
"525 37 OFFCURVE",
"517 45 OFFCURVE",
"517 55 CURVE SMOOTH",
"517 65 OFFCURVE",
"525 73 OFFCURVE",
"535 73 CURVE SMOOTH",
"545 73 OFFCURVE",
"553 65 OFFCURVE",
"553 55 CURVE SMOOTH"
);
},
{
closed = 1;
nodes = (
"553 191 OFFCURVE",
"545 183 OFFCURVE",
"535 183 CURVE SMOOTH",
"525 183 OFFCURVE",
"517 191 OFFCURVE",
"517 201 CURVE SMOOTH",
"517 211 OFFCURVE",
"525 219 OFFCURVE",
"535 219 CURVE SMOOTH",
"545 219 OFFCURVE",
"553 211 OFFCURVE",
"553 201 CURVE SMOOTH"
);
},
{
closed = 1;
nodes = (
"498 140 LINE SMOOTH",
"498 143 OFFCURVE",
"497 145 OFFCURVE",
"495 145 CURVE",
"473 148 LINE",
"472 152 OFFCURVE",
"470 156 OFFCURVE",
"468 160 CURVE",
"472 165 OFFCURVE",
"477 171 OFFCURVE",
"481 176 CURVE",
"481 177 OFFCURVE",
"482 178 OFFCURVE",
"482 179 CURVE SMOOTH",
"482 183 OFFCURVE",
"465 199 OFFCURVE",
"461 202 CURVE",
"460 203 OFFCURVE",
"459 203 OFFCURVE",
"458 203 CURVE SMOOTH",
"457 203 OFFCURVE",
"456 203 OFFCURVE",
"455 202 CURVE",
"439 190 LINE",
"435 191 OFFCURVE",
"432 193 OFFCURVE",
"428 194 CURVE",
"424 216 LINE",
"424 218 OFFCURVE",
"422 219 OFFCURVE",
"420 219 CURVE SMOOTH",
"394 219 LINE SMOOTH",
"392 219 OFFCURVE",
"390 218 OFFCURVE",
"390 216 CURVE SMOOTH",
"388 209 OFFCURVE",
"387 201 OFFCURVE",
"386 194 CURVE",
"383 193 OFFCURVE",
"379 191 OFFCURVE",
"375 189 CURVE",
"359 202 LINE",
"359 203 OFFCURVE",
"357 203 OFFCURVE",
"356 203 CURVE SMOOTH",
"352 203 OFFCURVE",
"336 186 OFFCURVE",
"333 182 CURVE",
"332 181 OFFCURVE",
"332 180 OFFCURVE",
"332 179 CURVE SMOOTH",
"332 178 OFFCURVE",
"332 177 OFFCURVE",
"333 176 CURVE",
"338 171 OFFCURVE",
"342 165 OFFCURVE",
"346 160 CURVE",
"344 156 OFFCURVE",
"342 152 OFFCURVE",
"341 149 CURVE",
"319 145 LINE",
"317 145 OFFCURVE",
"316 143 OFFCURVE",
"316 141 CURVE SMOOTH",
"316 115 LINE SMOOTH",
"316 113 OFFCURVE",
"317 111 OFFCURVE",
"319 111 CURVE",
"341 107 LINE",
"342 103 OFFCURVE",
"344 100 OFFCURVE",
"346 95 CURVE",
"342 90 OFFCURVE",
"338 85 OFFCURVE",
"333 80 CURVE",
"333 79 OFFCURVE",
"332 78 OFFCURVE",
"332 77 CURVE SMOOTH",
"332 73 OFFCURVE",
"349 57 OFFCURVE",
"353 54 CURVE",
"354 53 OFFCURVE",
"355 53 OFFCURVE",
"356 53 CURVE SMOOTH",
"357 53 OFFCURVE",
"359 53 OFFCURVE",
"359 54 CURVE",
"376 66 LINE",
"379 65 OFFCURVE",
"383 63 OFFCURVE",
"386 62 CURVE",
"390 40 LINE",
"390 38 OFFCURVE",
"392 37 OFFCURVE",
"394 37 CURVE SMOOTH",
"420 37 LINE SMOOTH",
"422 37 OFFCURVE",
"424 38 OFFCURVE",
"424 40 CURVE",
"427 47 OFFCURVE",
"427 55 OFFCURVE",
"428 62 CURVE",
"432 63 OFFCURVE",
"435 65 OFFCURVE",
"439 67 CURVE",
"455 54 LINE",
"456 53 OFFCURVE",
"457 53 OFFCURVE",
"458 53 CURVE SMOOTH",
"462 53 OFFCURVE",
"478 70 OFFCURVE",
"481 74 CURVE",
"482 75 OFFCURVE",
"482 76 OFFCURVE",
"482 77 CURVE SMOOTH",
"482 78 OFFCURVE",
"482 79 OFFCURVE",
"481 80 CURVE",
"477 85 OFFCURVE",
"472 90 OFFCURVE",
"468 96 CURVE",
"470 100 OFFCURVE",
"472 103 OFFCURVE",
"473 107 CURVE",
"495 110 LINE",
"497 110 OFFCURVE",
"498 113 OFFCURVE",
"498 115 CURVE SMOOTH"
);
},
{
closed = 1;
nodes = (
"589 65 LINE SMOOTH",
"589 67 OFFCURVE",
"571 69 OFFCURVE",
"568 70 CURVE",
"567 72 OFFCURVE",
"566 75 OFFCURVE",
"564 77 CURVE",
"565 80 OFFCURVE",
"571 94 OFFCURVE",
"571 96 CURVE SMOOTH",
"571 97 OFFCURVE",
"571 97 OFFCURVE",
"571 97 CURVE",
"569 98 OFFCURVE",
"554 107 OFFCURVE",
"553 107 CURVE",
"552 107 LINE",
"548 102 OFFCURVE",
"543 97 OFFCURVE",
"539 91 CURVE",
"538 91 OFFCURVE",
"536 91 OFFCURVE",
"535 91 CURVE SMOOTH",
"534 91 OFFCURVE",
"532 91 OFFCURVE",
"531 91 CURVE",
"529 93 OFFCURVE",
"519 107 OFFCURVE",
"517 107 CURVE SMOOTH",
"516 107 OFFCURVE",
"500 98 OFFCURVE",
"499 97 CURVE",
"498 97 OFFCURVE",
"498 97 OFFCURVE",
"498 96 CURVE SMOOTH",
"498 94 OFFCURVE",
"504 80 OFFCURVE",
"506 77 CURVE",
"504 75 OFFCURVE",
"503 72 OFFCURVE",
"501 70 CURVE",
"498 69 OFFCURVE",
"480 67 OFFCURVE",
"480 65 CURVE SMOOTH",
"480 45 LINE SMOOTH",
"480 43 OFFCURVE",
"498 41 OFFCURVE",
"501 40 CURVE",
"503 38 OFFCURVE",
"504 35 OFFCURVE",
"506 33 CURVE",
"504 30 OFFCURVE",
"498 16 OFFCURVE",
"498 14 CURVE SMOOTH",
"498 13 OFFCURVE",
"498 13 OFFCURVE",
"499 13 CURVE",
"500 12 OFFCURVE",
"516 2 OFFCURVE",
"517 2 CURVE SMOOTH",
"519 2 OFFCURVE",
"529 17 OFFCURVE",
"531 19 CURVE",
"532 19 OFFCURVE",
"534 19 OFFCURVE",
"535 19 CURVE SMOOTH",
"536 19 OFFCURVE",
"538 19 OFFCURVE",
"539 19 CURVE",
"541 17 OFFCURVE",
"551 2 OFFCURVE",
"553 2 CURVE SMOOTH",
"554 2 OFFCURVE",
"569 12 OFFCURVE",
"571 13 CURVE",
"571 13 OFFCURVE",
"571 13 OFFCURVE",
"571 14 CURVE SMOOTH",
"571 16 OFFCURVE",
"565 30 OFFCURVE",
"564 33 CURVE",
"566 35 OFFCURVE",
"567 38 OFFCURVE",
"568 40 CURVE",
"571 41 OFFCURVE",
"589 43 OFFCURVE",
"589 45 CURVE SMOOTH"
);
},
{
closed = 1;
nodes = (
"589 211 LINE SMOOTH",
"589 213 OFFCURVE",
"571 215 OFFCURVE",
"568 216 CURVE",
"567 218 OFFCURVE",
"566 221 OFFCURVE",
"564 223 CURVE",
"565 226 OFFCURVE",
"571 240 OFFCURVE",
"571 242 CURVE SMOOTH",
"571 243 OFFCURVE",
"571 243 OFFCURVE",
"571 243 CURVE",
"569 244 OFFCURVE",
"554 253 OFFCURVE",
"553 253 CURVE",
"552 253 LINE",
"548 248 OFFCURVE",
"543 243 OFFCURVE",
"539 237 CURVE",
"538 237 OFFCURVE",
"536 237 OFFCURVE",
"535 237 CURVE SMOOTH",
"534 237 OFFCURVE",
"532 237 OFFCURVE",
"531 237 CURVE",
"529 239 OFFCURVE",
"519 253 OFFCURVE",
"517 253 CURVE SMOOTH",
"516 253 OFFCURVE",
"500 244 OFFCURVE",
"499 243 CURVE",
"498 243 OFFCURVE",
"498 243 OFFCURVE",
"498 242 CURVE SMOOTH",
"498 240 OFFCURVE",
"504 226 OFFCURVE",
"506 223 CURVE",
"504 221 OFFCURVE",
"503 218 OFFCURVE",
"501 216 CURVE",
"498 215 OFFCURVE",
"480 213 OFFCURVE",
"480 211 CURVE SMOOTH",
"480 191 LINE SMOOTH",
"480 189 OFFCURVE",
"498 187 OFFCURVE",
"501 186 CURVE",
"503 184 OFFCURVE",
"504 181 OFFCURVE",
"506 179 CURVE",
"504 176 OFFCURVE",
"498 161 OFFCURVE",
"498 159 CURVE SMOOTH",
"498 159 OFFCURVE",
"498 159 OFFCURVE",
"499 158 CURVE",
"500 157 OFFCURVE",
"516 148 OFFCURVE",
"517 148 CURVE SMOOTH",
"519 148 OFFCURVE",
"529 162 OFFCURVE",
"531 165 CURVE",
"532 164 OFFCURVE",
"534 164 OFFCURVE",
"535 164 CURVE SMOOTH",
"536 164 OFFCURVE",
"538 164 OFFCURVE",
"539 165 CURVE",
"541 162 OFFCURVE",
"551 148 OFFCURVE",
"553 148 CURVE SMOOTH",
"554 148 OFFCURVE",
"569 157 OFFCURVE",
"571 158 CURVE",
"571 159 OFFCURVE",
"571 159 OFFCURVE",
"571 159 CURVE SMOOTH",
"571 162 OFFCURVE",
"565 176 OFFCURVE",
"564 179 CURVE",
"566 181 OFFCURVE",
"567 184 OFFCURVE",
"568 186 CURVE",
"571 187 OFFCURVE",
"589 189 OFFCURVE",
"589 191 CURVE SMOOTH"
);
}
);
width = 600;
}
);
unicode = 00D4;
},
{
glyphname = Uacute;
lastChange = "2013-10-14 13:29:36 -0300";
layers = (
{
layerId = "2B2FE4A8-39A2-493B-A970-B9343EE81639";
name = Regular;
paths = (
{
closed = 1;
nodes = (
"584 323 LINE",
"583 325 OFFCURVE",
"583 327 OFFCURVE",
"583 329 CURVE SMOOTH",
"572 398 OFFCURVE",
"534 455 OFFCURVE",
"481 493 CURVE",
"327 283 LINE"
);
},
{
closed = 1;
nodes = (
"148 205 OFFCURVE",
"156 205 OFFCURVE",
"162 205 CURVE",
"154 214 OFFCURVE",
"147 223 OFFCURVE",
"147 237 CURVE SMOOTH",
"147 245 OFFCURVE",
"149 253 OFFCURVE",
"153 261 CURVE",
"149 260 OFFCURVE",
"145 260 OFFCURVE",
"142 260 CURVE SMOOTH",
"86 260 OFFCURVE",
"49 300 OFFCURVE",
"49 348 CURVE SMOOTH",
"49 354 OFFCURVE",
"49 359 OFFCURVE",
"50 364 CURVE",
"17 301 OFFCURVE",
"15 226 OFFCURVE",
"40 162 CURVE",
"60 188 OFFCURVE",
"98 205 OFFCURVE",
"141 205 CURVE SMOOTH"
);
},
{
closed = 1;
nodes = (
"235 133 OFFCURVE",
"234 137 OFFCURVE",
"233 141 CURVE SMOOTH",
"229 161 OFFCURVE",
"210 171 OFFCURVE",
"184 189 CURVE",
"176 191 OFFCURVE",
"165 193 OFFCURVE",
"155 193 CURVE SMOOTH",
"108 194 OFFCURVE",
"67 164 OFFCURVE",
"67 130 CURVE SMOOTH",
"67 119 OFFCURVE",
"69 110 OFFCURVE",
"74 102 CURVE",
"78 96 OFFCURVE",
"83 90 OFFCURVE",
"88 85 CURVE",
"102 73 OFFCURVE",
"123 65 OFFCURVE",
"146 65 CURVE SMOOTH",
"212 65 OFFCURVE",
"235 92 OFFCURVE",
"235 128 CURVE SMOOTH"
);
},
{
closed = 1;
nodes = (
"264 246 LINE",
"415 449 LINE",
"310 525 OFFCURVE",
"167 507 OFFCURVE",
"85 413 CURVE",
"103 428 OFFCURVE",
"128 437 OFFCURVE",
"155 437 CURVE SMOOTH",
"184 437 OFFCURVE",
"275 437 OFFCURVE",
"275 437 CURVE",
"248 417 LINE",
"210 417 LINE",
"235 408 OFFCURVE",
"250 378 OFFCURVE",
"250 347 CURVE SMOOTH",
"250 322 OFFCURVE",
"235 300 OFFCURVE",
"215 284 CURVE SMOOTH",
"196 269 OFFCURVE",
"191 262 OFFCURVE",
"191 250 CURVE SMOOTH",
"191 238 OFFCURVE",
"212 219 OFFCURVE",
"223 212 CURVE SMOOTH",
"255 190 OFFCURVE",
"266 169 OFFCURVE",
"266 134 CURVE SMOOTH",
"266 89 OFFCURVE",
"223 46 OFFCURVE",
"147 46 CURVE SMOOTH",
"143 46 OFFCURVE",
"138 46 OFFCURVE",
"133 47 CURVE",
"241 -25 OFFCURVE",
"388 0 OFFCURVE",
"466 106 CURVE SMOOTH",
"505 159 OFFCURVE",
"520 223 OFFCURVE",
"511 283 CURVE"
);
},
{
closed = 1;
nodes = (
"200 386 OFFCURVE",
"170 419 OFFCURVE",
"140 419 CURVE SMOOTH",
"107 420 OFFCURVE",
"87 390 OFFCURVE",
"92 349 CURVE SMOOTH",
"98 307 OFFCURVE",
"127 273 OFFCURVE",
"159 273 CURVE SMOOTH",
"190 272 OFFCURVE",
"211 304 OFFCURVE",
"205 344 CURVE SMOOTH"
);
}
);
width = 600;
}
);
unicode = 00DA;
},
{
glyphname = Ucircumflex;
lastChange = "2013-10-25 12:43:03 -0300";
layers = (
{
layerId = "2B2FE4A8-39A2-493B-A970-B9343EE81639";
name = Regular;
paths = (
{
closed = 1;
nodes = (
"336 233 LINE",
"337 233 OFFCURVE",
"337 243 OFFCURVE",
"338 248 CURVE",
"385 265 OFFCURVE",
"419 312 OFFCURVE",
"419 366 CURVE SMOOTH",
"419 435 OFFCURVE",
"366 491 OFFCURVE",
"300 491 CURVE SMOOTH",
"235 491 OFFCURVE",
"182 435 OFFCURVE",
"182 367 CURVE SMOOTH",
"182 313 OFFCURVE",
"214 267 OFFCURVE",
"259 249 CURVE",
"260 244 OFFCURVE",
"261 233 OFFCURVE",
"261 233 CURVE SMOOTH",
"216 233 LINE SMOOTH",
"177 233 OFFCURVE",
"135 174 OFFCURVE",
"122 129 CURVE SMOOTH",
"120 123 OFFCURVE",
"118 116 OFFCURVE",
"118 110 CURVE",
"117 107 OFFCURVE",
"117 104 OFFCURVE",
"117 101 CURVE SMOOTH",
"117 33 OFFCURVE",
"199 9 OFFCURVE",
"300 9 CURVE SMOOTH",
"401 9 OFFCURVE",
"483 33 OFFCURVE",
"483 101 CURVE SMOOTH",
"483 107 LINE SMOOTH",
"483 152 OFFCURVE",
"436 233 OFFCURVE",
"389 233 CURVE SMOOTH"
);
},
{
closed = 1;
nodes = (
"300 29 LINE",
"271 58 LINE",
"296 169 LINE",
"266 200 LINE",
"334 200 LINE",
"304 169 LINE",
"329 58 LINE"
);
},
{
closed = 1;
nodes = (
"521 299 LINE",
"522 299 OFFCURVE",
"522 305 OFFCURVE",
"522 307 CURVE",
"547 317 OFFCURVE",
"565 342 OFFCURVE",
"565 371 CURVE SMOOTH",
"565 408 OFFCURVE",
"537 438 OFFCURVE",
"502 438 CURVE SMOOTH",
"467 438 OFFCURVE",
"438 408 OFFCURVE",
"438 372 CURVE SMOOTH",
"438 343 OFFCURVE",
"455 318 OFFCURVE",
"479 308 CURVE",
"480 305 OFFCURVE",
"481 299 OFFCURVE",
"481 299 CURVE SMOOTH",
"456 299 LINE SMOOTH",
"437 299 OFFCURVE",
"416 271 OFFCURVE",
"407 248 CURVE",
"434 241 OFFCURVE",
"460 212 OFFCURVE",
"477 180 CURVE",
"484 179 OFFCURVE",
"493 179 OFFCURVE",
"502 179 CURVE SMOOTH",
"556 179 OFFCURVE",
"600 191 OFFCURVE",
"600 228 CURVE SMOOTH",
"600 232 LINE SMOOTH",
"600 256 OFFCURVE",
"575 299 OFFCURVE",
"550 299 CURVE SMOOTH"
);
},
{
closed = 1;
nodes = (
"504 195 LINE",
"489 210 LINE",
"502 266 LINE",
"486 281 LINE",
"521 281 LINE",
"505 266 LINE",
"518 210 LINE"
);
},
{
closed = 1;
nodes = (
"0 228 LINE SMOOTH",
"0 192 OFFCURVE",
"44 179 OFFCURVE",
"98 179 CURVE SMOOTH",
"107 179 OFFCURVE",
"116 179 OFFCURVE",
"123 180 CURVE",
"140 212 OFFCURVE",
"166 241 OFFCURVE",
"193 248 CURVE",
"184 271 OFFCURVE",
"164 299 OFFCURVE",
"144 299 CURVE SMOOTH",
"120 299 LINE SMOOTH",
"120 299 OFFCURVE",
"120 305 OFFCURVE",
"121 308 CURVE",
"145 318 OFFCURVE",
"162 343 OFFCURVE",
"162 372 CURVE SMOOTH",
"162 408 OFFCURVE",
"133 438 OFFCURVE",
"98 438 CURVE SMOOTH",
"63 438 OFFCURVE",
"35 408 OFFCURVE",
"35 371 CURVE SMOOTH",
"35 342 OFFCURVE",
"53 317 OFFCURVE",
"78 307 CURVE",
"79 305 OFFCURVE",
"79 299 OFFCURVE",
"79 299 CURVE",
"50 299 LINE SMOOTH",
"25 299 OFFCURVE",
"0 256 OFFCURVE",
"0 232 CURVE SMOOTH"
);
},
{
closed = 1;
nodes = (
"96 195 LINE",
"82 210 LINE",
"95 266 LINE",
"79 281 LINE",
"114 281 LINE",
"98 266 LINE",
"111 210 LINE"
);
}
);
width = 600;
}
);
unicode = 00DB;
},
{
glyphname = ecircumflex;
lastChange = "2013-10-25 12:54:29 -0300";
layers = (
{
layerId = "2B2FE4A8-39A2-493B-A970-B9343EE81639";
name = Regular;
paths = (
{
closed = 1;
nodes = (
"92 68 LINE",
"87 48 LINE",
"93 42 LINE",
"98 48 LINE",
"94 68 LINE",
"99 74 LINE",
"86 74 LINE"
);
},
{
closed = 1;
nodes = (
"529 167 LINE",
"529 230 LINE SMOOTH",
"529 252 OFFCURVE",
"511 271 OFFCURVE",
"488 271 CURVE SMOOTH",
"321 271 LINE",
"321 334 LINE",
"352 334 LINE SMOOTH",
"370 334 OFFCURVE",
"383 347 OFFCURVE",
"383 365 CURVE SMOOTH",
"383 469 LINE SMOOTH",
"383 486 OFFCURVE",
"370 500 OFFCURVE",
"352 500 CURVE SMOOTH",
"248 500 LINE SMOOTH",
"231 500 OFFCURVE",
"217 486 OFFCURVE",
"217 469 CURVE SMOOTH",
"217 365 LINE SMOOTH",
"217 347 OFFCURVE",
"231 334 OFFCURVE",
"248 334 CURVE SMOOTH",
"279 334 LINE",
"279 271 LINE",
"112 271 LINE SMOOTH",
"90 271 OFFCURVE",
"71 252 OFFCURVE",
"71 230 CURVE SMOOTH",
"71 167 LINE",
"39 167 LINE SMOOTH",
"23 167 OFFCURVE",
"8 153 OFFCURVE",
"8 135 CURVE SMOOTH",
"8 31 LINE SMOOTH",
"8 15 OFFCURVE",
"23 0 OFFCURVE",
"39 0 CURVE SMOOTH",
"144 0 LINE SMOOTH",
"161 0 OFFCURVE",
"175 15 OFFCURVE",
"175 31 CURVE SMOOTH",
"175 135 LINE SMOOTH",
"175 153 OFFCURVE",
"161 167 OFFCURVE",
"144 167 CURVE SMOOTH",
"112 167 LINE",
"112 230 LINE",
"279 230 LINE",
"279 167 LINE",
"248 167 LINE SMOOTH",
"231 167 OFFCURVE",
"217 153 OFFCURVE",
"217 135 CURVE SMOOTH",
"217 31 LINE SMOOTH",
"217 15 OFFCURVE",
"231 0 OFFCURVE",
"248 0 CURVE SMOOTH",
"352 0 LINE SMOOTH",
"370 0 OFFCURVE",
"383 15 OFFCURVE",
"383 31 CURVE SMOOTH",
"383 135 LINE SMOOTH",
"383 153 OFFCURVE",
"370 167 OFFCURVE",
"352 167 CURVE SMOOTH",
"321 167 LINE",
"321 230 LINE",
"488 230 LINE",
"488 167 LINE",
"456 167 LINE SMOOTH",
"439 167 OFFCURVE",
"425 153 OFFCURVE",
"425 135 CURVE SMOOTH",
"425 31 LINE SMOOTH",
"425 15 OFFCURVE",
"439 0 OFFCURVE",
"456 0 CURVE SMOOTH",
"561 0 LINE SMOOTH",
"578 0 OFFCURVE",
"592 15 OFFCURVE",
"592 31 CURVE SMOOTH",
"592 135 LINE SMOOTH",
"592 153 OFFCURVE",
"578 167 OFFCURVE",
"561 167 CURVE SMOOTH"
);
},
{
closed = 1;
nodes = (
"115 95 OFFCURVE",
"108 87 OFFCURVE",
"99 84 CURVE",
"99 83 OFFCURVE",
"99 81 OFFCURVE",
"99 81 CURVE",
"109 81 LINE SMOOTH",
"118 81 OFFCURVE",
"128 65 OFFCURVE",
"128 57 CURVE SMOOTH",
"128 55 LINE SMOOTH",
"128 43 OFFCURVE",
"112 38 OFFCURVE",
"93 38 CURVE SMOOTH",
"73 38 OFFCURVE",
"58 43 OFFCURVE",
"58 55 CURVE SMOOTH",
"58 56 OFFCURVE",
"58 57 OFFCURVE",
"58 57 CURVE",
"58 58 OFFCURVE",
"59 60 OFFCURVE",
"59 61 CURVE SMOOTH",
"62 70 OFFCURVE",
"69 81 OFFCURVE",
"77 81 CURVE SMOOTH",
"85 81 LINE",
"85 81 OFFCURVE",
"85 83 OFFCURVE",
"85 84 CURVE",
"76 88 OFFCURVE",
"70 96 OFFCURVE",
"70 106 CURVE SMOOTH",
"70 119 OFFCURVE",
"80 129 OFFCURVE",
"93 129 CURVE SMOOTH",
"105 129 OFFCURVE",
"115 119 OFFCURVE",
"115 106 CURVE SMOOTH"
);
},
{
closed = 1;
nodes = (
"323 95 OFFCURVE",
"316 87 OFFCURVE",
"308 84 CURVE",
"308 83 OFFCURVE",
"308 81 OFFCURVE",
"307 81 CURVE",
"317 81 LINE SMOOTH",
"326 81 OFFCURVE",
"335 65 OFFCURVE",
"335 57 CURVE SMOOTH",
"335 55 LINE SMOOTH",
"335 43 OFFCURVE",
"319 38 OFFCURVE",
"300 38 CURVE SMOOTH",
"281 38 OFFCURVE",
"266 43 OFFCURVE",
"266 55 CURVE SMOOTH",
"266 56 OFFCURVE",
"266 57 OFFCURVE",
"266 57 CURVE",
"266 58 OFFCURVE",
"266 60 OFFCURVE",
"267 61 CURVE SMOOTH",
"269 70 OFFCURVE",
"276 81 OFFCURVE",
"284 81 CURVE SMOOTH",
"293 81 LINE",
"293 81 OFFCURVE",
"293 83 OFFCURVE",
"293 84 CURVE",
"284 88 OFFCURVE",
"277 96 OFFCURVE",
"277 106 CURVE SMOOTH",
"277 119 OFFCURVE",
"288 129 OFFCURVE",
"300 129 CURVE SMOOTH",
"312 129 OFFCURVE",
"323 119 OFFCURVE",
"323 106 CURVE SMOOTH"
);
},
{
closed = 1;
nodes = (
"543 43 OFFCURVE",
"527 38 OFFCURVE",
"508 38 CURVE SMOOTH",
"490 38 OFFCURVE",
"474 43 OFFCURVE",
"474 55 CURVE SMOOTH",
"474 56 OFFCURVE",
"474 57 OFFCURVE",
"474 57 CURVE",
"474 58 OFFCURVE",
"474 60 OFFCURVE",
"475 61 CURVE SMOOTH",
"477 70 OFFCURVE",
"485 81 OFFCURVE",
"492 81 CURVE SMOOTH",
"501 81 LINE",
"501 81 OFFCURVE",
"501 83 OFFCURVE",
"501 84 CURVE",
"492 88 OFFCURVE",
"486 96 OFFCURVE",
"486 106 CURVE SMOOTH",
"486 119 OFFCURVE",
"496 129 OFFCURVE",
"508 129 CURVE SMOOTH",
"521 129 OFFCURVE",
"531 119 OFFCURVE",
"531 106 CURVE SMOOTH",
"531 95 OFFCURVE",
"525 87 OFFCURVE",
"516 84 CURVE",
"516 83 OFFCURVE",
"516 81 OFFCURVE",
"515 81 CURVE",
"526 81 LINE SMOOTH",
"534 81 OFFCURVE",
"543 65 OFFCURVE",
"543 57 CURVE SMOOTH",
"543 55 LINE SMOOTH"
);
},
{
closed = 1;
nodes = (
"508 68 LINE",
"503 48 LINE",
"508 42 LINE",
"514 48 LINE",
"509 68 LINE",
"515 74 LINE",
"502 74 LINE"
);
},
{
closed = 1;
nodes = (
"300 68 LINE",
"295 48 LINE",
"300 42 LINE",
"306 48 LINE",
"301 68 LINE",
"307 74 LINE",
"294 74 LINE"
);
}
);
width = 600;
}
);
unicode = 00EA;
},
{
glyphname = edieresis;
lastChange = "2013-10-25 12:58:05 -0300";
layers = (
{
layerId = "2B2FE4A8-39A2-493B-A970-B9343EE81639";
name = Regular;
paths = (
{
closed = 1;
nodes = (
"402 343 OFFCURVE",
"409 320 OFFCURVE",
"407 298 CURVE",
"444 295 LINE",
"448 327 OFFCURVE",
"437 361 OFFCURVE",
"412 386 CURVE SMOOTH",
"387 411 OFFCURVE",
"353 422 OFFCURVE",
"321 419 CURVE",
"325 381 LINE",
"346 383 OFFCURVE",
"368 376 OFFCURVE",
"385 359 CURVE SMOOTH"
);
},
{
closed = 1;
nodes = (
"520 288 LINE",
"526 342 OFFCURVE",
"508 398 OFFCURVE",
"466 440 CURVE SMOOTH",
"425 482 OFFCURVE",
"368 500 OFFCURVE",
"313 495 CURVE",
"317 457 LINE",
"360 461 OFFCURVE",
"406 446 OFFCURVE",
"439 413 CURVE SMOOTH",
"473 380 OFFCURVE",
"487 335 OFFCURVE",
"483 292 CURVE"
);
},
{
closed = 1;
nodes = (
"317 163 LINE",
"318 163 OFFCURVE",
"318 170 OFFCURVE",
"319 174 CURVE",
"353 186 OFFCURVE",
"378 220 OFFCURVE",
"378 260 CURVE SMOOTH",
"378 310 OFFCURVE",
"339 351 OFFCURVE",
"291 351 CURVE SMOOTH",
"244 351 OFFCURVE",
"206 310 OFFCURVE",
"206 260 CURVE SMOOTH",
"206 221 OFFCURVE",
"229 187 OFFCURVE",
"262 175 CURVE",
"263 171 OFFCURVE",
"263 163 OFFCURVE",
"263 163 CURVE SMOOTH",
"230 163 LINE SMOOTH",
"202 163 OFFCURVE",
"171 120 OFFCURVE",
"162 87 CURVE SMOOTH",
"160 83 OFFCURVE",
"159 78 OFFCURVE",
"159 74 CURVE",
"158 72 OFFCURVE",
"158 69 OFFCURVE",
"158 67 CURVE SMOOTH",
"158 18 OFFCURVE",
"218 0 OFFCURVE",
"291 0 CURVE SMOOTH",
"365 0 OFFCURVE",
"425 18 OFFCURVE",
"425 67 CURVE SMOOTH",
"425 72 LINE SMOOTH",
"425 104 OFFCURVE",
"390 163 OFFCURVE",
"356 163 CURVE SMOOTH"
);
},
{
closed = 1;
nodes = (
"291 14 LINE",
"270 35 LINE",
"288 117 LINE",
"267 139 LINE",
"316 139 LINE",
"294 117 LINE",
"312 35 LINE"
);
},
{
closed = 1;
nodes = (
"73 159 LINE SMOOTH",
"73 133 OFFCURVE",
"105 124 OFFCURVE",
"145 124 CURVE SMOOTH",
"151 124 OFFCURVE",
"157 124 OFFCURVE",
"163 124 CURVE",
"175 148 OFFCURVE",
"194 169 OFFCURVE",
"213 174 CURVE",
"207 191 OFFCURVE",
"192 211 OFFCURVE",
"177 211 CURVE SMOOTH",
"160 211 LINE SMOOTH",
"160 211 OFFCURVE",
"160 216 OFFCURVE",
"160 218 CURVE",
"178 224 OFFCURVE",
"191 243 OFFCURVE",
"191 264 CURVE SMOOTH",
"191 291 OFFCURVE",
"170 313 OFFCURVE",
"145 313 CURVE SMOOTH",
"119 313 OFFCURVE",
"98 291 OFFCURVE",
"98 263 CURVE SMOOTH",
"98 242 OFFCURVE",
"111 224 OFFCURVE",
"130 217 CURVE",
"130 215 OFFCURVE",
"130 211 OFFCURVE",
"131 211 CURVE",
"110 211 LINE SMOOTH",
"91 211 OFFCURVE",
"73 179 OFFCURVE",
"73 162 CURVE SMOOTH"
);
},
{
closed = 1;
nodes = (
"143 135 LINE",
"133 146 LINE",
"142 187 LINE",
"131 198 LINE",
"156 198 LINE",
"145 187 LINE",
"154 146 LINE"
);
}
);
width = 600;
}
);
unicode = 00EB;
},
{
glyphname = egrave;
lastChange = "2014-01-06 19:17:23 -0300";
layers = (
{
layerId = "2B2FE4A8-39A2-493B-A970-B9343EE81639";
name = Regular;
paths = (
{
closed = 1;
nodes = (
"472 476 LINE SMOOTH",
"451 497 OFFCURVE",
"418 497 OFFCURVE",
"397 476 CURVE SMOOTH",
"278 357 LINE SMOOTH",
"258 337 OFFCURVE",
"258 303 OFFCURVE",
"278 282 CURVE SMOOTH",
"282 279 LINE",
"268 265 LINE",
"264 268 LINE SMOOTH",
"244 289 OFFCURVE",
"210 289 OFFCURVE",
"189 268 CURVE SMOOTH",
"71 150 LINE SMOOTH",
"50 129 OFFCURVE",
"50 95 OFFCURVE",
"71 75 CURVE SMOOTH",
"128 18 LINE SMOOTH",
"148 -3 OFFCURVE",
"182 -3 OFFCURVE",
"203 18 CURVE SMOOTH",
"321 136 LINE SMOOTH",
"342 157 OFFCURVE",
"342 191 OFFCURVE",
"321 211 CURVE SMOOTH",
"318 215 LINE",
"332 229 LINE",
"335 225 LINE SMOOTH",
"356 205 OFFCURVE",
"390 205 OFFCURVE",
"410 225 CURVE SMOOTH",
"529 344 LINE SMOOTH",
"550 365 OFFCURVE",
"550 398 OFFCURVE",
"529 419 CURVE SMOOTH"
);
},
{
closed = 1;
nodes = (
"185 71 LINE SMOOTH",
"174 61 OFFCURVE",
"157 61 OFFCURVE",
"147 71 CURVE SMOOTH",
"124 94 LINE SMOOTH",
"114 104 OFFCURVE",
"114 121 OFFCURVE",
"124 132 CURVE SMOOTH",
"207 214 LINE SMOOTH",
"212 220 OFFCURVE",
"219 222 OFFCURVE",
"226 222 CURVE",
"207 204 LINE SMOOTH",
"198 194 OFFCURVE",
"198 179 OFFCURVE",
"207 170 CURVE SMOOTH",
"223 154 LINE SMOOTH",
"232 145 OFFCURVE",
"247 145 OFFCURVE",
"256 154 CURVE SMOOTH",
"275 173 LINE",
"275 166 OFFCURVE",
"272 159 OFFCURVE",
"267 154 CURVE SMOOTH"
);
},
{
closed = 1;
nodes = (
"392 279 LINE SMOOTH",
"387 274 OFFCURVE",
"381 272 OFFCURVE",
"374 271 CURVE",
"395 292 LINE SMOOTH",
"404 301 OFFCURVE",
"404 317 OFFCURVE",
"395 326 CURVE SMOOTH",
"379 342 LINE SMOOTH",
"370 351 OFFCURVE",
"354 351 OFFCURVE",
"345 342 CURVE SMOOTH",
"324 321 LINE",
"325 328 OFFCURVE",
"327 334 OFFCURVE",
"332 339 CURVE SMOOTH",
"415 422 LINE SMOOTH",
"425 433 OFFCURVE",
"442 433 OFFCURVE",
"453 422 CURVE SMOOTH",
"475 400 LINE SMOOTH",
"486 389 OFFCURVE",
"486 372 OFFCURVE",
"475 362 CURVE SMOOTH"
);
}
);
width = 600;
}
);
unicode = 00E8;
},
{
glyphname = dotlessi;
lastChange = "2013-07-16 00:26:18 -0300";
layers = (
{
layerId = "2B2FE4A8-39A2-493B-A970-B9343EE81639";
name = Regular;
paths = (
{
closed = 1;
nodes = (
"210 212 OFFCURVE",
"203 215 OFFCURVE",
"191 207 CURVE SMOOTH",
"179 198 OFFCURVE",
"175 190 OFFCURVE",
"175 190 CURVE",
"139 104 LINE",
"130 101 LINE",
"131 107 OFFCURVE",
"130 113 OFFCURVE",
"127 118 CURVE SMOOTH",
"117 135 OFFCURVE",
"92 143 OFFCURVE",
"73 132 CURVE SMOOTH",
"53 121 OFFCURVE",
"45 99 OFFCURVE",
"55 82 CURVE SMOOTH",
"62 68 OFFCURVE",
"80 62 OFFCURVE",
"97 67 CURVE",
"97 66 LINE",
"98 67 LINE",
"99 67 OFFCURVE",
"100 67 OFFCURVE",
"101 68 CURVE",
"128 77 LINE",
"117 50 LINE SMOOTH",
"116 49 OFFCURVE",
"116 48 OFFCURVE",
"116 47 CURVE",
"116 46 LINE",
"116 46 LINE",
"110 30 OFFCURVE",
"115 12 OFFCURVE",
"128 3 CURVE SMOOTH",
"144 -8 OFFCURVE",
"167 -1 OFFCURVE",
"180 18 CURVE SMOOTH",
"192 37 OFFCURVE",
"186 62 OFFCURVE",
"169 73 CURVE SMOOTH",
"164 76 OFFCURVE",
"158 78 OFFCURVE",
"152 78 CURVE",
"156 86 LINE",
"244 115 LINE",
"244 115 OFFCURVE",
"253 119 OFFCURVE",
"262 131 CURVE SMOOTH",
"271 142 OFFCURVE",
"268 150 OFFCURVE",
"268 150 CURVE",
"168 114 LINE",
"210 212 LINE"
);
},
{
closed = 1;
nodes = (
"88 80 OFFCURVE",
"76 83 OFFCURVE",
"71 91 CURVE SMOOTH",
"69 95 OFFCURVE",
"69 100 OFFCURVE",
"70 103 CURVE SMOOTH",
"72 108 OFFCURVE",
"76 113 OFFCURVE",
"82 117 CURVE SMOOTH",
"87 120 OFFCURVE",
"93 121 OFFCURVE",
"98 119 CURVE SMOOTH",
"103 118 OFFCURVE",
"108 113 OFFCURVE",
"110 109 CURVE SMOOTH",
"113 105 OFFCURVE",
"112 101 OFFCURVE",
"111 98 CURVE SMOOTH",
"110 92 OFFCURVE",
"104 89 OFFCURVE",
"98 86 CURVE SMOOTH"
);
},
{
closed = 1;
nodes = (
"169 40 OFFCURVE",
"168 33 OFFCURVE",
"164 28 CURVE SMOOTH",
"163 26 OFFCURVE",
"161 24 OFFCURVE",
"160 23 CURVE SMOOTH",
"157 20 OFFCURVE",
"153 18 OFFCURVE",
"149 17 CURVE SMOOTH",
"146 16 OFFCURVE",
"141 16 OFFCURVE",
"137 19 CURVE SMOOTH",
"134 21 OFFCURVE",
"131 25 OFFCURVE",
"131 30 CURVE SMOOTH",
"130 36 OFFCURVE",
"132 41 OFFCURVE",
"135 47 CURVE SMOOTH",
"136 48 LINE SMOOTH",
"138 51 OFFCURVE",
"140 55 OFFCURVE",
"143 57 CURVE SMOOTH",
"144 58 OFFCURVE",
"146 59 OFFCURVE",
"148 60 CURVE SMOOTH",
"151 60 OFFCURVE",
"155 60 OFFCURVE",
"159 58 CURVE SMOOTH",
"163 55 OFFCURVE",
"168 50 OFFCURVE",
"169 45 CURVE SMOOTH"
);
},
{
closed = 1;
nodes = (
"375 427 LINE",
"368 427 LINE",
"368 433 LINE",
"364 437 LINE",
"368 441 LINE",
"368 448 LINE",
"378 448 LINE SMOOTH",
"382 448 OFFCURVE",
"386 445 OFFCURVE",
"388 442 CURVE SMOOTH",
"389 438 OFFCURVE",
"389 434 OFFCURVE",
"386 431 CURVE SMOOTH",
"379 423 LINE"
);
},
{
closed = 1;
nodes = (
"333 427 LINE",
"333 448 LINE",
"351 448 LINE",
"351 427 LINE"
);
},
{
closed = 1;
nodes = (
"299 427 LINE",
"299 448 LINE",
"316 448 LINE",
"316 427 LINE"
);
},
{
closed = 1;
nodes = (
"271 427 LINE SMOOTH",
"265 427 OFFCURVE",
"261 432 OFFCURVE",
"261 438 CURVE SMOOTH",
"261 448 LINE",
"281 448 LINE",
"281 427 LINE"
);
},
{
closed = 1;
nodes = (
"261 458 LINE",
"261 469 LINE",
"281 469 LINE",
"281 458 LINE"
);
},
{
closed = 1;
nodes = (
"261 479 LINE",
"261 490 LINE SMOOTH",
"261 495 OFFCURVE",
"265 500 OFFCURVE",
"271 500 CURVE SMOOTH",
"281 500 LINE",
"281 479 LINE"
);
},
{
closed = 1;
nodes = (
"415 479 LINE",
"415 500 LINE",
"434 500 LINE",
"434 479 LINE"
);
},
{
closed = 1;
nodes = (
"377 479 LINE",
"377 500 LINE",
"396 500 LINE",
"396 479 LINE"
);
},
{
closed = 1;
nodes = (
"339 479 LINE",
"339 500 LINE",
"358 500 LINE",
"358 479 LINE"
);
},
{
closed = 1;
nodes = (
"300 479 LINE",
"300 500 LINE",
"319 500 LINE",
"319 479 LINE"
);
},
{
closed = 1;
nodes = (
"453 479 LINE",
"453 500 LINE",
"463 500 LINE SMOOTH",
"469 500 OFFCURVE",
"474 495 OFFCURVE",
"474 490 CURVE SMOOTH",
"474 479 LINE"
);
},
{
closed = 1;
nodes = (
"365 350 LINE",
"380 366 LINE",
"395 352 LINE",
"381 337 LINE"
);
},
{
closed = 1;
nodes = (
"394 382 LINE",
"408 398 LINE",
"423 384 LINE",
"409 368 LINE"
);
},
{
closed = 1;
nodes = (
"422 414 LINE",
"436 430 LINE",
"451 416 LINE",
"437 400 LINE"
);
},
{
closed = 1;
nodes = (
"450 446 LINE",
"453 449 LINE",
"453 458 LINE",
"474 458 LINE",
"474 445 LINE SMOOTH",
"474 442 OFFCURVE",
"473 440 OFFCURVE",
"471 438 CURVE SMOOTH",
"466 432 LINE"
);
},
{
closed = 1;
nodes = (
"352 310 LINE SMOOTH",
"348 310 OFFCURVE",
"345 312 OFFCURVE",
"343 316 CURVE SMOOTH",
"341 319 OFFCURVE",
"342 324 OFFCURVE",
"345 327 CURVE SMOOTH",
"351 334 LINE",
"356 330 LINE",
"362 330 LINE",
"362 324 LINE",
"367 321 LINE",
"362 316 LINE",
"362 310 LINE"
);
},
{
closed = 1;
nodes = (
"417 310 LINE",
"417 330 LINE",
"435 330 LINE",
"435 310 LINE"
);
},
{
closed = 1;
nodes = (
"381 310 LINE",
"381 330 LINE",
"399 330 LINE",
"399 310 LINE"
);
},
{
closed = 1;
nodes = (
"453 310 LINE",
"453 330 LINE",
"463 330 LINE SMOOTH",
"469 330 OFFCURVE",
"474 325 OFFCURVE",
"474 320 CURVE SMOOTH",
"474 310 LINE"
);
},
{
closed = 1;
nodes = (
"453 289 LINE",
"453 299 LINE",
"474 299 LINE",
"474 289 LINE"
);
},
{
closed = 1;
nodes = (
"453 258 LINE",
"453 278 LINE",
"474 278 LINE",
"474 268 LINE SMOOTH",
"474 262 OFFCURVE",
"469 258 OFFCURVE",
"463 258 CURVE SMOOTH"
);
},
{
closed = 1;
nodes = (
"414 258 LINE",
"414 278 LINE",
"434 278 LINE",
"434 258 LINE"
);
},
{
closed = 1;
nodes = (
"375 258 LINE",
"375 278 LINE",
"395 278 LINE",
"395 258 LINE"
);
},
{
closed = 1;
nodes = (
"336 258 LINE",
"336 278 LINE",
"356 278 LINE",
"356 258 LINE"
);
},
{
closed = 1;
nodes = (
"297 258 LINE",
"297 278 LINE",
"316 278 LINE",
"316 258 LINE"
);
},
{
closed = 1;
nodes = (
"267 258 LINE SMOOTH",
"262 258 OFFCURVE",
"257 262 OFFCURVE",
"257 268 CURVE SMOOTH",
"257 278 LINE",
"277 278 LINE",
"277 258 LINE"
);
},
{
closed = 1;
nodes = (
"257 299 LINE",
"257 312 LINE SMOOTH",
"257 315 OFFCURVE",
"258 317 OFFCURVE",
"260 319 CURVE SMOOTH",
"265 325 LINE",
"280 312 LINE",
"277 309 LINE",
"277 299 LINE"
);
},
{
closed = 1;
nodes = (
"279 341 LINE",
"293 357 LINE",
"309 344 LINE",
"294 328 LINE"
);
},
{
closed = 1;
nodes = (
"307 373 LINE",
"322 389 LINE",
"337 375 LINE",
"323 360 LINE"
);
},
{
closed = 1;
nodes = (
"336 405 LINE",
"350 421 LINE",
"365 407 LINE",
"351 391 LINE"
);
},
{
closed = 1;
nodes = (
"258 223 LINE",
"258 233 LINE SMOOTH",
"258 239 OFFCURVE",
"263 243 OFFCURVE",
"269 243 CURVE SMOOTH",
"279 243 LINE",
"279 223 LINE"
);
},
{
closed = 1;
nodes = (
"414 223 LINE",
"414 243 LINE",
"433 243 LINE",
"433 223 LINE"
);
},
{
closed = 1;
nodes = (
"375 223 LINE",
"375 243 LINE",
"395 243 LINE",
"395 223 LINE"
);
},
{
closed = 1;
nodes = (
"337 223 LINE",
"337 243 LINE",
"356 243 LINE",
"356 223 LINE"
);
},
{
closed = 1;
nodes = (
"298 223 LINE",
"298 243 LINE",
"317 243 LINE",
"317 223 LINE"
);
},
{
closed = 1;
nodes = (
"453 223 LINE",
"453 243 LINE",
"463 243 LINE SMOOTH",
"468 243 OFFCURVE",
"473 239 OFFCURVE",
"473 233 CURVE SMOOTH",
"473 223 LINE"
);
},
{
closed = 1;
nodes = (
"453 181 LINE",
"453 202 LINE",
"473 202 LINE",
"473 192 LINE SMOOTH",
"473 186 OFFCURVE",
"468 181 OFFCURVE",
"463 181 CURVE SMOOTH"
);
},
{
closed = 1;
nodes = (
"428 181 LINE",
"428 202 LINE",
"440 202 LINE",
"440 181 LINE"
);
},
{
closed = 1;
nodes = (
"396 181 LINE",
"396 192 LINE SMOOTH",
"396 197 OFFCURVE",
"400 202 OFFCURVE",
"406 202 CURVE SMOOTH",
"416 202 LINE",
"416 181 LINE"
);
},
{
closed = 1;
nodes = (
"404 145 OFFCURVE",
"401 146 OFFCURVE",
"400 147 CURVE SMOOTH",
"392 154 LINE",
"396 159 LINE",
"396 166 LINE",
"401 166 LINE",
"404 170 LINE",
"409 166 LINE",
"416 166 LINE",
"416 155 LINE SMOOTH",
"416 151 OFFCURVE",
"414 148 OFFCURVE",
"410 146 CURVE SMOOTH",
"409 146 OFFCURVE",
"407 145 OFFCURVE",
"406 145 CURVE SMOOTH"
);
},
{
closed = 1;
nodes = (
"362 176 LINE",
"375 192 LINE",
"390 181 LINE",
"377 165 LINE"
);
},
{
closed = 1;
nodes = (
"334 181 LINE",
"334 202 LINE",
"353 202 LINE",
"353 181 LINE"
);
},
{
closed = 1;
nodes = (
"297 181 LINE",
"297 202 LINE",
"316 202 LINE",
"316 181 LINE"
);
},
{
closed = 1;
nodes = (
"269 181 LINE SMOOTH",
"266 181 OFFCURVE",
"263 183 OFFCURVE",
"261 184 CURVE SMOOTH",
"259 186 OFFCURVE",
"258 189 OFFCURVE",
"258 192 CURVE SMOOTH",
"258 202 LINE",
"279 202 LINE",
"279 181 LINE"
);
}
);
width = 600;
}
);
unicode = 0131;
},
{
glyphname = icircumflex;
lastChange = "2014-01-06 19:06:37 -0300";
layers = (
{
layerId = "2B2FE4A8-39A2-493B-A970-B9343EE81639";
name = Regular;
paths = (
{
closed = 1;
nodes = (
"405 475 LINE",
"405 489 OFFCURVE",
"358 500 OFFCURVE",
"299 500 CURVE SMOOTH",
"240 500 OFFCURVE",
"193 489 OFFCURVE",
"193 475 CURVE",
"219 373 LINE",
"87 56 LINE",
"86 54 OFFCURVE",
"85 52 OFFCURVE",
"85 50 CURVE SMOOTH",
"85 23 OFFCURVE",
"182 0 OFFCURVE",
"300 0 CURVE SMOOTH",
"418 0 OFFCURVE",
"515 23 OFFCURVE",
"515 50 CURVE SMOOTH",
"515 51 OFFCURVE",
"515 53 OFFCURVE",
"515 53 CURVE",
"379 373 LINE"
);
},
{
closed = 1;
nodes = (
"228 480 OFFCURVE",
"257 485 OFFCURVE",
"299 485 CURVE SMOOTH",
"340 485 OFFCURVE",
"369 480 OFFCURVE",
"383 475 CURVE",
"369 470 OFFCURVE",
"340 464 OFFCURVE",
"299 464 CURVE SMOOTH",
"257 464 OFFCURVE",
"228 470 OFFCURVE",
"214 475 CURVE"
);
},
{
closed = 1;
nodes = (
"189 22 OFFCURVE",
"124 41 OFFCURVE",
"108 52 CURVE",
"242 372 LINE",
"223 450 LINE",
"238 446 OFFCURVE",
"263 443 OFFCURVE",
"299 443 CURVE SMOOTH",
"334 443 OFFCURVE",
"359 446 OFFCURVE",
"374 450 CURVE",
"355 372 LINE",
"489 52 LINE",
"474 41 OFFCURVE",
"408 22 OFFCURVE",
"299 22 CURVE SMOOTH"
);
},
{
closed = 1;
nodes = (
"346 147 OFFCURVE",
"407 129 OFFCURVE",
"421 138 CURVE",
"388 220 LINE",
"383 216 OFFCURVE",
"376 212 OFFCURVE",
"373 206 CURVE",
"366 196 OFFCURVE",
"351 203 OFFCURVE",
"345 206 CURVE",
"339 210 OFFCURVE",
"333 215 OFFCURVE",
"314 208 CURVE",
"295 202 OFFCURVE",
"281 214 OFFCURVE",
"265 227 CURVE SMOOTH",
"259 232 OFFCURVE",
"239 237 OFFCURVE",
"217 241 CURVE",
"180 149 LINE",
"204 164 OFFCURVE",
"244 183 OFFCURVE",
"287 168 CURVE SMOOTH"
);
},
{
closed = 1;
nodes = (
"425 95 OFFCURVE",
"397 83 OFFCURVE",
"357 108 CURVE SMOOTH",
"282 156 OFFCURVE",
"232 152 OFFCURVE",
"201 128 CURVE SMOOTH",
"194 122 OFFCURVE",
"174 102 OFFCURVE",
"163 104 CURVE",
"149 70 LINE",
"172 62 OFFCURVE",
"222 52 OFFCURVE",
"299 52 CURVE SMOOTH",
"376 52 OFFCURVE",
"426 62 OFFCURVE",
"449 70 CURVE",
"436 101 LINE"
);
}
);
width = 600;
}
);
unicode = 00EE;
},
{
glyphname = idieresis;
lastChange = "2014-01-06 19:06:59 -0300";
layers = (
{
layerId = "2B2FE4A8-39A2-493B-A970-B9343EE81639";
name = Regular;
paths = (
{
closed = 1;
nodes = (
"405 475 LINE",
"405 489 OFFCURVE",
"358 500 OFFCURVE",
"299 500 CURVE SMOOTH",
"240 500 OFFCURVE",
"193 489 OFFCURVE",
"193 475 CURVE",
"219 373 LINE",
"87 56 LINE",
"86 54 OFFCURVE",
"85 52 OFFCURVE",
"85 50 CURVE SMOOTH",
"85 23 OFFCURVE",
"182 0 OFFCURVE",
"300 0 CURVE SMOOTH",
"418 0 OFFCURVE",
"515 23 OFFCURVE",
"515 50 CURVE SMOOTH",
"515 51 OFFCURVE",
"515 53 OFFCURVE",
"515 53 CURVE",
"379 373 LINE"
);
},
{
closed = 1;
nodes = (
"228 480 OFFCURVE",
"257 485 OFFCURVE",
"299 485 CURVE SMOOTH",
"340 485 OFFCURVE",
"369 480 OFFCURVE",
"383 475 CURVE",
"369 470 OFFCURVE",
"340 464 OFFCURVE",
"299 464 CURVE SMOOTH",
"257 464 OFFCURVE",
"228 470 OFFCURVE",
"214 475 CURVE"
);
},
{
closed = 1;
nodes = (
"189 22 OFFCURVE",
"124 41 OFFCURVE",
"108 52 CURVE",
"242 372 LINE",
"223 450 LINE",
"238 446 OFFCURVE",
"263 443 OFFCURVE",
"299 443 CURVE SMOOTH",
"334 443 OFFCURVE",
"359 446 OFFCURVE",
"374 450 CURVE",
"355 372 LINE",
"489 52 LINE",
"474 41 OFFCURVE",
"408 22 OFFCURVE",
"299 22 CURVE SMOOTH"
);
},
{
closed = 1;
nodes = (
"366 196 OFFCURVE",
"351 203 OFFCURVE",
"345 206 CURVE",
"339 210 OFFCURVE",
"333 215 OFFCURVE",
"314 208 CURVE",
"295 202 OFFCURVE",
"281 214 OFFCURVE",
"265 227 CURVE SMOOTH",
"259 232 OFFCURVE",
"239 237 OFFCURVE",
"217 241 CURVE",
"149 70 LINE",
"172 62 OFFCURVE",
"222 52 OFFCURVE",
"299 52 CURVE SMOOTH",
"376 52 OFFCURVE",
"426 62 OFFCURVE",
"449 70 CURVE",
"388 220 LINE",
"383 216 OFFCURVE",
"376 212 OFFCURVE",
"373 206 CURVE"
);
}
);
width = 600;
}
);
unicode = 00EF;
},
{
glyphname = ocircumflex;
lastChange = "2014-01-06 19:15:10 -0300";
layers = (
{
layerId = "2B2FE4A8-39A2-493B-A970-B9343EE81639";
name = Regular;
paths = (
{
closed = 1;
nodes = (
"344 178 OFFCURVE",
"339 178 OFFCURVE",
"335 175 CURVE SMOOTH",
"310 150 LINE SMOOTH",
"308 148 OFFCURVE",
"308 146 OFFCURVE",
"308 144 CURVE",
"314 150 LINE SMOOTH",
"317 153 OFFCURVE",
"321 153 OFFCURVE",
"324 150 CURVE SMOOTH",
"329 146 LINE SMOOTH",
"332 143 OFFCURVE",
"332 138 OFFCURVE",
"329 135 CURVE SMOOTH",
"323 129 LINE",
"325 129 OFFCURVE",
"327 130 OFFCURVE",
"328 131 CURVE SMOOTH",
"354 157 LINE SMOOTH",
"357 160 OFFCURVE",
"357 165 OFFCURVE",
"354 168 CURVE SMOOTH",
"347 175 LINE SMOOTH"
);
},
{
closed = 1;
nodes = (
"272 98 LINE SMOOTH",
"269 100 OFFCURVE",
"269 105 OFFCURVE",
"272 108 CURVE SMOOTH",
"277 114 LINE",
"275 114 OFFCURVE",
"273 113 OFFCURVE",
"272 111 CURVE SMOOTH",
"246 86 LINE SMOOTH",
"243 83 OFFCURVE",
"243 78 OFFCURVE",
"246 74 CURVE SMOOTH",
"253 68 LINE SMOOTH",
"256 64 OFFCURVE",
"262 64 OFFCURVE",
"265 68 CURVE SMOOTH",
"290 93 LINE SMOOTH",
"292 94 OFFCURVE",
"292 97 OFFCURVE",
"292 99 CURVE",
"287 93 LINE SMOOTH",
"284 90 OFFCURVE",
"279 90 OFFCURVE",
"276 93 CURVE SMOOTH"
);
},
{
closed = 1;
nodes = (
"337 232 LINE",
"338 232 OFFCURVE",
"338 243 OFFCURVE",
"339 248 CURVE",
"388 265 OFFCURVE",
"423 314 OFFCURVE",
"423 370 CURVE SMOOTH",
"423 442 OFFCURVE",
"368 500 OFFCURVE",
"300 500 CURVE SMOOTH",
"233 500 OFFCURVE",
"178 442 OFFCURVE",
"178 371 CURVE SMOOTH",
"178 315 OFFCURVE",
"211 267 OFFCURVE",
"258 249 CURVE",
"259 244 OFFCURVE",
"260 232 OFFCURVE",
"260 232 CURVE SMOOTH",
"213 232 LINE SMOOTH",
"172 232 OFFCURVE",
"129 171 OFFCURVE",
"115 124 CURVE SMOOTH",
"113 118 OFFCURVE",
"111 111 OFFCURVE",
"111 105 CURVE",
"110 102 OFFCURVE",
"110 98 OFFCURVE",
"110 95 CURVE SMOOTH",
"110 25 OFFCURVE",
"195 0 OFFCURVE",
"300 0 CURVE SMOOTH",
"405 0 OFFCURVE",
"490 25 OFFCURVE",
"490 95 CURVE SMOOTH",
"490 102 LINE SMOOTH",
"490 148 OFFCURVE",
"441 232 OFFCURVE",
"392 232 CURVE SMOOTH"
);
},
{
closed = 1;
nodes = (
"334 115 LINE SMOOTH",
"328 108 OFFCURVE",
"317 108 OFFCURVE",
"311 115 CURVE SMOOTH",
"310 116 LINE",
"305 112 LINE",
"307 110 LINE SMOOTH",
"313 104 OFFCURVE",
"313 94 OFFCURVE",
"307 87 CURVE SMOOTH",
"270 51 LINE SMOOTH",
"264 45 OFFCURVE",
"254 45 OFFCURVE",
"247 51 CURVE SMOOTH",
"230 68 LINE SMOOTH",
"223 75 OFFCURVE",
"223 85 OFFCURVE",
"230 91 CURVE SMOOTH",
"266 128 LINE SMOOTH",
"273 134 OFFCURVE",
"283 134 OFFCURVE",
"289 128 CURVE SMOOTH",
"290 127 LINE",
"295 131 LINE",
"293 132 LINE SMOOTH",
"287 138 OFFCURVE",
"287 149 OFFCURVE",
"293 155 CURVE SMOOTH",
"330 192 LINE SMOOTH",
"336 198 OFFCURVE",
"346 198 OFFCURVE",
"353 192 CURVE SMOOTH",
"370 174 LINE SMOOTH",
"377 168 OFFCURVE",
"377 157 OFFCURVE",
"370 151 CURVE SMOOTH"
);
}
);
width = 600;
}
);
unicode = 00F4;
},
{
glyphname = ucircumflex;
lastChange = "2014-01-06 19:15:30 -0300";
layers = (
{
layerId = "2B2FE4A8-39A2-493B-A970-B9343EE81639";
name = Regular;
paths = (
{
closed = 1;
nodes = (
"243 158 LINE SMOOTH",
"237 163 OFFCURVE",
"237 173 OFFCURVE",
"243 178 CURVE SMOOTH",
"255 190 LINE",
"250 190 OFFCURVE",
"246 188 OFFCURVE",
"243 185 CURVE SMOOTH",
"193 134 LINE SMOOTH",
"186 128 OFFCURVE",
"186 118 OFFCURVE",
"193 111 CURVE SMOOTH",
"206 97 LINE SMOOTH",
"213 91 OFFCURVE",
"223 91 OFFCURVE",
"229 97 CURVE SMOOTH",
"280 148 LINE SMOOTH",
"283 151 OFFCURVE",
"285 155 OFFCURVE",
"285 159 CURVE",
"273 148 LINE SMOOTH",
"268 142 OFFCURVE",
"258 142 OFFCURVE",
"253 148 CURVE SMOOTH"
);
},
{
closed = 1;
nodes = (
"387 319 OFFCURVE",
"377 319 OFFCURVE",
"371 312 CURVE SMOOTH",
"320 262 LINE SMOOTH",
"317 258 OFFCURVE",
"315 254 OFFCURVE",
"315 250 CURVE",
"328 263 LINE SMOOTH",
"333 269 OFFCURVE",
"343 269 OFFCURVE",
"348 263 CURVE SMOOTH",
"358 253 LINE SMOOTH",
"364 248 OFFCURVE",
"364 238 OFFCURVE",
"358 233 CURVE SMOOTH",
"345 220 LINE",
"349 220 OFFCURVE",
"354 222 OFFCURVE",
"357 225 CURVE SMOOTH",
"407 276 LINE SMOOTH",
"414 282 OFFCURVE",
"414 292 OFFCURVE",
"407 299 CURVE SMOOTH",
"394 312 LINE SMOOTH"
);
},
{
closed = 1;
nodes = (
"254 500 LINE",
"95 500 LINE",
"28 418 LINE",
"28 0 LINE",
"572 0 LINE",
"572 417 LINE",
"326 417 LINE"
);
},
{
closed = 1;
nodes = (
"368 192 LINE SMOOTH",
"355 179 OFFCURVE",
"334 179 OFFCURVE",
"322 192 CURVE SMOOTH",
"319 194 LINE",
"311 185 LINE",
"313 183 LINE SMOOTH",
"326 171 OFFCURVE",
"326 150 OFFCURVE",
"313 137 CURVE SMOOTH",
"240 64 LINE SMOOTH",
"228 52 OFFCURVE",
"207 52 OFFCURVE",
"194 64 CURVE SMOOTH",
"159 99 LINE SMOOTH",
"147 112 OFFCURVE",
"147 133 OFFCURVE",
"159 145 CURVE SMOOTH",
"232 218 LINE SMOOTH",
"245 231 OFFCURVE",
"266 231 OFFCURVE",
"278 218 CURVE SMOOTH",
"281 216 LINE",
"289 224 LINE",
"287 227 LINE SMOOTH",
"274 239 OFFCURVE",
"274 260 OFFCURVE",
"287 273 CURVE SMOOTH",
"360 345 LINE SMOOTH",
"372 358 OFFCURVE",
"393 358 OFFCURVE",
"406 345 CURVE SMOOTH",
"440 310 LINE SMOOTH",
"453 298 OFFCURVE",
"453 277 OFFCURVE",
"440 264 CURVE SMOOTH"
);
}
);
width = 600;
}
);
unicode = 00FB;
},
